<?xml version="1.0" standalone="no"?><!DOCTYPE svg PUBLIC "-//W3C//DTD SVG 1.1//EN" "http://www.w3.org/Graphics/SVG/1.1/DTD/svg11.dtd"><svg t="1542012136730" class="icon" style="" viewBox="0 0 1024 1024" version="1.1" xmlns="http://www.w3.org/2000/svg" p-id="2663" xmlns:xlink="http://www.w3.org/1999/xlink" width="48" height="48"><defs><style type="text/css"></style></defs><path d="M133.34755555 136.98844445c-39.13955555 19.11466667-58.25422222 40.04977778-58.25422222 62.80533333v62.80533333c0 22.75555555 19.11466667 43.69066667 58.25422222 62.80533334 39.13955555 19.11466667 91.93244445 34.58844445 159.2888889 45.5111111 67.35644445 10.92266667 140.17422222 16.384 219.36355555 16.384s152.00711111-5.46133333 219.36355555-16.384c67.35644445-10.92266667 120.14933333-26.39644445 159.2888889-45.5111111 39.13955555-19.11466667 58.25422222-40.04977778 58.25422222-62.80533334v-62.80533333c0-22.75555555-19.11466667-43.69066667-58.25422222-62.80533333-39.13955555-19.11466667-91.93244445-34.58844445-159.2888889-45.51111112C664.00711111 80.55466667 591.18933333 75.09333333 512 75.09333333s-152.00711111 5.46133333-219.36355555 16.384c-66.44622222 11.83288889-120.14933333 26.39644445-159.2888889 45.51111112M75.09333333 557.51111111v79.18933334c0 22.75555555 19.11466667 43.69066667 58.25422222 62.80533333s91.93244445 34.58844445 159.2888889 45.51111111c67.35644445 10.92266667 140.17422222 16.384 219.36355555 16.384s152.00711111-5.46133333 219.36355555-16.384c67.35644445-10.92266667 120.14933333-26.39644445 159.2888889-45.51111111 39.13955555-19.11466667 58.25422222-40.04977778 58.25422222-62.80533333v-82.83022223c-45.51111111 27.30666667-106.496 48.24177778-184.77511112 61.89511111-78.27911111 14.56355555-162.01955555 20.93511111-252.13155555 20.93511112s-173.85244445-6.37155555-252.13155555-20.93511112c-78.27911111-13.65333333-139.264-34.58844445-184.77511112-61.89511111m0 185.68533333v84.65066667c0 22.75555555 19.11466667 43.69066667 58.25422222 62.80533333s91.93244445 34.58844445 159.2888889 45.51111112C359.99288889 943.44533333 432.81066667 948.90666667 512 948.90666667s152.00711111-5.46133333 219.36355555-16.384c67.35644445-10.92266667 120.14933333-26.39644445 159.2888889-45.51111112 39.13955555-19.11466667 58.25422222-40.04977778 58.25422222-62.80533333v-82.83022222c-45.51111111 27.30666667-106.496 48.24177778-184.77511112 61.89511111-78.27911111 13.65333333-162.01955555 20.93511111-252.13155555 20.93511111S338.14755555 816.92444445 259.86844445 803.27111111C181.58933333 789.61777778 120.60444445 768.68266667 75.09333333 741.376m0-375.01155555v82.83022222c0 22.75555555 19.11466667 43.69066667 58.25422222 62.80533333s91.93244445 34.58844445 159.2888889 45.51111111c67.35644445 10.92266667 140.17422222 16.384 219.36355555 16.384s152.00711111-5.46133333 219.36355555-16.384c67.35644445-10.92266667 120.14933333-26.39644445 159.2888889-45.51111111 39.13955555-19.11466667 58.25422222-40.04977778 58.25422222-62.80533333V366.36444445c-45.51111111 27.30666667-106.496 48.24177778-184.77511112 61.8951111-78.27911111 13.65333333-162.01955555 20.93511111-252.13155555 20.93511112s-173.85244445-7.28177778-252.13155555-20.93511112C181.58933333 414.60622222 120.60444445 393.67111111 75.09333333 366.36444445"></path></svg>