<?xml version="1.0" standalone="no"?><!DOCTYPE svg PUBLIC "-//W3C//DTD SVG 1.1//EN" "http://www.w3.org/Graphics/SVG/1.1/DTD/svg11.dtd"><svg xmlns="http://www.w3.org/2000/svg" viewBox="0 0 125 140"><style>.st0{fill:none;stroke:#C9CACA;stroke-width:2.1696;stroke-linecap:round;stroke-linejoin:round;stroke-miterlimit:10;}</style><path id="XMLID_72_" class="st0" d="M17.5 43.3c9.2 4.3 21.8 7 35.8 7 14 0 26.7-2.7 35.8-7 4.6-2.2 8.3-4.7 10.9-7.6 2.6-2.8 4-6 4-9.3 0-1.3-.3-2.6-.8-3.8-3.9-11.3-24.6-20-49.8-20-25.2 0-46 8.7-49.8 20-.5 1.2-.8 2.5-.8 3.8 0 3.3 1.4 6.4 4 9.3 2.4 2.8 6.1 5.4 10.7 7.6z"></path><path id="XMLID_71_" class="st0" d="M2.6 63.6c0 3.3 1.4 6.5 4 9.4 2.6 2.9 6.3 5.5 10.9 7.6 9.2 4.3 21.8 7 35.8 7"></path><path id="XMLID_70_" class="st0" d="M103.9 53.3V25.1"></path><path id="XMLID_69_" class="st0" d="M2.6 25.1v82.4c0 .2 0 .3.1.5 0 .3-.1.5-.1.8 0 2.8 1.4 5.5 4 8s6.3 4.7 10.9 6.5c9.2 3.7 21.8 6 35.8 6"></path><path id="XMLID_68_" class="st0" d="M70 85.4c5.5 2.6 13.2 4.2 21.7 4.2s16.1-1.6 21.7-4.2c2.8-1.3 5-2.9 6.6-4.6 1.5-1.7 2.4-3.6 2.4-5.6 0-.8-.2-1.5-.5-2.3-2.3-6.9-14.9-12.1-30.2-12.1-15.3 0-27.8 5.3-30.2 12.1-.3.7-.5 1.5-.5 2.3 0 2 .9 3.9 2.4 5.6 1.6 1.8 3.8 3.3 6.6 4.6z"></path><path id="XMLID_67_" class="st0" d="M61 97.7c0 2 .9 3.9 2.4 5.7 1.5 1.7 3.8 3.3 6.6 4.6 5.5 2.6 13.2 4.3 21.7 4.3s16.1-1.6 21.7-4.3c2.8-1.3 5-2.9 6.6-4.6 1.5-1.7 2.4-3.7 2.4-5.7"></path><path id="XMLID_66_" class="st0" d="M61 74.4V125.1c0 1.7.9 3.4 2.4 4.8 1.5 1.5 3.8 2.8 6.6 4 5.5 2.2 13.2 3.6 21.7 3.6s16.1-1.4 21.7-3.6c2.8-1.1 5-2.5 6.6-4 1.5-1.5 2.4-3.1 2.4-4.8v-.5V74.4"></path></svg>