<?xml version="1.0" standalone="no"?><!DOCTYPE svg PUBLIC "-//W3C//DTD SVG 1.1//EN" "http://www.w3.org/Graphics/SVG/1.1/DTD/svg11.dtd"><svg viewBox="0 0 180 180" version="1.1" xmlns="http://www.w3.org/2000/svg" xmlns:xlink="http://www.w3.org/1999/xlink">
<g>
  <path fill="#FFFFFF" d="M8.7,146.6c-4.2,0-7.7-3-7.7-6.7v-25.6c10.6-0.5,19.1-9.3,19.1-20.1S11.6,74.6,1,74.1V48.4
    c0-3.7,3.4-6.7,7.7-6.7h162.8c4.2,0,7.7,3,7.7,6.7v25.6c-10.6,0.5-19.1,9.3-19.1,20.1s8.5,19.6,19.1,20.1v25.6
    c0,3.7-3.4,6.7-7.7,6.7H8.7z"/>
  <path fill="#C9CACA" d="M171.5,42.7c3.7,0,6.7,2.6,6.7,5.7v24.7c-10.7,1-19.1,10.1-19.1,21.1s8.4,20,19.1,21.1v24.7
    c0,3.2-3,5.7-6.7,5.7H8.7c-3.7,0-6.7-2.6-6.7-5.7v-24.7c10.7-1,19.1-10.1,19.1-21.1S12.7,74.1,2,73.1V48.4c0-3.2,3-5.7,6.7-5.7
    H171.5 M171.5,40.7H8.7c-4.8,0-8.7,3.5-8.7,7.7V75c10.6,0,19.1,8.6,19.1,19.1c0,10.6-8.6,19.1-19.1,19.1v26.6
    c0,4.3,3.9,7.7,8.7,7.7h162.8c4.8,0,8.7-3.5,8.7-7.7v-26.6c-10.6,0-19.1-8.6-19.1-19.1c0-10.6,8.6-19.1,19.1-19.1V48.4
    C180.2,44.2,176.3,40.7,171.5,40.7L171.5,40.7z"/>
</g>
<g>
  <path fill="#DCDDDD" d="M143,76.3c0,2.6-2.1,4.7-4.7,4.7H41.9c-2.6,0-4.7-2.1-4.7-4.7l0,0c0-2.6,2.1-4.7,4.7-4.7h96.3
    C140.9,71.6,143,73.7,143,76.3L143,76.3z"/>
  <path fill="#DCDDDD" d="M143,97.4c0,2.6-2.1,4.7-4.7,4.7H41.9c-2.6,0-4.7-2.1-4.7-4.7l0,0c0-2.6,2.1-4.7,4.7-4.7h96.3
    C140.9,92.7,143,94.8,143,97.4L143,97.4z"/>
  <path fill="#DCDDDD" d="M143,119.3c0,2.6-2.1,4.7-4.7,4.7H41.9c-2.6,0-4.7-2.1-4.7-4.7l0,0c0-2.6,2.1-4.7,4.7-4.7h96.3
    C140.9,114.5,143,116.6,143,119.3L143,119.3z"/>
</g>
</svg>
