<?xml version="1.0" standalone="no"?><!DOCTYPE svg PUBLIC "-//W3C//DTD SVG 1.1//EN" "http://www.w3.org/Graphics/SVG/1.1/DTD/svg11.dtd"><svg xmlns="http://www.w3.org/2000/svg" viewBox="0 0 180 150"><style>.st0{fill:#C9CACA;} .st1{fill:#DCDDDD;}</style><g id="XMLID_111_"><path id="XMLID_487_" class="st0" d="M169.6 148.6H10.9c-5.2 0-9.4-4-9.4-8.8v-27c0-.5.4-1 1-1 9.7 0 17.7-8.3 17.7-18.5s-8-18.4-17.7-18.4c-.5 0-1-.4-1-1v-27c0-4.9 4.2-8.8 9.4-8.8h158.6c5.2 0 9.4 4 9.4 8.8v27c0 .5-.4 1-1 1-9.7 0-17.7 8.3-17.7 18.5s7.9 18.5 17.7 18.5c.5 0 1 .4 1 1v27c.1 4.8-4.1 8.7-9.3 8.7zM3.5 113.8v26.1c0 3.8 3.3 6.9 7.5 6.9h158.6c4.1 0 7.5-3.1 7.5-6.9v-26.1c-10.4-.5-18.7-9.5-18.7-20.4 0-10.9 8.3-19.9 18.7-20.4V46.9c0-3.8-3.3-6.9-7.5-6.9H10.9c-4.1 0-7.5 3.1-7.5 6.9V73c10.4.5 18.7 9.5 18.7 20.4 0 10.9-8.3 19.8-18.6 20.4z"></path></g><path class="st1" d="M136.1 95.3H44.7c-1.6 0-3-1.3-3-3V92c0-1.6 1.3-3 3-3h91.4c1.6 0 3 1.3 3 3v.3c0 1.6-1.4 3-3 3z" id="XMLID_253_"></path><path class="st1" d="M136.1 75.6H44.7c-1.6 0-3-1.3-3-3v-.3c0-1.6 1.3-3 3-3h91.4c1.6 0 3 1.3 3 3v.3c0 1.6-1.4 3-3 3z" id="XMLID_343_"></path><path class="st1" d="M136.1 117.4H44.7c-1.6 0-3-1.3-3-3v-.3c0-1.6 1.3-3 3-3h91.4c1.6 0 3 1.3 3 3v.3c0 1.7-1.4 3-3 3z"></path></svg>