<svg 
 xmlns="http://www.w3.org/2000/svg"
 xmlns:xlink="http://www.w3.org/1999/xlink"
 width="29px" height="28px">
<path fill-rule="evenodd"  fill="rgb(51, 51, 51)"
 d="M17.284,13.625 L27.342,23.899 C28.235,24.810 28.235,26.288 27.342,27.199 C26.450,28.110 25.004,28.110 24.111,27.199 L14.053,16.925 L3.906,27.290 C3.006,28.209 1.547,28.209 0.647,27.290 C-0.253,26.371 -0.253,24.881 0.647,23.962 L10.794,13.597 L1.497,4.100 C0.605,3.189 0.605,1.712 1.497,0.800 C2.389,-0.111 3.836,-0.111 4.728,0.800 L14.025,10.297 L23.459,0.660 C24.359,-0.259 25.818,-0.259 26.718,0.660 C27.618,1.580 27.618,3.070 26.718,3.989 L17.284,13.625 Z"/>
</svg>