<svg 
 xmlns="http://www.w3.org/2000/svg"
 xmlns:xlink="http://www.w3.org/1999/xlink"
 width="58px" height="52px">
<path fill-rule="evenodd"  stroke-width="4px" stroke="rgb(255, 255, 255)" fill-opacity="0" fill="rgb(255, 255, 255)"
 d="M39.574,3.998 C35.171,3.998 31.679,6.108 29.000,9.569 C26.300,6.108 22.841,3.998 18.434,3.998 C10.472,3.998 3.994,10.714 3.994,18.994 C3.994,23.935 6.321,27.396 8.179,30.168 C13.557,38.268 26.551,46.972 27.120,47.397 C27.684,47.821 28.315,48.001 28.978,48.001 C29.637,48.001 30.267,47.789 30.836,47.397 C31.405,46.972 44.394,38.242 49.806,30.168 C51.664,27.396 53.991,23.935 53.991,18.994 C53.985,10.746 47.502,3.998 39.574,3.998 L39.574,3.998 Z"/>
</svg>