<svg 
 xmlns="http://www.w3.org/2000/svg"
 xmlns:xlink="http://www.w3.org/1999/xlink"
 width="44px" height="44px">
<path fill-rule="evenodd"  fill="rgb(255, 255, 255)"
 d="M41.553,15.826 C40.246,15.826 39.170,14.800 39.108,13.497 L39.108,8.354 L23.723,23.730 C23.106,24.347 22.206,24.587 21.363,24.360 C20.520,24.134 19.862,23.475 19.637,22.632 C19.412,21.789 19.653,20.890 20.271,20.274 L35.661,4.898 L30.510,4.898 C29.205,4.835 28.179,3.759 28.179,2.453 C28.179,1.148 29.205,0.072 30.510,0.009 L40.332,0.009 C42.355,0.012 43.996,1.651 43.999,3.674 L43.999,13.497 C43.936,14.800 42.860,15.826 41.553,15.826 ZM21.997,4.898 C12.548,4.898 4.887,12.554 4.887,21.999 C4.887,31.444 12.548,39.101 21.997,39.101 C31.447,39.101 39.108,31.444 39.108,21.999 C39.108,21.351 39.366,20.729 39.825,20.271 C40.284,19.813 40.907,19.556 41.556,19.558 C42.905,19.558 43.999,20.651 43.999,21.999 C43.999,34.144 34.148,43.989 21.997,43.989 C9.846,43.989 -0.004,34.144 -0.004,21.999 C-0.004,9.855 9.846,0.009 21.997,0.009 C23.302,0.072 24.328,1.148 24.328,2.453 C24.328,3.759 23.302,4.835 21.997,4.898 Z"/>
</svg>