<?xml version="1.0" standalone="no"?><!DOCTYPE svg PUBLIC "-//W3C//DTD SVG 1.1//EN" "http://www.w3.org/Graphics/SVG/1.1/DTD/svg11.dtd"><svg t="1566272058277" class="icon" viewBox="0 0 1113 1024" version="1.1" xmlns="http://www.w3.org/2000/svg" p-id="2590" xmlns:xlink="http://www.w3.org/1999/xlink" width="52.171875" height="48"><defs><style type="text/css"></style></defs><path d="M961.59328965 151.49474052C908.81481377 93.78312558 838.17095117 62 762.67358458 62c-41.29388877 0-82.87361191 10.15495751-120.24687041 29.36419541-34.54761797 17.75731026-65.9098125 43.50235342-90.89831779 74.58440186-24.98139492-31.08204844-56.33790117-56.82709161-90.87983085-74.58440186C423.27815117 72.15495753 381.69558388 62 340.39174063 62 264.88299746 62 194.23628985 93.78312558 141.46208106 151.49474052 90.22085615 207.53116455 62 281.62353271 62 360.12287568c0 42.61071972 8.43568242 83.32582763 25.78770527 124.47324405 14.45954502 34.28311377 33.13408623 64.57022842 52.60640538 95.1488666 42.90650859 67.29774698 116.95052636 148.69525605 220.07432636 241.92433653 77.28632315 69.86315039 142.71263437 120.71757305 149.91823125 126.28495282 11.71780576 9.05712451 26.32382315 14.04572432 41.13035156 14.04572432s29.4125458-4.98575567 41.13035069-14.03861396c7.22123964-5.58160049 72.78264667-56.55263291 149.92818574-126.29206319 103.14228691-93.23761289 177.18488262-174.63654404 220.0672169-241.9300248 33.09569033-51.93092549 78.42397412-123.04975781 78.42397412-219.61642237 0-78.50218799-28.22370029-152.59455529-79.47345762-208.62813515zM340.39174063 131.68112627c74.00704395 0 143.11650059 43.57630107 180.35892861 113.72244082a34.76946006 34.76946006 0 0 0 30.77203886 18.50247246 34.76946006 34.76946006 0 0 0 30.77061592-18.49394004C619.55992812 175.2602706 688.67933925 131.68112627 762.67358458 131.68112627c55.69939424 0 108.08253633 23.73708867 147.50072225 66.83984209 39.46938047 43.15537002 61.20704795 100.5470209 61.20704796 161.60190732 0 76.27239141-35.86302685 132.52923545-67.5039463 182.16210586-93.07691982 146.05874999-329.00014687 331.23989707-352.35754453 349.38969786C528.43692412 873.73534414 292.27336807 688.36364052 199.16089737 542.29778018c-17.80850479-27.96488438-34.8163875-55.49177373-47.16701192-84.78486563C138.325008 425.10550273 131.68112627 393.2484295 131.68112627 360.12287568c0-61.05204317 21.73482334-118.44369316 61.19993672-161.60332939C232.29782773 155.41821494 284.68523604 131.68112627 340.39174063 131.68112627z" p-id="2591"></path></svg>