<?xml version="1.0" standalone="no"?><!DOCTYPE svg PUBLIC "-//W3C//DTD SVG 1.1//EN" "http://www.w3.org/Graphics/SVG/1.1/DTD/svg11.dtd"><svg t="1557742060646" class="icon" style="" viewBox="0 0 1024 1024" version="1.1" xmlns="http://www.w3.org/2000/svg" p-id="7416" xmlns:xlink="http://www.w3.org/1999/xlink" width="200" height="200"><defs><style type="text/css"></style></defs><path d="M512 0C288 0 108.8 179.2 108.8 403.2c0 83.2 25.6 166.4 70.4 230.4 0 6.4 6.4 6.4 6.4 12.8l275.2 352C473.6 1017.6 492.8 1024 512 1024c19.2 0 38.4-6.4 51.2-25.6l275.2-352c0-6.4 6.4-6.4 6.4-12.8 44.8-64 70.4-147.2 70.4-230.4C915.2 179.2 736 0 512 0L512 0zM512 569.6c-89.6 0-160-70.4-160-160 0-89.6 70.4-160 160-160 89.6 0 160 70.4 160 160C672 499.2 601.6 569.6 512 569.6L512 569.6zM512 569.6" p-id="7417"></path></svg>