<?xml version="1.0" standalone="no"?><!DOCTYPE svg PUBLIC "-//W3C//DTD SVG 1.1//EN" "http://www.w3.org/Graphics/SVG/1.1/DTD/svg11.dtd"><svg t="1557391698313" class="icon" style="" viewBox="0 0 1024 1024" version="1.1" xmlns="http://www.w3.org/2000/svg" p-id="13410" xmlns:xlink="http://www.w3.org/1999/xlink" width="32" height="32"><defs><style type="text/css"></style></defs><path d="M767.813818 68.514909C692.596364 24.948364 605.277091 0 512 0 229.189818 0 0 229.189818 0 512s229.189818 512 512 512 512-229.189818 512-512c0-189.533091-102.958545-355.048727-256.186182-443.485091z m66.653091 453.352727c-4.654545 12.660364-10.612364 24.762182-18.059636 36.119273-6.144 9.495273-13.405091 18.618182-21.224728 26.996364l-1.489454 1.489454-280.389818 257.489455-281.693091-256.930909c-8.936727-9.122909-17.128727-19.362909-24.017455-30.161455-6.888727-10.612364-12.474182-22.155636-16.942545-33.885091-7.447273-20.107636-11.357091-50.082909-11.357091-70.935272 0-101.282909 86.574545-161.792 192.884364-161.792 53.620364 0 104.075636 38.725818 140.194909 75.217454 36.119273-36.491636 86.574545-75.217455 140.194909-75.217454 106.309818 0 192.884364 60.509091 192.884363 161.792-0.186182 20.293818-3.723636 50.082909-10.984727 69.818181z"></path></svg>