<?xml version="1.0" standalone="no"?><!DOCTYPE svg PUBLIC "-//W3C//DTD SVG 1.1//EN" "http://www.w3.org/Graphics/SVG/1.1/DTD/svg11.dtd"><svg t="1557742055331" class="icon" style="" viewBox="0 0 1024 1024" version="1.1" xmlns="http://www.w3.org/2000/svg" p-id="7298" xmlns:xlink="http://www.w3.org/1999/xlink" width="200" height="200"><defs><style type="text/css"></style></defs><path d="M774.4 371.2" p-id="7299"></path><path d="M928 147.2C915.2 134.4 902.4 128 883.2 128c0 0 0 0-6.4 0 0 0-12.8 0-25.6 0-25.6 0-83.2 0-134.4-12.8-64-12.8-140.8-89.6-166.4-102.4C544 6.4 531.2 0 518.4 0 505.6 0 492.8 6.4 480 12.8c0 0-83.2 83.2-160 102.4C268.8 128 217.6 128 192 128 172.8 128 160 128 160 128c0 0 0 0-6.4 0C140.8 128 121.6 134.4 108.8 147.2 96 160 89.6 172.8 89.6 192l0 160c0 588.8 396.8 665.6 416 672 6.4 0 6.4 0 12.8 0 6.4 0 6.4 0 12.8 0 19.2 0 422.4-76.8 422.4-672L953.6 192C953.6 172.8 940.8 160 928 147.2zM812.8 384l-307.2 307.2 0 0 0 0 0 0C486.4 704 467.2 704 448 691.2c0 0 0 0 0 0l0 0L288 524.8C268.8 512 268.8 486.4 288 473.6c12.8-12.8 38.4-12.8 51.2 0l140.8 140.8 281.6-281.6c12.8-12.8 38.4-12.8 51.2 0C825.6 345.6 825.6 371.2 812.8 384z" p-id="7300"></path></svg>