<?xml version="1.0" standalone="no"?><!DOCTYPE svg PUBLIC "-//W3C//DTD SVG 1.1//EN" "http://www.w3.org/Graphics/SVG/1.1/DTD/svg11.dtd"><svg t="1571740693904" class="icon" viewBox="0 0 1024 1024" version="1.1" xmlns="http://www.w3.org/2000/svg" p-id="3225" xmlns:xlink="http://www.w3.org/1999/xlink" width="48" height="48"><defs><style type="text/css"></style></defs><path d="M700.469895 1013.76c6.790737 6.844632 14.551579 10.24 23.390316 10.24s16.653474-3.395368 23.444211-10.24l50.930526-51.307789C805.025684 955.607579 808.421053 947.738947 808.421053 938.846316s-3.395368-16.761263-10.186105-23.605895L397.904842 512l400.330105-403.240421C805.025684 101.914947 808.421053 94.046316 808.421053 85.153684s-3.395368-16.761263-10.186105-23.605895L747.304421 10.24C740.513684 3.449263 732.645053 0 723.860211 0c-8.784842 0-16.599579 3.395368-23.390316 10.24L225.765053 488.394105C218.974316 495.238737 215.578947 503.107368 215.578947 512s3.395368 16.761263 10.186105 23.605895L700.469895 1013.76 700.469895 1013.76z" p-id="3226"></path></svg>