<?xml version="1.0" standalone="no"?><!DOCTYPE svg PUBLIC "-//W3C//DTD SVG 1.1//EN" "http://www.w3.org/Graphics/SVG/1.1/DTD/svg11.dtd"><svg viewBox="0 0 1024 1024" version="1.1" xmlns="http://www.w3.org/2000/svg" xmlns:xlink="http://www.w3.org/1999/xlink"><path d="M507.90831 65.022922c-247.741407 0-448.499757 200.759373-448.499757 448.502827 0 247.739361 200.759373 448.50078 448.499757 448.50078 247.745501 0 448.502827-200.861704 448.502827-448.50078C956.411137 265.883603 755.549433 65.022922 507.90831 65.022922zM507.90831 211.308637 507.90831 211.308637 507.90831 211.308637c75.195609 0 136.232754 61.038168 136.232754 136.232754 0 75.195609-61.036122 136.231731-136.232754 136.231731-75.193563 0-136.230708-60.934814-136.230708-136.231731C371.677603 272.347828 432.612417 211.308637 507.90831 211.308637zM804.789904 707.511859c-1.539053 1.848091-3.180436 3.489474-5.02648 5.025457-166.290327 138.696876-407.979902 138.696876-574.269205 0-16.414855-13.642718-18.567891-37.956474-5.02648-54.265928 1.539053-1.846044 3.179412-3.486404 5.02648-5.02648 166.289304-138.693806 407.979902-138.693806 574.269205 0C816.177256 666.889673 818.435693 691.200358 804.789904 707.511859z"></path></svg>