<?xml version="1.0" standalone="no"?><!DOCTYPE svg PUBLIC "-//W3C//DTD SVG 1.1//EN" "http://www.w3.org/Graphics/SVG/1.1/DTD/svg11.dtd"><svg t="1557742630563" class="icon" style="" viewBox="0 0 1024 1024" version="1.1" xmlns="http://www.w3.org/2000/svg" p-id="7533" xmlns:xlink="http://www.w3.org/1999/xlink" width="200" height="200"><defs><style type="text/css"></style></defs><path d="M742.4 275.2" p-id="7534"></path><path d="M896 0 128 0C89.6 0 64 25.6 64 64l0 896c0 38.4 25.6 64 64 64L896 1024c38.4 0 64-25.6 64-64L960 64C960 25.6 934.4 0 896 0zM742.4 275.2 742.4 448l0 25.6 0 0c-12.8 108.8-108.8 198.4-230.4 198.4S294.4 582.4 281.6 473.6l0 0L281.6 448 281.6 275.2 281.6 249.6c0-25.6 19.2-44.8 44.8-44.8s44.8 19.2 44.8 44.8c0 0 0 0 0 6.4l0 211.2C384 531.2 441.6 582.4 512 582.4c70.4 0 128-51.2 134.4-115.2L646.4 256c0 0 0 0 0-6.4 0-25.6 19.2-44.8 44.8-44.8s44.8 19.2 44.8 44.8L736 275.2z" p-id="7535"></path></svg>