<?xml version="1.0" standalone="no"?><!DOCTYPE svg PUBLIC "-//W3C//DTD SVG 1.1//EN" "http://www.w3.org/Graphics/SVG/1.1/DTD/svg11.dtd"><svg viewBox="0 0 1024 1024" version="1.1" xmlns="http://www.w3.org/2000/svg" xmlns:xlink="http://www.w3.org/1999/xlink"><path d="M960 140.8 64 140.8c-32 0-64 25.6-64 64l0 614.4c0 32 25.6 64 64 64l896 0c32 0 64-25.6 64-64L1024 204.8C1024 166.4 998.4 140.8 960 140.8zM608 396.8l236.8 0c19.2 0 38.4 19.2 38.4 38.4 0 19.2-19.2 38.4-38.4 38.4L608 473.6C588.8 473.6 576 454.4 576 435.2 576 416 588.8 396.8 608 396.8zM204.8 352c6.4-12.8 12.8-19.2 19.2-25.6 6.4-6.4 19.2-12.8 25.6-19.2C256 300.8 268.8 300.8 281.6 300.8c25.6 0 44.8 6.4 64 25.6 19.2 19.2 25.6 38.4 25.6 64 0 12.8 0 25.6-6.4 32S352 441.6 345.6 448 326.4 460.8 313.6 467.2C307.2 467.2 294.4 473.6 281.6 473.6c-12.8 0-25.6 0-32-6.4C236.8 460.8 230.4 454.4 224 448S204.8 428.8 204.8 422.4C198.4 409.6 198.4 396.8 198.4 384 198.4 371.2 198.4 364.8 204.8 352zM422.4 659.2c0 38.4-25.6 64-64 64L204.8 723.2c-38.4 0-64-25.6-64-64L140.8 563.2c0-38.4 25.6-64 64-64l153.6 0c38.4 0 64 25.6 64 64L422.4 659.2zM550.4 524.8l307.2 0c19.2 0 38.4 19.2 38.4 38.4 0 19.2-19.2 38.4-38.4 38.4L550.4 601.6C531.2 595.2 512 582.4 512 563.2 512 537.6 531.2 524.8 550.4 524.8zM857.6 723.2 550.4 723.2c-19.2 0-38.4-19.2-38.4-38.4 0-19.2 19.2-38.4 38.4-38.4l307.2 0c19.2 0 38.4 19.2 38.4 38.4C896 710.4 876.8 723.2 857.6 723.2z"></path></svg>