<?xml version="1.0" standalone="no"?><!DOCTYPE svg PUBLIC "-//W3C//DTD SVG 1.1//EN" "http://www.w3.org/Graphics/SVG/1.1/DTD/svg11.dtd"><svg t="1571740655257" class="icon" viewBox="0 0 1024 1024" version="1.1" xmlns="http://www.w3.org/2000/svg" p-id="3098" xmlns:xlink="http://www.w3.org/1999/xlink" width="48" height="48"><defs><style type="text/css"></style></defs><path d="M323.530105 1013.76l474.704842-478.154105C805.025684 528.761263 808.421053 520.892632 808.421053 512s-3.395368-16.761263-10.186105-23.605895L323.530105 10.24C316.739368 3.395368 308.924632 0 300.139789 0S283.486316 3.449263 276.695579 10.24L225.765053 61.547789C218.974316 68.392421 215.578947 76.261053 215.578947 85.153684s3.395368 16.761263 10.186105 23.605895L626.095158 512l-400.330105 403.240421C218.974316 922.085053 215.578947 929.953684 215.578947 938.846316s3.395368 16.761263 10.186105 23.605895l50.930526 51.307789C283.486316 1020.604632 291.301053 1024 300.139789 1024S316.739368 1020.604632 323.530105 1013.76L323.530105 1013.76z" p-id="3099"></path></svg>