<?xml version="1.0" standalone="no"?><!DOCTYPE svg PUBLIC "-//W3C//DTD SVG 1.1//EN" "http://www.w3.org/Graphics/SVG/1.1/DTD/svg11.dtd"><svg t="1557741992009" class="icon" style="" viewBox="0 0 1024 1024" version="1.1" xmlns="http://www.w3.org/2000/svg" p-id="3735" xmlns:xlink="http://www.w3.org/1999/xlink" width="200" height="200"><defs><style type="text/css"></style></defs><path d="M684.8 499.2" p-id="3736"></path><path d="M998.4 416C1024 396.8 1024 384 1024 364.8L1024 211.2c0-38.4-38.4-76.8-83.2-76.8L83.2 134.4C38.4 140.8 0 172.8 0 211.2l0 147.2C0 384 0 403.2 25.6 416 64 428.8 115.2 460.8 115.2 512c0 70.4-51.2 89.6-83.2 102.4C6.4 627.2 0 652.8 0 665.6l0 147.2c0 38.4 38.4 76.8 83.2 76.8l857.6 0c44.8 0 83.2-32 83.2-76.8l0-147.2c0-25.6-6.4-38.4-25.6-51.2-64-25.6-83.2-51.2-83.2-102.4C908.8 467.2 934.4 441.6 998.4 416zM691.2 332.8 601.6 422.4l44.8 0c19.2 0 38.4 19.2 38.4 38.4 0 19.2-19.2 38.4-38.4 38.4L550.4 499.2l0 57.6 96 0c19.2 0 38.4 19.2 38.4 38.4 0 19.2-19.2 38.4-38.4 38.4L550.4 633.6l0 83.2c0 19.2-19.2 38.4-38.4 38.4s-38.4-19.2-38.4-38.4L473.6 633.6 377.6 633.6c-19.2 0-38.4-19.2-38.4-38.4 0-19.2 19.2-38.4 38.4-38.4l96 0L473.6 499.2 377.6 499.2c-19.2 0-38.4-19.2-38.4-38.4 0-19.2 19.2-38.4 38.4-38.4l44.8 0L332.8 332.8C320 320 320 300.8 332.8 281.6c12.8-12.8 38.4-12.8 51.2 0l128 128 128-128c12.8-12.8 38.4-12.8 51.2 0C704 300.8 704 320 691.2 332.8z" p-id="3737"></path></svg>