<?xml version="1.0" standalone="no"?><!DOCTYPE svg PUBLIC "-//W3C//DTD SVG 1.1//EN" "http://www.w3.org/Graphics/SVG/1.1/DTD/svg11.dtd"><svg viewBox="0 0 1024 1024" version="1.1" xmlns="http://www.w3.org/2000/svg" xmlns:xlink="http://www.w3.org/1999/xlink"><path d="M748.8 371.2"></path><path d="M659.2 76.8 595.2 76.8 595.2 64c0-38.4-25.6-64-64-64L480 0c-38.4 0-64 25.6-64 64l0 12.8L352 76.8c-38.4 0-64 25.6-64 64l0 57.6c0 38.4 25.6 64 64 64l307.2 0c38.4 0 64-25.6 64-64L723.2 140.8C723.2 108.8 691.2 76.8 659.2 76.8zM505.6 166.4c-32 0-51.2-25.6-51.2-51.2 0-32 25.6-51.2 51.2-51.2 32 0 51.2 25.6 51.2 51.2C556.8 140.8 531.2 166.4 505.6 166.4z"></path><path d="M889.6 185.6l-102.4 0c0 0 0 0 0 6.4l0 57.6c0 38.4-25.6 64-64 64L288 313.6c-38.4 0-64-25.6-64-64L224 192c0 0 0 0 0-6.4L121.6 185.6c-38.4 0-64 25.6-64 64L57.6 960c0 38.4 25.6 64 64 64l768 0c38.4 0 64-25.6 64-64L953.6 249.6C953.6 217.6 921.6 185.6 889.6 185.6zM748.8 883.2 262.4 883.2c-19.2 0-38.4-19.2-38.4-38.4 0-19.2 12.8-32 32-32l486.4 0c19.2 0 32 12.8 32 32C780.8 864 768 883.2 748.8 883.2zM742.4 691.2 256 691.2c-19.2 0-32-19.2-32-38.4s12.8-38.4 32-38.4l486.4 0c19.2 0 32 19.2 32 38.4C780.8 672 761.6 691.2 742.4 691.2zM742.4 486.4 256 486.4c-19.2 0-32-19.2-32-38.4 0-19.2 12.8-38.4 32-38.4l486.4 0c19.2 0 32 19.2 32 38.4C780.8 473.6 761.6 486.4 742.4 486.4z"></path></svg>