<?xml version="1.0" standalone="no"?><!DOCTYPE svg PUBLIC "-//W3C//DTD SVG 1.1//EN" "http://www.w3.org/Graphics/SVG/1.1/DTD/svg11.dtd"><svg t="1557742001906" class="icon" style="" viewBox="0 0 1024 1024" version="1.1" xmlns="http://www.w3.org/2000/svg" p-id="3853" xmlns:xlink="http://www.w3.org/1999/xlink" width="200" height="200"><defs><style type="text/css"></style></defs><path d="M185.6 307.2" p-id="3854"></path><path d="M633.6 640" p-id="3855"></path><path d="M512 0C230.4 0 0 230.4 0 512s230.4 512 512 512 512-230.4 512-512S793.6 0 512 0zM588.8 723.2l-70.4 115.2c0 0-6.4 6.4-6.4 6.4 0 0-6.4 0-6.4 0l0 0 0 0c0 0 0 0 0 0L185.6 332.8l0 0c0 0 0 0 0-6.4C185.6 326.4 192 320 192 320l140.8 0c6.4 0 12.8 6.4 12.8 6.4l243.2 384c0 0 0 0 0 0l0 0 0 0c0 0 0 0 0 6.4C595.2 723.2 588.8 723.2 588.8 723.2L588.8 723.2zM838.4 332.8 640 640c0 0-6.4 6.4-6.4 6.4 0 0-6.4 0-6.4 0l0 0 0 0c0 0 0 0 0-6.4L550.4 531.2l0 0c0 0 0-6.4 0-6.4 0-6.4 0-6.4 6.4-6.4l121.6-185.6C672 320 678.4 320 684.8 320c0 0 0 0 0 0l0 0L832 320l0 0C832 320 838.4 320 838.4 332.8 838.4 326.4 838.4 326.4 838.4 332.8L838.4 332.8z" p-id="3856"></path></svg>