<?xml version="1.0" standalone="no"?><!DOCTYPE svg PUBLIC "-//W3C//DTD SVG 1.1//EN" "http://www.w3.org/Graphics/SVG/1.1/DTD/svg11.dtd"><svg t="1557742028321" class="icon" style="" viewBox="0 0 1024 1024" version="1.1" xmlns="http://www.w3.org/2000/svg" p-id="4931" xmlns:xlink="http://www.w3.org/1999/xlink" width="200" height="200"><defs><style type="text/css"></style></defs><path d="M131.968 73.152c-39.232 22.464-58.88 46.848-58.88 73.152l0 73.152c0 26.304 19.648 50.688 58.88 73.152 39.232 22.528 92.608 40.32 160 53.44C359.424 359.168 432.768 365.696 512 365.696c79.232 0 152.576-6.592 219.968-19.712 67.392-13.12 120.768-30.976 160-53.44 39.232-22.464 58.88-46.848 58.88-73.152L950.848 146.304c0-26.304-19.648-50.688-58.88-73.152-39.232-22.464-92.608-40.256-160-53.44C664.576 6.592 591.232 0 512 0 432.768 0 359.424 6.592 291.968 19.712 224.576 32.896 171.2 50.688 131.968 73.152M73.152 561.152l0 97.152c0 26.304 19.648 50.688 58.88 73.152 39.232 22.464 92.608 40.256 160 53.44 67.456 13.12 140.8 19.712 220.032 19.712 79.232 0 152.576-6.592 219.968-19.712 67.392-13.12 120.768-30.976 160-53.44 39.232-22.464 58.88-46.848 58.88-73.152L950.912 561.152c-45.312 32-107.264 56.192-185.728 72.576C686.656 650.112 602.304 658.304 512 658.304c-90.304 0-174.656-8.192-253.184-24.576C180.352 617.344 118.464 593.152 73.152 561.152M73.152 780.608l0 97.152c0 26.304 19.648 50.688 58.88 73.152 39.232 22.464 92.608 40.256 160 53.44C359.424 1017.472 432.768 1024 512 1024c79.232 0 152.576-6.592 219.968-19.712 67.392-13.184 120.768-30.976 160-53.44 39.232-22.464 58.88-46.848 58.88-73.152l0-97.152c-45.312 32-107.264 56.192-185.728 72.576C686.656 869.504 602.304 877.696 512 877.696c-90.304 0-174.656-8.192-253.184-24.576C180.352 836.736 118.464 812.608 73.152 780.608M73.152 341.696l0 97.152c0 26.304 19.648 50.688 58.88 73.152 39.232 22.464 92.608 40.256 160 53.44C359.424 578.56 432.768 585.152 512 585.152c79.232 0 152.576-6.592 219.968-19.712 67.392-13.12 120.768-30.976 160-53.44 39.232-22.464 58.88-46.848 58.88-73.152L950.848 341.696c-45.312 32-107.264 56.192-185.728 72.576C686.656 430.656 602.304 438.848 512 438.848c-90.304 0-174.656-8.192-253.184-24.576C180.352 397.952 118.464 373.696 73.152 341.696" p-id="4932"></path></svg>