<?xml version="1.0" standalone="no"?>
<svg viewBox="0 0 1024 1024" version="1.1" xmlns="http://www.w3.org/2000/svg" xmlns:xlink="http://www.w3.org/1999/xlink">
  <path d="M904.97107 454.753181 117.90227 454.753181c-22.718421 0-37.029358 18.093077-31.810496 40.200584l84.277452 357.050975c5.215792 22.11774 28.073382 40.205701 50.797943 40.205701l580.542072 0c22.715351 0 45.578058-18.08796 50.79385-40.205701l84.281545-357.050975C942.000428 472.846258 927.689491 454.753181 904.97107 454.753181L904.97107 454.753181zM343.485005 817.501926l-21.861914-0.170892c-7.101745-0.051165-14.227026-5.758144-15.84385-12.664438l-61.470003-262.748193c-1.61887-6.92062 2.865257-12.502755 9.961886-12.428054l21.913079 0.245593c7.093559 0.088004 14.236236 5.808286 15.84999 12.719696l61.427024 262.58958C355.079064 811.957653 350.590843 817.557184 343.485005 817.501926L343.485005 817.501926zM534.666232 803.219641c0 7.110955-5.804193 12.924357-12.896728 12.924357l-20.662599 0c-7.091512 0-12.911054-5.813403-12.911054-12.924357L488.195851 542.258141c0-7.111978 5.813403-12.915148 12.911054-12.915148l20.662599 0c7.091512 0 12.896728 5.803169 12.896728 12.915148L534.666232 803.219641 534.666232 803.219641zM778.564102 541.918403l-61.45977 262.748193c-1.617847 6.91141-8.747221 12.618389-15.854083 12.664438l-21.86703 0.176009c-7.101745 0.056282-11.594059-5.553483-9.971096-12.455683l61.436234-262.594697c1.613754-6.91141 8.743128-12.636808 15.835663-12.719696l21.913079-0.245593C775.689634 529.415648 780.186042 534.99676 778.564102 541.918403L778.564102 541.918403zM943.692976 308.845067l-96.714715 0c-6.448876 0-9.902534-3.022847-11.205203-4.330632L597.266989 65.999157c-7.02295-7.028067-18.530029-7.028067-25.561166 0l-18.259876 18.255783c-7.018857 7.02295-7.018857 18.527982 0 25.551956l192.524828 192.525851c0 0 7.102768 6.508227-3.541663 6.508227L276.127921 308.840974c-5.590322 0-1.557472-4.185322-1.557472-4.185322l194.847733-194.85285c7.03216-7.02295 7.03216-18.529005 0-25.551956l-18.255783-18.250666c-7.027044-7.028067-18.523889-7.028067-25.546839 0L187.095165 304.514435c-1.302669 1.312902-4.547573 4.334725-10.031471 4.334725L79.180364 308.84916c-11.361769 0-18.834974 9.114588-16.60519 20.253276l9.971096 49.852408c2.229784 11.135618 13.34289 20.249183 24.699542 20.249183l828.376601 0c11.348466 0 22.469758-9.114588 24.704658-20.249183l9.971096-49.857525C962.522834 317.959655 955.049628 308.845067 943.692976 308.845067L943.692976 308.845067zM943.692976 308.845067"></path>
</svg>