<?xml version="1.0" standalone="no"?><!DOCTYPE svg PUBLIC "-//W3C//DTD SVG 1.1//EN" "http://www.w3.org/Graphics/SVG/1.1/DTD/svg11.dtd"><svg viewBox="0 0 1024 1024" version="1.1" xmlns="http://www.w3.org/2000/svg" xmlns:xlink="http://www.w3.org/1999/xlink"><path d="M108.8 806.4 32 806.4 64 838.4l0-96L64 524.8 64 275.2l0-192L64 38.4 32 64l96 0 217.6 0 249.6 0 192 0L832 64l-32-32 0 83.2c0 19.2 12.8 32 32 32 19.2 0 32-12.8 32-32L864 38.4c0-19.2-12.8-32-32-32l-96 0L518.4 6.4 268.8 6.4l-192 0L32 6.4C12.8 6.4 0 19.2 0 38.4L0 128l0 217.6 0 249.6 0 192 0 44.8c0 19.2 12.8 32 32 32l83.2 0c19.2 0 32-12.8 32-32C140.8 819.2 128 806.4 108.8 806.4L108.8 806.4 108.8 806.4 108.8 806.4zM108.8 806.4"></path><path d="M864 403.2c0 19.2-12.8 32-32 32L352 435.2c-19.2 0-32-12.8-32-32L320 390.4c0-19.2 12.8-32 32-32L832 358.4c19.2 0 32 12.8 32 32L864 403.2 864 403.2zM864 403.2"></path><path d="M864 806.4c0 19.2-12.8 32-32 32L352 838.4c-19.2 0-32-12.8-32-32l0-12.8c0-19.2 12.8-32 32-32L832 761.6c19.2 0 32 12.8 32 32L864 806.4 864 806.4zM864 806.4"></path><path d="M864 608c0 19.2-12.8 32-32 32L352 640c-19.2 0-32-12.8-32-32L320 588.8c0-19.2 12.8-32 32-32L832 556.8c19.2 0 32 12.8 32 32L864 608 864 608zM864 608"></path><path d="M979.2 166.4l-768 0c-25.6 0-44.8 19.2-44.8 44.8l0 761.6c0 25.6 19.2 44.8 44.8 44.8l768 0c25.6 0 44.8-19.2 44.8-44.8L1024 211.2C1024 185.6 1004.8 166.4 979.2 166.4L979.2 166.4zM947.2 940.8l-704 0L243.2 243.2l704 0L947.2 940.8 947.2 940.8zM947.2 940.8"></path><path d="M76.8 83.2l787.2 0L864 38.4c0-19.2-12.8-32-32-32L32 6.4C12.8 6.4 0 19.2 0 38.4l0 819.2c0 19.2 12.8 32 32 32l44.8 0L76.8 83.2 76.8 83.2zM76.8 83.2"></path><path d="M108.8 806.4 51.2 806.4l0 76.8 57.6 0c19.2 0 32-12.8 32-32l0-12.8C140.8 819.2 128 806.4 108.8 806.4L108.8 806.4zM108.8 806.4"></path><path d="M787.2 32l0 83.2c0 19.2 12.8 32 32 32L832 147.2c19.2 0 32-12.8 32-32L864 32 787.2 32 787.2 32zM787.2 32"></path></svg>