<?xml version="1.0" standalone="no"?>
<svg viewBox="0 0 1024 1024" version="1.1" xmlns="http://www.w3.org/2000/svg" xmlns:xlink="http://www.w3.org/1999/xlink">
  <path d="M416 582.4l83.2 0 0 25.6-83.2 0 0-25.6Z"></path>
  <path d="M416 627.2l83.2 0 0 25.6-83.2 0 0-25.6Z"></path>
  <path d="M1024 480 1024 364.8c0-38.4-25.6-64-64-64L64 300.8c-38.4 0-64 25.6-64 64l0 115.2c38.4 0 64 32 64 64s-32 64-64 64l0 115.2c0 38.4 25.6 64 64 64l896 0c38.4 0 64-25.6 64-64L1024 608c-38.4 0-64-32-64-64S985.6 480 1024 480zM268.8 409.6l96 0 0 192L352 601.6 352 428.8l-64 0 0 179.2L268.8 608 268.8 409.6zM160 729.6 134.4 729.6l0-51.2 32 0L166.4 729.6zM160 646.4 134.4 646.4 134.4 601.6l32 0L166.4 646.4zM160 569.6 134.4 569.6 134.4 518.4l32 0L166.4 569.6zM160 492.8 134.4 492.8 134.4 441.6l32 0L166.4 492.8zM160 409.6 134.4 409.6 134.4 358.4l32 0L166.4 409.6zM268.8 684.8c0-6.4-6.4-12.8-12.8-12.8 51.2-32 51.2-89.6 51.2-128L307.2 448l19.2 0 0 89.6C326.4 588.8 320 646.4 268.8 684.8zM358.4 672C352 659.2 339.2 633.6 320 620.8l12.8-12.8c12.8 19.2 32 38.4 38.4 51.2L358.4 672zM518.4 684.8 499.2 684.8l0-12.8L416 672l0 12.8L396.8 684.8 396.8 563.2l128 0L524.8 684.8zM531.2 550.4 384 550.4 384 435.2l38.4 0C416 428.8 409.6 409.6 403.2 403.2l19.2-6.4c6.4 12.8 12.8 25.6 19.2 38.4L422.4 435.2l51.2 0c6.4-12.8 19.2-32 25.6-44.8l19.2 6.4C512 416 505.6 428.8 492.8 435.2l38.4 0L531.2 550.4zM806.4 582.4c-6.4 57.6-6.4 83.2-19.2 89.6-6.4 6.4-12.8 6.4-19.2 6.4-6.4 0-25.6 0-44.8 0 0-6.4-6.4-19.2-6.4-25.6 19.2 0 38.4 0 38.4 0 6.4 0 12.8 0 12.8-6.4 6.4-6.4 6.4-25.6 12.8-64l-70.4 0c-12.8 44.8-38.4 76.8-102.4 96 0-6.4-6.4-12.8-12.8-19.2 57.6-12.8 76.8-38.4 89.6-70.4l-64 0L620.8 576l70.4 0c0-12.8 6.4-25.6 6.4-38.4l25.6 0c0 12.8 0 25.6-6.4 38.4l89.6 0C806.4 576 806.4 582.4 806.4 582.4zM857.6 595.2c-38.4-12.8-76.8-38.4-102.4-76.8l-70.4 0c-25.6 25.6-57.6 51.2-96 70.4C582.4 582.4 576 576 569.6 569.6c32-12.8 57.6-32 83.2-51.2L582.4 518.4 582.4 499.2l89.6 0c6.4-6.4 12.8-19.2 19.2-32L601.6 467.2 601.6 448l51.2 0C646.4 435.2 640 422.4 627.2 416l19.2-6.4c12.8 12.8 19.2 32 25.6 38.4L665.6 448l32 0c6.4-19.2 12.8-38.4 12.8-51.2l25.6 0c0 19.2-6.4 32-12.8 51.2l38.4 0c12.8-12.8 19.2-32 25.6-44.8l19.2 6.4c-6.4 12.8-19.2 25.6-25.6 38.4l44.8 0 0 19.2-121.6 0c-6.4 12.8-12.8 19.2-19.2 32l166.4 0 0 19.2-83.2 0C800 544 832 563.2 870.4 576 864 582.4 857.6 588.8 857.6 595.2z"></path>
  <path d="M403.2 531.2 448 531.2 448 454.4 403.2 454.4 403.2 531.2zM416 467.2C428.8 480 435.2 499.2 441.6 512L428.8 518.4c0-12.8-12.8-32-19.2-51.2L416 467.2z" p-id="3743"></path><path d="M467.2 531.2 512 531.2 512 454.4 467.2 454.4 467.2 531.2zM492.8 467.2l19.2 6.4C499.2 486.4 492.8 505.6 486.4 518.4L473.6 512C480 499.2 486.4 480 492.8 467.2z"></path>
</svg>