<svg xmlns="http://www.w3.org/2000/svg" viewBox="-4323 12970 90 90"><g transform="translate(-4855 -163)"><path d="M596.8 13163.085a9.05 9.05 0 0 0-1.929-2.957 7.879 7.879 0 0 0-2.957-1.929 12.26 12.26 0 0 0-4.629-.9c-2.7-.129-3.471-.129-10.286-.129s-7.586 0-10.286.129a13.847 13.847 0 0 0-4.757.9 9.05 9.05 0 0 0-2.957 1.929 7.879 7.879 0 0 0-1.928 2.957 17.125 17.125 0 0 0-.771 4.629c-.129 2.7-.129 3.471-.129 10.286s0 7.586.129 10.286a13.847 13.847 0 0 0 .9 4.757 9.05 9.05 0 0 0 1.929 2.957 7.879 7.879 0 0 0 2.957 1.929 13.143 13.143 0 0 0 4.757.9c2.7.129 3.471.129 10.286.129s7.586 0 10.286-.129a13.847 13.847 0 0 0 4.757-.9 9.05 9.05 0 0 0 2.957-1.929 7.879 7.879 0 0 0 1.929-2.957 13.142 13.142 0 0 0 .9-4.757c.129-2.7.129-3.471.129-10.286s0-7.586-.129-10.286a17.588 17.588 0 0 0-1.158-4.629zm-19.8 27.9a12.986 12.986 0 1 1 12.985-12.985 12.95 12.95 0 0 1-12.985 12.985zm13.5-23.529a3.086 3.086 0 1 1 3.085-3.085 3.046 3.046 0 0 1-3.085 3.086z"/><circle cx="8.486" cy="8.486" r="8.486" transform="translate(568.514 13169.515)"/><path d="M577 13133a45 45 0 1 0 45 45 45.049 45.049 0 0 0-45-45zm25.2 55.414a18.815 18.815 0 0 1-1.157 6.171 13.288 13.288 0 0 1-7.457 7.457 18.815 18.815 0 0 1-6.172 1.158c-2.7.129-3.6.129-10.414.129s-7.714 0-10.414-.129a18.815 18.815 0 0 1-6.171-1.157 13.289 13.289 0 0 1-7.457-7.457 18.815 18.815 0 0 1-1.158-6.172c-.129-2.7-.129-3.6-.129-10.414 0-6.943 0-7.714.129-10.414a18.815 18.815 0 0 1 1.157-6.171 13.289 13.289 0 0 1 7.457-7.457 18.815 18.815 0 0 1 6.172-1.158c2.7-.129 3.6-.129 10.414-.129s7.714 0 10.414.129a18.815 18.815 0 0 1 6.171 1.157 13.289 13.289 0 0 1 7.457 7.457 18.815 18.815 0 0 1 1.158 6.172c.129 2.7.129 3.6.129 10.414 0 6.943 0 7.714-.129 10.414z"/></g></svg>