<?xml version="1.0" standalone="no"?><!DOCTYPE svg PUBLIC "-//W3C//DTD SVG 1.1//EN" "http://www.w3.org/Graphics/SVG/1.1/DTD/svg11.dtd"><svg t="1547090997109" class="icon" style="" viewBox="0 0 1024 1024" version="1.1" xmlns="http://www.w3.org/2000/svg" p-id="7354" xmlns:xlink="http://www.w3.org/1999/xlink" width="48" height="48"><defs><style type="text/css"></style></defs><path d="M444.974545 484.538182c-93.090909 9.309091-162.909091 67.490909-156.625454 130.094545S372.363636 720.058182 465.454545 710.749091s162.909091-67.490909 156.625455-130.094546-84.48-105.425455-177.105455-96.116363z m81.687273 147.083636a98.909091 98.909091 0 0 1-119.156363 52.130909 71.214545 71.214545 0 0 1-43.752728-100.538182 99.607273 99.607273 0 0 1 112.872728-50.734545 71.214545 71.214545 0 0 1 50.26909 99.141818z" p-id="7355"></path><path d="M467.083636 583.447273a13.032727 13.032727 0 0 0-15.592727 6.050909v1.163636a9.774545 9.774545 0 0 0 4.887273 13.032727 13.265455 13.265455 0 0 0 16.058182-6.050909v-1.396363a9.774545 9.774545 0 0 0-5.352728-12.8zM431.709091 598.574545a34.676364 34.676364 0 0 0-41.658182 14.429091 25.6 25.6 0 0 0 9.541818 38.632728 34.443636 34.443636 0 0 0 42.589091-15.127273 25.6 25.6 0 0 0-10.472727-37.934546z" p-id="7356"></path><path d="M512 0a512 512 0 1 0 512 512A512 512 0 0 0 512 0z m-44.916364 744.727273C351.185455 744.727273 232.727273 687.010909 232.727273 591.825455c0-49.570909 30.487273-107.054545 82.618182-160.581819 69.818182-72.378182 152.203636-105.192727 183.156363-73.541818a67.258182 67.258182 0 0 1 6.283637 67.258182c-4.654545 14.661818 13.265455 6.516364 13.265454 6.516364 56.785455-25.134545 106.356364-26.763636 124.509091 0a61.44 61.44 0 0 1 0 57.250909c-4.189091 10.705455 0 12.334545 9.076364 14.661818A86.341818 86.341818 0 0 1 720.058182 581.818182c0 72.145455-101.003636 162.909091-252.974546 162.909091z m202.24-337.454546a34.676364 34.676364 0 0 0-33.512727-11.636363 18.385455 18.385455 0 0 1-21.643636-14.429091 18.850909 18.850909 0 0 1 14.429091-23.272728 69.818182 69.818182 0 0 1 69.818181 23.272728 75.636364 75.636364 0 0 1 15.127273 71.68 18.385455 18.385455 0 0 1-23.272727 11.869091 19.083636 19.083636 0 0 1-11.869091-23.272728 37.003636 37.003636 0 0 0-9.076364-34.210909z m114.734546 71.68a21.178182 21.178182 0 0 1-26.763637 13.498182 23.272727 23.272727 0 0 1-13.963636-26.996364 110.545455 110.545455 0 0 0-21.876364-106.58909A103.330909 103.330909 0 0 0 621.381818 325.818182a21.410909 21.410909 0 0 1-23.272727-16.756364 23.272727 23.272727 0 0 1 16.523636-26.065454 145.221818 145.221818 0 0 1 139.636364 46.545454 155.229091 155.229091 0 0 1 29.789091 149.410909z" p-id="7357"></path></svg>