<?xml version="1.0" standalone="no"?><!DOCTYPE svg PUBLIC "-//W3C//DTD SVG 1.1//EN" "http://www.w3.org/Graphics/SVG/1.1/DTD/svg11.dtd"><svg t="1547090906355" class="icon" style="" viewBox="0 0 1024 1024" version="1.1" xmlns="http://www.w3.org/2000/svg" p-id="3739" xmlns:xlink="http://www.w3.org/1999/xlink" width="48" height="48"><defs><style type="text/css"></style></defs><path d="M251.733333 556.8c-21.333333 51.2-25.6 100.266667-8.533333 110.933333 12.8 6.4 32-8.533333 49.066667-34.133333 6.4 29.866667 25.6 55.466667 49.066666 76.8-25.6 10.666667-42.666667 25.6-42.666666 42.666667 0 29.866667 46.933333 53.333333 104.533333 53.333333 51.2 0 93.866667-19.2 102.4-44.8h12.8c8.533333 25.6 51.2 44.8 102.4 44.8 57.6 0 104.533333-23.466667 104.533333-53.333333 0-17.066667-17.066667-34.133333-42.666666-42.666667 25.6-21.333333 42.666667-46.933333 49.066666-76.8 17.066667 25.6 36.266667 40.533333 49.066667 34.133333 17.066667-8.533333 14.933333-57.6-8.533333-110.933333-17.066667-40.533333-40.533333-70.4-57.6-76.8v-8.533333c0-14.933333-4.266667-29.866667-12.8-42.666667V426.666667c0-6.4-2.133333-14.933333-4.266667-19.2-4.266667-106.666667-72.533333-189.866667-185.6-189.866667-110.933333 0-179.2 83.2-185.6 189.866667-2.133333 6.4-4.266667 12.8-4.266667 19.2v2.133333c-6.4 12.8-12.8 25.6-12.8 42.666667v8.533333c-14.933333 6.4-38.4 36.266667-57.6 76.8zM1024 512c0 283.733333-228.266667 512-512 512S0 795.733333 0 512 228.266667 0 512 0s512 228.266667 512 512z" p-id="3740"></path></svg>