<?xml version="1.0" standalone="no"?><!DOCTYPE svg PUBLIC "-//W3C//DTD SVG 1.1//EN" "http://www.w3.org/Graphics/SVG/1.1/DTD/svg11.dtd"><svg t="1547090951891" class="icon" style="" viewBox="0 0 1024 1024" version="1.1" xmlns="http://www.w3.org/2000/svg" p-id="5303" xmlns:xlink="http://www.w3.org/1999/xlink" width="48" height="48"><defs><style type="text/css"></style></defs><path d="M513.536 20.48c-271.872 0-492.032 220.16-492.032 492.032s220.16 492.032 492.032 492.032c271.872 0 492.032-220.16 492.032-492.032s-220.16-492.032-492.032-492.032z m-231.936 250.88h465.92v51.2h-465.92v-51.2z m424.96 107.52v204.8h-384v-204.8h384z m-440.32 373.76v-51.2h144.384c-13.312-25.6-30.208-56.832-51.2-89.088l51.2-20.48c20.48 30.208 38.4 68.608 54.784 109.568h97.28c19.456-30.72 36.352-69.12 50.688-109.056l55.808 20.48c-14.848 33.792-30.208 63.488-47.104 89.088h135.168v51.2H266.24z" p-id="5304"></path><path d="M378.88 430.08h276.48v102.4h-276.48z" p-id="5305"></path></svg>