 <?xml version="1.0" standalone="no"?><!DOCTYPE svg PUBLIC "-//W3C//DTD SVG 1.1//EN" "http://www.w3.org/Graphics/SVG/1.1/DTD/svg11.dtd"><svg t="1547090811542" class="icon" style="" viewBox="0 0 1037 1024" version="1.1" xmlns="http://www.w3.org/2000/svg" p-id="1567" xmlns:xlink="http://www.w3.org/1999/xlink" width="48.609375" height="48"><defs></defs><path d="M342.200553 340.462127a33.549074 33.549074 0 0 0-36.466385 29.173108 33.840805 33.840805 0 0 0 36.466385 29.173107 29.173108 29.173108 0 0 0 29.173107-29.173107 29.173108 29.173108 0 0 0-29.173107-29.173108z m167.453637 58.346215a29.173108 29.173108 0 0 0 29.173108-29.173107 29.173108 29.173108 0 0 0-29.173108-29.173108 31.798687 31.798687 0 0 0-34.715998 29.173108 32.090418 32.090418 0 0 0 34.715998 29.464838zM518.697854 0.011961A515.488812 515.488812 0 0 0 0 512 515.488812 515.488812 0 0 0 518.697854 1023.988039a515.488812 515.488812 0 0 0 518.989585-511.988039A515.488812 515.488812 0 0 0 518.697854 0.011961z m-98.021642 641.808368a291.731076 291.731076 0 0 1-83.726819-13.41963L251.763919 670.993437l24.50541-71.765845c-60.096602-41.717544-95.687793-94.229138-95.687793-158.409975 0-113.483389 108.232229-200.419249 240.094676-200.419249 116.692431 0 220.548694 68.556803 240.969869 165.119789a136.821875 136.821875 0 0 0-22.755024-2.333848 195.459821 195.459821 0 0 0-204.211753 187.583082 192.54251 192.54251 0 0 0 7.293277 51.052938 173.288259 173.288259 0 0 1-21.296369 0z m352.702871 81.684701l16.628672 60.096602-64.180837-35.882922a371.665391 371.665391 0 0 1-72.641038 12.544436c-113.191658 0-204.211753-76.725273-204.211753-171.829604s89.56144-171.829604 204.211753-171.829604c107.357036 0 204.211753 76.725273 204.211753 171.829604a175.038646 175.038646 0 0 1-84.01855 135.071488z m0 0z m-186.124426-211.796761a24.797141 24.797141 0 0 0-23.630217 23.921948 24.213679 24.213679 0 0 0 23.630217 21.879831c17.795596 0 29.173108-10.79405 29.173107-21.879831a27.13099 27.13099 0 0 0-29.173107-23.921948z m132.737639 0a23.921948 23.921948 0 0 0-23.630217 23.921948 23.630217 23.630217 0 0 0 23.630217 21.879831 26.839259 26.839259 0 0 0 29.173108-21.879831 26.839259 26.839259 0 0 0-29.173108-23.921948z" p-id="1568"></path></svg>