<?xml version="1.0" standalone="no"?><!DOCTYPE svg PUBLIC "-//W3C//DTD SVG 1.1//EN" "http://www.w3.org/Graphics/SVG/1.1/DTD/svg11.dtd"><svg t="1547102448831" class="icon" style="" viewBox="0 0 1024 1024" version="1.1" xmlns="http://www.w3.org/2000/svg" p-id="17519" xmlns:xlink="http://www.w3.org/1999/xlink" width="48" height="48"><defs><style type="text/css"></style></defs><path d="M521.6 5.76C234.24 0.64 0.64 234.24 5.76 521.6c5.12 270.72 225.92 491.52 496.64 496.64 287.36 5.12 520.96-228.48 515.84-515.84C1013.12 231.68 792.32 10.88 521.6 5.76zM254.08 513.28c0-126.08 101.76-230.4 202.24-253.44L456.32 345.6l0 15.36c0 129.92-61.44 217.6-169.6 268.16C269.44 594.56 254.08 554.88 254.08 513.28zM510.08 764.8c-93.44 0-152.32-48.64-175.36-69.76 85.76-51.2 139.52-108.8 177.28-194.56 33.92 85.12 95.36 150.4 168.32 198.4C658.56 720.64 603.52 764.8 510.08 764.8zM737.28 629.12c-108.8-50.56-169.6-138.88-169.6-268.16L567.68 345.6 567.68 259.2c100.48 23.04 202.24 127.36 202.24 253.44C769.92 554.88 754.56 594.56 737.28 629.12z" p-id="17520"></path></svg>