<?xml version="1.0" encoding="utf-8"?>
<!-- Generator: Adobe Illustrator 23.0.0, SVG Export Plug-In . SVG Version: 6.00 Build 0)  -->
<svg version="1.1" id="组_1" xmlns="http://www.w3.org/2000/svg" xmlns:xlink="http://www.w3.org/1999/xlink" x="0px" y="0px"
	 viewBox="0 0 15 17" style="enable-background:new 0 0 15 17;" xml:space="preserve">
<style type="text/css">
	.st0{fill:#999999;}
</style>
<g>
	<path class="st0" d="M12.4,15c-0.1,0-0.2,0-0.3,0l-4.7-2l-4.7,2C2.7,15,2.5,15,2.4,15c-0.1-0.1-0.3-0.2-0.3-0.3
		c0-0.1-0.1-0.2,0-0.3L2,3.8C2,2.8,2.8,2,3.8,2h7.5h0c1,0,1.8,0.8,1.8,1.8v10.6c0,0.1-0.1,0.3-0.1,0.4C12.7,14.9,12.6,15,12.4,15
		C12.4,15,12.4,15,12.4,15z M7.5,11.9c0.1,0,0.2,0,0.3,0.1l4.2,1.8l0-10C12,3.4,11.6,3,11.2,3c0,0,0,0,0,0H3.8C3.3,3,3,3.4,3,3.8v10
		l4.3-1.9C7.3,11.9,7.4,11.9,7.5,11.9z"/>
</g>
<rect id="矩形_12" x="3.5" y="5.5" class="st0" width="8" height="1"/>
</svg>
