<!-- <svg 
 xmlns="http://www.w3.org/2000/svg"
 xmlns:xlink="http://www.w3.org/1999/xlink"
 width="24px" height="17px">
<path fill-rule="evenodd"  stroke-width="1px" stroke="rgb(153, 153, 153)" fill-opacity="0" fill="rgb(248, 248, 248)"
 d="M21.450,8.279 C20.756,6.602 17.059,2.500 12.478,2.500 C7.636,2.500 4.118,6.884 3.512,8.276 C3.450,8.421 3.449,8.587 3.510,8.732 C4.095,10.122 7.575,14.500 12.478,14.500 C17.059,14.500 20.754,10.399 21.445,8.722 C21.508,8.582 21.510,8.420 21.450,8.279 L21.450,8.279 ZM12.495,10.505 C11.391,10.505 10.493,9.605 10.493,8.499 C10.493,7.397 11.391,6.495 12.495,6.495 C13.598,6.495 14.497,7.395 14.497,8.499 C14.497,9.605 13.598,10.505 12.495,10.505 L12.495,10.505 Z"/>
</svg> -->

<svg xmlns="http://www.w3.org/2000/svg" width="19.03" height="13" viewBox="0 0 19.03 13">
  <metadata><?xpacket begin="﻿" id="W5M0MpCehiHzreSzNTczkc9d"?>
<x:xmpmeta xmlns:x="adobe:ns:meta/" x:xmptk="Adobe XMP Core 5.6-c138 79.159824, 2016/09/14-01:09:01        ">
   <rdf:RDF xmlns:rdf="http://www.w3.org/1999/02/22-rdf-syntax-ns#">
      <rdf:Description rdf:about=""/>
   </rdf:RDF>
</x:xmpmeta>                         
<?xpacket end="w"?></metadata>
<defs>
    <style>
      .cls-1 {
        fill: #f8f8f8;
        fill-opacity: 0;
        stroke: #999;
        stroke-linejoin: round;
        stroke-width: 1px;
        fill-rule: evenodd;
      }
    </style>
  </defs>
  <path id="形状_14_拷贝" data-name="形状 14 拷贝" class="cls-1" d="M2015.95,390.779c-0.69-1.677-4.39-5.779-8.97-5.779-4.84,0-8.36,4.384-8.97,5.776a0.6,0.6,0,0,0,0,.456c0.59,1.39,4.06,5.768,8.97,5.768,4.58,0,8.27-4.1,8.96-5.778a0.528,0.528,0,0,0,.01-0.443h0Zm-8.95,2.226a2.005,2.005,0,1,1,2-2.006,2.009,2.009,0,0,1-2,2.006h0Zm0,0" transform="translate(-1997.47 -384.5)"/>
</svg>


