<?xml version="1.0" standalone="no"?><!DOCTYPE svg PUBLIC "-//W3C//DTD SVG 1.1//EN" "http://www.w3.org/Graphics/SVG/1.1/DTD/svg11.dtd"><svg t="1542271344451" class="icon" style="" viewBox="0 0 1024 1024" version="1.1" xmlns="http://www.w3.org/2000/svg" p-id="22911" xmlns:xlink="http://www.w3.org/1999/xlink" width="48" height="48"><defs><style type="text/css"></style></defs><path d="M516.932267 634.03008c4.846933 3.08224 8.813227 9.690453 8.813227 14.537387 0 5.287253 12.332373 34.809173 27.313493 66.532693 16.305493 33.92512 50.230613 81.07008 84.599467 117.640533 31.720107 33.488213 70.93248 69.618347 87.681707 79.74912 11.861333 6.94272 4.908373 2.5088 20.340053 14.073173l0.641707 1.153707c-72.782507 41.885013-149.149013 58.35776-232.413867 60.463787-72.297813 0.259413-143.01184-16.841387-208.336213-47.387307-8.78592-4.109653-17.046187-9.260373-25.56928-13.88544 4.672853-5.925547 12.02176-9.601707 18.387627-13.533867 16.30208-10.134187 55.517867-45.38368 87.681707-78.42816 36.570453-38.335147 66.973013-80.633173 84.155733-117.20704 14.5408-31.720107 29.0816-64.32768 32.16384-73.13408C505.47712 635.794773 512.085333 630.94784 516.932267 634.03008zM592.042667 33.6384c39.318187 8.0384 48.274773 8.420693 87.0912 22.60992 162.573653 59.429547 283.743573 207.0016 309.78048 378.20416 14.52032 95.440213 0.064853 194.450773-41.847467 281.51808-21.019307 43.666773-41.69728 71.44448-72.052053 108.229973-13.585067-2.80576-5.71392-0.651947-23.22432-7.758507-16.30208-7.929173-55.514453-38.331733-86.357333-67.413333-31.2832-29.0816-71.376213-74.902187-89.442987-101.338453-18.06336-26.876587-39.652693-66.973013-48.462507-88.558933-8.813227-22.033067-21.152427-61.68576-27.76064-88.118613-7.932587-33.047893-11.89888-111.035733-11.89888-243.217067L592.042667 33.6384zM429.540693 36.2496c2.95936 62.5664 3.269973 92.491093 3.437227 114.46272 0.443733 58.53184 0.477867 117.101227-0.06144 175.629653-0.392533 42.87488 0.63488 88.459947-6.116693 130.97984-3.72736 23.483733-4.621653 24.756907-10.325333 44.52352-9.253547 29.0816-25.995947 70.94272-36.570453 92.52864-11.014827 22.029653-37.891413 63.88736-59.92448 93.40928-22.029653 29.078187-63.88736 70.495573-93.405867 92.084907-29.52192 21.589333-61.24544 41.86112-70.939307 45.387093l-1.59744 0.44032c-29.47072-32.928427-54.114987-69.894827-73.28768-109.725013C-3.720533 540.494507 27.108693 328.772267 158.19776 184.5248c52.0192-57.238187 154.89024-115.531093 190.481067-128.27648C384.269653 43.502933 422.99392 31.88736 429.540693 36.2496z" p-id="22912" fill="#56a2e2"></path></svg>