<?xml version="1.0" standalone="no"?><!DOCTYPE svg PUBLIC "-//W3C//DTD SVG 1.1//EN" "http://www.w3.org/Graphics/SVG/1.1/DTD/svg11.dtd"><svg t="1555059169649" class="icon" style="" viewBox="0 0 1024 1024" version="1.1" xmlns="http://www.w3.org/2000/svg" p-id="11142" data-spm-anchor-id="a313x.7781069.0.i46" xmlns:xlink="http://www.w3.org/1999/xlink" width="200" height="200"><defs><style type="text/css"></style></defs><path d="M512.003582 944.154487c-238.667751 0-432.157557-193.490829-432.157557-432.152441 0-238.667751 193.488783-432.156534 432.157557-432.156534 238.662635 0 432.150394 193.488783 432.150394 432.156534C944.152952 750.665705 750.665193 944.154487 512.003582 944.154487L512.003582 944.154487M512.003582 137.465838c-206.860325 0-374.538255 167.676907-374.538255 374.536208 0 206.857255 167.67793 374.534162 374.538255 374.534162 206.853162 0 374.529045-167.676907 374.529045-374.534162C886.532627 305.142745 718.85572 137.465838 512.003582 137.465838L512.003582 137.465838M512.003582 771.293511c-31.839149 0-57.623395-25.781176-57.623395-57.619302 0-31.835056 25.784246-57.621349 57.623395-57.621349 31.829939 0 57.620325 25.78527 57.620325 57.621349C569.619814 745.511311 543.833521 771.293511 512.003582 771.293511L512.003582 771.293511M512.003582 598.432535c-15.906272 0-28.815279-25.784246-28.815279-57.624419l-28.808116-259.288394c0-31.837102 25.784246-57.620325 57.623395-57.620325 31.829939 0 57.620325 25.783223 57.620325 57.620325L540.810674 540.808116C540.810674 572.648288 527.900643 598.432535 512.003582 598.432535L512.003582 598.432535M512.003582 598.432535 512.003582 598.432535z" p-id="11143" fill="#ababab"></path></svg>