<?xml version="1.0" encoding="utf-8"?>
<!-- Generator: Adobe Illustrator 23.0.0, SVG Export Plug-In . SVG Version: 6.00 Build 0)  -->
<svg version="1.1" id="组_16" xmlns="http://www.w3.org/2000/svg" xmlns:xlink="http://www.w3.org/1999/xlink" x="0px" y="0px"
	 viewBox="0 0 44 44" style="enable-background:new 0 0 44 44;" xml:space="preserve">
<style type="text/css">
	.st0{fill:#999999;}
</style>
<g>
	<path class="st0" d="M10.7,40.7c-0.2,0-0.4,0-0.5-0.1c-5-3.1-8.4-8-9.7-13.8S0.3,15.2,3.4,10.2C7.5,3.8,14.4,0,22,0c0,0,0,0,0,0
		c0.5,0,1,0.4,1,1s-0.4,1-1,1l0,0c0,0,0,0,0,0c-6.9,0-13.3,3.5-17,9.3c-2.9,4.5-3.8,9.9-2.6,15.1c1.2,5.2,4.3,9.7,8.9,12.6
		c0.4,0.3,0.6,0.9,0.3,1.3C11.4,40.6,11.1,40.7,10.7,40.7z"/>
</g>
<g>
	<path class="st0" d="M22,44C22,44,22,44,22,44c-0.5,0-1-0.4-1-1c0-0.5,0.4-1,1-1c0,0,0,0,0,0c6.6,0,12.8-3.2,16.5-8.7
		c6.3-9.1,4-21.6-5.1-27.9c-0.4-0.3-0.5-0.9-0.2-1.3c0.3-0.4,0.9-0.5,1.3-0.2c10,6.9,12.5,20.6,5.6,30.6C36,40.5,29.2,44,22,44z"/>
</g>
<g id="矩形_68_拷贝">
	<path class="st0" d="M34.1,11.1c-0.5,0-0.9-0.3-0.9-0.8l-1-6.4c0-0.3,0.1-0.6,0.3-0.8c0.2-0.2,0.5-0.3,0.8-0.3l6.4,1
		c0.5,0.1,0.9,0.6,0.8,1.1c-0.1,0.5-0.6,0.9-1.1,0.8l-5.1-0.8l0.8,5.1c0.1,0.5-0.3,1-0.8,1.1C34.2,11.1,34.2,11.1,34.1,11.1z"/>
</g>
<g id="矩形_68_拷贝_2">
	<path class="st0" d="M11.4,41.7c0,0-0.1,0-0.1,0l-6.4-0.8c-0.5-0.1-0.9-0.5-0.8-1.1c0.1-0.5,0.5-0.9,1.1-0.8l5.1,0.6l-1-5.1
		c-0.1-0.5,0.2-1,0.8-1.1c0.5-0.1,1,0.2,1.1,0.8l1.2,6.3c0.1,0.3,0,0.6-0.2,0.8C11.9,41.6,11.7,41.7,11.4,41.7z"/>
</g>
<g id="形状_2">
	<path class="st0" d="M22,20l-6.5-5.6c-0.4-0.3-0.4-0.9-0.1-1.3c0.3-0.4,0.9-0.4,1.3-0.1l5.2,4.5l5.2-4.5c0.4-0.3,1-0.3,1.3,0.1
		c0.3,0.4,0.3,1-0.1,1.3L22,20z"/>
</g>
<g id="形状_3">
	<path class="st0" d="M27.9,21H16.1c-0.5,0-1-0.4-1-1c0-0.5,0.4-1,1-1h11.7c0.5,0,1,0.4,1,1C28.8,20.6,28.4,21,27.9,21z"/>
</g>
<g id="形状_3_拷贝">
	<path class="st0" d="M27.9,26.8H16.1c-0.5,0-1-0.4-1-1c0-0.5,0.4-1,1-1h11.7c0.5,0,1,0.4,1,1C28.8,26.4,28.4,26.8,27.9,26.8z"/>
</g>
<g id="形状_3_拷贝_2">
	<path class="st0" d="M22,32.5c-0.5,0-1-0.4-1-1V21c0-0.5,0.4-1,1-1c0.5,0,1,0.4,1,1v10.5C23,32.1,22.5,32.5,22,32.5z"/>
</g>
</svg>
