<?xml version="1.0" standalone="no"?><!DOCTYPE svg PUBLIC "-//W3C//DTD SVG 1.1//EN" "http://www.w3.org/Graphics/SVG/1.1/DTD/svg11.dtd"><svg t="1555416663011" class="icon" style="" viewBox="0 0 1024 1024" version="1.1" xmlns="http://www.w3.org/2000/svg" p-id="2838" data-spm-anchor-id="a313x.7781069.0.i2" xmlns:xlink="http://www.w3.org/1999/xlink" width="200" height="200"><defs><style type="text/css"></style></defs><path d="M928.1516 736.8l-70.4-52c-12-8.8-19.2-22.4-19.2-36.8V410.4c0-41.6-8.8-82.4-25.6-120-16.8-36.8-40-69.6-69.6-98.4-29.6-28-64.8-50.4-104-66.4-13.6-5.6-28-10.4-42.4-13.6v-32c0-44-38.4-80-84.8-80-47.2 0-84.8 36-84.8 80v32c-14.4 4-28.8 8-42.4 13.6-39.2 15.2-73.6 37.6-104 66.4-29.6 28-53.6 61.6-70.4 98.4-16.8 38.4-25.6 78.4-25.6 120v238.4c0 14.4-7.2 28-19.2 36.8L96.1516 736.8c-13.6 10.4-24 24-28 40-4 14.4-3.2 29.6 1.6 44 4.8 14.4 14.4 26.4 27.2 36 13.6 9.6 30.4 15.2 48 15.2h734.4c17.6 0 34.4-5.6 48-15.2 12.8-8.8 22.4-21.6 27.2-36 4.8-14.4 5.6-29.6 1.6-44-4-16-13.6-29.6-28-40z m-108-4.8l70.4 52c7.2 5.6 8 12.8 5.6 18.4-1.6 5.6-7.2 11.2-16 11.2H144.9516c-8.8 0-14.4-5.6-16-11.2-1.6-5.6-1.6-12.8 5.6-18.4l70.4-52C232.1516 712 248.1516 681.6 248.1516 648.8V410.4c0-137.6 118.4-249.6 264.8-249.6 145.6 0 264.8 112 264.8 249.6v238.4c-0.8 32.8 14.4 63.2 42.4 83.2zM512.1516 59.2c12.8 0 22.4 9.6 22.4 21.6v18.4h-44.8V80c0-11.2 9.6-20.8 22.4-20.8zM400.1516 918.4c0 58.4 50.4 105.6 112 105.6s112-47.2 112-105.6v-4H400.1516v4zM227.3516 128.8c6.4-4.8 10.4-12 11.2-20 0.8-8-1.6-15.2-6.4-21.6-5.6-7.2-15.2-11.2-24-11.2-7.2 0-14.4 2.4-19.2 6.4-52 40-94.4 87.2-127.2 142.4C28.1516 281.6 8.1516 343.2 0.1516 407.2c-0.8 8 1.6 15.2 6.4 21.6 5.6 6.4 12.8 10.4 20.8 11.2h3.2c16 0 29.6-11.2 31.2-26.4 13.6-112 72.8-213.6 165.6-284.8zM1024.1516 407.2c-7.2-64-28-125.6-61.6-181.6-32-55.2-75.2-103.2-127.2-142.4-5.6-4-12.8-6.4-20-6.4-9.6 0-18.4 4-24 11.2-5.6 6.4-8 13.6-6.4 21.6 0.8 8 4.8 15.2 11.2 20 93.6 71.2 152 172.8 165.6 284.8 1.6 15.2 15.2 26.4 31.2 26.4h3.2c8-0.8 16-4.8 20.8-11.2 5.6-7.2 8-14.4 7.2-22.4z" p-id="2839" fill="#ff4444"></path></svg>