<?xml version="1.0" encoding="utf-8"?>
<!-- Generator: Adobe Illustrator 23.0.0, SVG Export Plug-In . SVG Version: 6.00 Build 0)  -->
<svg version="1.1" id="组_14" xmlns="http://www.w3.org/2000/svg" xmlns:xlink="http://www.w3.org/1999/xlink" x="0px" y="0px"
	 viewBox="0 0 42 41" style="enable-background:new 0 0 42 41;" xml:space="preserve">
<style type="text/css">
	.st0{fill:#999999;}
</style>
<g id="矩形_64">
	<path class="st0" d="M39.1,41H2.9C1.3,41,0,39.7,0,38.1V2.9C0,1.3,1.3,0,2.9,0h36.2C40.7,0,42,1.3,42,2.9v35.3
		C42,39.7,40.7,41,39.1,41z M2.9,1.9c-0.5,0-1,0.4-1,1v35.3c0,0.5,0.4,1,1,1h36.2c0.5,0,1-0.4,1-1V2.9c0-0.5-0.4-1-1-1H2.9z"/>
</g>
<g id="矩形_67">
	<path class="st0" d="M28.6,18.1H13.4c-0.3,0-0.7-0.2-0.8-0.5c-0.2-0.3-0.2-0.7,0-1l2.9-4.8c0.3-0.5,0.9-0.6,1.3-0.3
		c0.5,0.3,0.6,0.9,0.3,1.3l-2,3.3h13.6c0.5,0,1,0.4,1,1S29.2,18.1,28.6,18.1z"/>
</g>
<g id="矩形_67_拷贝_2">
	<path class="st0" d="M25.7,29.6c-0.2,0-0.3,0-0.5-0.1c-0.5-0.3-0.6-0.9-0.3-1.3l2-3.3H13.4c-0.5,0-1-0.4-1-1c0-0.5,0.4-1,1-1h15.2
		c0.3,0,0.7,0.2,0.8,0.5s0.2,0.7,0,1l-2.9,4.8C26.4,29.4,26.1,29.6,25.7,29.6z"/>
</g>
</svg>
