<?xml version="1.0" encoding="utf-8"?>
<!-- Generator: Adobe Illustrator 23.0.0, SVG Export Plug-In . SVG Version: 6.00 Build 0)  -->
<svg version="1.1" id="组_15" xmlns="http://www.w3.org/2000/svg" xmlns:xlink="http://www.w3.org/1999/xlink" x="0px" y="0px"
	 viewBox="0 0 42 41" style="enable-background:new 0 0 42 41;" xml:space="preserve">
<style type="text/css">
	.st0{fill:#999999;}
</style>
<g id="矩形_65_拷贝">
	<path class="st0" d="M37.2,41H4.8c-1.6,0-2.9-1.2-2.9-2.7v-25h38.1v25C40.1,39.8,38.8,41,37.2,41z M3.8,15.3v23.1
		c0,0.4,0.4,0.8,1,0.8h32.4c0.5,0,1-0.3,1-0.8V15.3H3.8z"/>
</g>
<g id="矩形_67_拷贝">
	<path class="st0" d="M23.4,35.3h-7.6c-0.5,0-1-0.4-1-1c0-0.5,0.4-1,1-1h7.6c2.6,0,4.8-2.1,4.8-4.8s-2.1-4.8-4.8-4.8h-9.5
		c-0.5,0-1-0.4-1-1c0-0.5,0.4-1,1-1h9.5c3.7,0,6.7,3,6.7,6.7S27.1,35.3,23.4,35.3z"/>
</g>
<g id="矩形_68_拷贝_3">
	<path class="st0" d="M17.4,28.1c-0.2,0-0.4-0.1-0.6-0.2l-5.2-4.3c-0.2-0.2-0.3-0.5-0.3-0.7s0.1-0.6,0.3-0.7l5.2-4.3
		c0.4-0.3,1-0.3,1.3,0.1c0.3,0.4,0.3,1-0.1,1.3l-4.3,3.6l4.3,3.6c0.4,0.3,0.5,0.9,0.1,1.3C18,28,17.7,28.1,17.4,28.1z"/>
</g>
<g id="矩形_64_拷贝">
	<path class="st0" d="M39.1,15.3H2.9C1.3,15.3,0,14,0,12.4V2.9C0,1.3,1.3,0,2.9,0h36.2C40.7,0,42,1.3,42,2.9v9.5
		C42,14,40.7,15.3,39.1,15.3z M2.9,1.9c-0.5,0-1,0.4-1,1v9.5c0,0.5,0.4,1,1,1h36.2c0.5,0,1-0.4,1-1V2.9c0-0.5-0.4-1-1-1H2.9z"/>
</g>
</svg>
