<svg 
 xmlns="http://www.w3.org/2000/svg"
 xmlns:xlink="http://www.w3.org/1999/xlink"
 width="16px" height="16px">
<path fill-rule="evenodd"  fill="rgb(153, 153, 153)"
 d="M15.682,1.681 L9.377,7.987 L15.623,14.234 C16.007,14.617 16.007,15.239 15.623,15.623 C15.239,16.007 14.617,16.007 14.233,15.623 L7.987,9.377 L1.681,15.683 C1.295,16.069 0.668,16.069 0.281,15.683 C-0.105,15.296 -0.105,14.669 0.281,14.283 L6.587,7.977 L0.341,1.730 C-0.043,1.347 -0.043,0.725 0.341,0.341 C0.724,-0.043 1.347,-0.043 1.730,0.341 L7.976,6.587 L14.282,0.281 C14.669,-0.105 15.296,-0.105 15.682,0.281 C16.069,0.668 16.069,1.295 15.682,1.681 Z"/>
</svg>