<svg 
 xmlns="http://www.w3.org/2000/svg"
 xmlns:xlink="http://www.w3.org/1999/xlink"
 width="25px" height="25px">
<path fill-rule="evenodd"  stroke="rgb(119, 119, 119)" stroke-width="2px" stroke-linecap="butt" stroke-linejoin="miter" fill="none"
 d="M14.000,23.000 L14.000,15.000 C14.000,14.468 14.000,14.120 14.000,14.000 L20.935,3.943 C20.954,3.900 20.971,3.856 20.981,3.811 C20.993,3.758 21.000,3.702 21.000,3.646 C21.000,3.590 20.990,3.535 20.976,3.481 C20.962,3.428 20.940,3.378 20.914,3.327 C20.887,3.279 20.856,3.233 20.818,3.195 C20.780,3.155 20.739,3.119 20.696,3.091 C20.650,3.063 20.602,3.041 20.552,3.025 C20.497,3.010 20.439,3.000 20.380,3.000 L3.620,3.000 C3.560,3.000 3.503,3.008 3.448,3.025 C3.395,3.041 3.347,3.063 3.302,3.091 C3.256,3.119 3.215,3.155 3.179,3.195 C3.143,3.236 3.110,3.279 3.083,3.330 C3.057,3.378 3.038,3.428 3.024,3.481 C3.009,3.535 3.002,3.590 3.000,3.646 C3.000,3.702 3.004,3.758 3.019,3.811 C3.028,3.854 3.045,3.900 3.064,3.943 L10.000,13.000 C9.966,13.034 10.000,14.468 10.000,15.000 L10.000,20.000 "/>
</svg>

