<svg 
 xmlns="http://www.w3.org/2000/svg"
 xmlns:xlink="http://www.w3.org/1999/xlink"
 width="24px" height="19px">
<path fill-rule="evenodd"  
 d="M16.245,5.747 C16.519,5.747 16.793,5.768 17.064,5.797 C16.329,2.470 12.669,-0.000 8.494,-0.000 C3.825,-0.000 -0.000,3.091 -0.000,7.022 C-0.000,9.289 1.270,11.151 3.398,12.595 L2.550,15.077 L5.522,13.633 C6.586,13.836 7.434,14.047 8.498,14.047 C8.764,14.047 9.030,14.035 9.292,14.018 C9.127,13.464 9.030,12.889 9.030,12.285 C9.026,8.672 12.213,5.747 16.245,5.747 L16.245,5.747 ZM11.681,3.509 C12.323,3.509 12.745,3.918 12.745,4.539 C12.745,5.155 12.323,5.569 11.681,5.569 C11.048,5.569 10.406,5.155 10.406,4.539 C10.406,3.918 11.044,3.509 11.681,3.509 L11.681,3.509 ZM5.733,5.569 C5.095,5.569 4.454,5.155 4.454,4.539 C4.454,3.918 5.095,3.509 5.733,3.509 C6.370,3.509 6.792,3.918 6.792,4.539 C6.797,5.155 6.370,5.569 5.733,5.569 L5.733,5.569 ZM24.000,12.181 C24.000,8.879 20.601,6.190 16.785,6.190 C12.741,6.190 9.562,8.879 9.562,12.181 C9.562,15.491 12.745,18.172 16.785,18.172 C17.629,18.172 18.486,17.965 19.335,17.759 L21.665,19.000 L21.028,16.935 C22.729,15.690 24.000,14.043 24.000,12.181 L24.000,12.181 ZM14.442,11.147 C14.020,11.147 13.594,10.737 13.594,10.323 C13.594,9.914 14.020,9.500 14.442,9.500 C15.088,9.500 15.506,9.914 15.506,10.323 C15.506,10.737 15.084,11.147 14.442,11.147 L14.442,11.147 ZM19.115,11.147 C18.697,11.147 18.271,10.737 18.271,10.323 C18.271,9.914 18.697,9.500 19.115,9.500 C19.753,9.500 20.179,9.914 20.179,10.323 C20.175,10.737 19.753,11.147 19.115,11.147 L19.115,11.147 Z"/>
</svg>