<svg 
 xmlns="http://www.w3.org/2000/svg"
 xmlns:xlink="http://www.w3.org/1999/xlink"
 width="22px" height="19px">
<path fill-rule="evenodd" 
 d="M15.653,-0.001 C13.715,-0.001 12.179,0.910 11.000,2.405 C9.812,0.910 8.290,-0.001 6.351,-0.001 C2.848,-0.001 -0.003,2.900 -0.003,6.475 C-0.003,8.608 1.021,10.103 1.839,11.300 C4.205,14.798 9.923,18.556 10.173,18.740 C10.421,18.923 10.699,19.001 10.991,19.001 C11.280,19.001 11.558,18.909 11.808,18.740 C12.058,18.556 17.774,14.787 20.155,11.300 C20.972,10.103 21.996,8.608 21.996,6.475 C21.994,2.913 19.141,-0.001 15.653,-0.001 L15.653,-0.001 Z"/>
</svg>