<?xml version="1.0"?>
<svg viewBox="0 0 50 50" version="1.1" xmlns="http://www.w3.org/2000/svg" xmlns:xlink="http://www.w3.org/1999/xlink">
<g>
  <g>
    <path d="M24.52,46c-0.17,0-0.35-0.04-0.5-0.14c-0.31-0.18-0.5-0.51-0.5-0.86v-3.03c-10.17-0.51-18-8.85-18-19.39
      C5.52,11.78,14.26,3,25.02,3c10.75,0,19.5,8.78,19.5,19.58c0,7.75-3.21,12.87-11.45,18.25c-4.5,3.01-8.02,5.01-8.05,5.03
      C24.86,45.96,24.69,46,24.52,46z M25.02,5c-9.65,0-17.5,7.89-17.5,17.58c0,9.77,7.47,17.42,17,17.42c0.55,0,1,0.45,1,1v2.25
      c1.43-0.85,3.76-2.29,6.44-4.08c7.7-5.03,10.56-9.52,10.56-16.59C42.52,12.89,34.67,5,25.02,5z" />
  </g>
</g>
<g>
  <g>
    <path d="M24.95,34.5c-4.54,0-8.64-2.51-10.7-6.56c-0.25-0.49-0.06-1.09,0.44-1.34c0.49-0.25,1.09-0.06,1.35,0.44
      c1.72,3.37,5.13,5.47,8.92,5.47c3.83,0,7.37-2.23,9.02-5.69c0.11-0.22,0.28-0.38,0.49-0.48c0.08-0.04,0.18-0.07,0.27-0.08
      c0.06-0.01,0.13-0.01,0.19-0.01c0.53,0.02,0.96,0.46,0.96,1c0,0.19-0.05,0.37-0.15,0.53C33.73,31.86,29.51,34.5,24.95,34.5z" />
  </g>
</g>
<g>
  <g>
    <path d="M18.02,20.66c-0.55,0-1-0.45-1-1V17.5c0-0.55,0.45-1,1-1s1,0.45,1,1v2.16
      C19.02,20.21,18.57,20.66,18.02,20.66z" />
  </g>
  <g>
    <path d="M32.02,20.66c-0.55,0-1-0.45-1-1V17.5c0-0.55,0.45-1,1-1s1,0.45,1,1v2.16
      C33.02,20.21,32.57,20.66,32.02,20.66z" />
  </g>
</g>
</svg>
