<?xml version="1.0" standalone="no"?><!DOCTYPE svg PUBLIC "-//W3C//DTD SVG 1.1//EN" "http://www.w3.org/Graphics/SVG/1.1/DTD/svg11.dtd"><svg t="1564125132069" class="icon" viewBox="0 0 1024 1024" version="1.1" xmlns="http://www.w3.org/2000/svg" p-id="1412" xmlns:xlink="http://www.w3.org/1999/xlink" width="48" height="48"><defs><style type="text/css"></style></defs><path d="M633.456 742.544c14.059 14.059 14.059 36.853 0 50.912-14.059 14.059-36.853 14.059-50.912 0l-256-256c-14.059-14.059-14.059-36.853 0-50.912l256-256c14.059-14.059 36.853-14.059 50.912 0 14.059 14.059 14.059 36.853 0 50.912L402.912 512l230.544 230.544zM512 936c234.169 0 424-189.831 424-424S746.169 88 512 88 88 277.831 88 512s189.831 424 424 424z m0 88C229.23 1024 0 794.77 0 512S229.23 0 512 0s512 229.23 512 512-229.23 512-512 512z" fill="#000000" p-id="1413"></path></svg>