<?xml version="1.0" standalone="no"?><!DOCTYPE svg PUBLIC "-//W3C//DTD SVG 1.1//EN" "http://www.w3.org/Graphics/SVG/1.1/DTD/svg11.dtd"><svg t="1541589399648" class="icon" style="" viewBox="0 0 1024 1024" version="1.1" xmlns="http://www.w3.org/2000/svg" p-id="1854" xmlns:xlink="http://www.w3.org/1999/xlink" width="200" height="200"><defs><style type="text/css"></style></defs><path d="M678.398 364.324c10.792 0 21.478 0.771 32.081 1.919-28.804-130.955-172.2-228.264-335.841-228.264-182.973 0-332.86 121.792-332.86 276.438 0 89.294 49.866 162.58 133.212 219.434l-33.294 97.751 116.346-56.966c41.661 8.08 75.037 16.324 116.596 16.324 10.457 0 20.83-0.482 31.097-1.272-6.551-21.726-10.267-44.504-10.267-68.086-0.044-141.999 124.84-257.278 282.93-257.278z m-178.964-88.125c25.068 0 41.641 16.094 41.641 40.576 0 24.358-16.613 40.681-41.64 40.681-24.922 0-49.99-16.323-49.99-40.681 0-24.442 25.068-40.576 49.99-40.576z m-232.98 81.258c-24.946 0-50.16-16.323-50.16-40.681 0-24.442 25.174-40.576 50.16-40.576 24.941 0 41.558 16.094 41.558 40.576 0 24.358-16.574 40.681-41.559 40.681z m715.767 260.22c0-129.913-133.167-235.862-282.764-235.862-158.383 0-283.115 105.908-283.115 235.862 0 130.164 124.733 235.86 283.115 235.86 33.148 0 66.587-8.16 99.876-16.317l91.279 48.8-25.028-81.22c66.858-48.905 116.637-113.84 116.637-187.123z m-374.56-40.68c-16.573 0-33.273-16.096-33.273-32.52 0-16.178 16.7-32.46 33.273-32.46 25.17 0 41.66 16.323 41.66 32.46 0.04 16.424-16.447 32.52-41.66 32.52z m183.139 0c-16.491 0-33.065-16.096-33.065-32.52 0-16.178 16.614-32.46 33.065-32.46 24.922 0 41.64 16.323 41.64 32.46 0 16.424-16.72 32.52-41.64 32.52z" p-id="1855"></path></svg>