<?xml version="1.0" standalone="no"?><!DOCTYPE svg PUBLIC "-//W3C//DTD SVG 1.1//EN" "http://www.w3.org/Graphics/SVG/1.1/DTD/svg11.dtd"><svg t="1554284273708" class="icon" style="" viewBox="0 0 1024 1024" version="1.1" xmlns="http://www.w3.org/2000/svg" p-id="14096" xmlns:xlink="http://www.w3.org/1999/xlink" width="32" height="32"><defs><style type="text/css"></style></defs><path d="M983.168 289.664c-25.92-51.904-62.976-98.368-110.08-138.24C777.28 70.272 650.048 25.6 515.008 25.6S252.736 70.272 156.864 151.424c-47.104 39.872-84.096 86.336-110.016 138.24C19.776 343.744 6.016 401.28 6.016 460.608c0 84.672 28.416 166.72 82.24 237.248 48.832 64 116.16 115.776 195.456 150.336 3.136 25.664-4.8 51.712-23.808 77.568-11.136 15.168-12.736 34.88-4.16 51.584 8.512 16.64 25.408 27.008 44.096 27.008 0.832 0 1.728 0 2.624-0.064 121.024-6.144 214.144-83.008 242.56-109.184 127.04-6.016 245.44-52.032 334.528-130.176 93.12-81.728 144.448-189.824 144.448-304.384C1023.936 401.28 1010.24 343.744 983.168 289.664zM597.888 572.16 340.672 572.16c-16.192 0-29.376-13.056-29.376-29.248 0-16.128 13.184-29.248 29.376-29.248l257.216 0c16.192 0 29.376 13.056 29.376 29.248C627.264 559.04 614.08 572.16 597.888 572.16zM768.896 424.96 340.672 424.96c-16.192 0-29.376-13.12-29.376-29.248 0-16.128 13.184-29.248 29.376-29.248l428.288 0c16.192 0 29.376 13.056 29.376 29.248C798.272 411.84 785.152 424.96 768.896 424.96z" p-id="14097" fill="#b2b2b2"></path></svg>