<?xml version="1.0" standalone="no"?><!DOCTYPE svg PUBLIC "-//W3C//DTD SVG 1.1//EN" "http://www.w3.org/Graphics/SVG/1.1/DTD/svg11.dtd"><svg t="1554284310808" viewBox="0 0 1363 1024" version="1.1" xmlns="http://www.w3.org/2000/svg" p-id="16786" xmlns:xlink="http://www.w3.org/1999/xlink" width="42.59375" height="32"><defs><style type="text/css"></style></defs><path d="M1309.949742 375.415543c35.956732-21.983025 36.979198-38.853719 36.979198-68.334831V102.417041c0-56.576469-49.589616-102.417041-110.937594-102.417041H126.785821C65.608254 0 15.848228 45.840572 15.848228 102.417041v204.834082c0 30.673989 2.385755 50.952904 36.979198 68.334831 50.441671 21.642203 110.937594 65.608254 110.937593 136.499252 0 92.021967-62.711266 122.014312-108.72225 136.32884-32.3781 18.745216-39.194542 49.589616-39.194541 68.334831v204.834082c0 56.576469 49.589616 102.417041 110.937593 102.417041h1109.205525c61.347978 0 110.937594-45.840572 110.937594-102.417041V716.748877c0-37.32002-9.202197-49.078382-36.979198-68.334831-80.774838-38.512897-110.937594-72.595107-110.937594-136.499252 0-63.904144 28.288234-95.600599 110.937594-136.499251z m-406.600765 119.458146c0 9.372608-8.350141 17.041105-18.574805 17.041105h-166.321185v68.334832h166.321185c10.224663 0 18.574804 7.668497 18.574805 17.041105v34.08221c0 9.372608-8.350141 17.041105-18.574805 17.041105h-166.321185v119.458146c0 9.372608-8.350141 17.041105-18.404393 17.041105H662.898985c-10.224663 0-18.574804-7.668497-18.574805-17.041105v-119.458146h-166.321184c-10.224663 0-18.404393-7.668497-18.404394-17.041105v-34.08221c0-9.372608 8.350141-17.041105 18.404394-17.041105h166.321184v-68.334832h-166.321184c-10.224663 0-18.574804-7.668497-18.574805-17.041105v-34.08221c0-9.372608 8.350141-17.041105 18.574805-17.041105h140.077883L466.074222 293.107006c-6.47562-6.646031-6.47562-17.211516 0-23.857547l23.516725-23.687136c3.067399-3.067399 7.327675-4.94192 11.758362-4.94192 4.430687 0 8.690964 1.704111 11.758363 4.94192l168.025295 166.662007 168.025296-166.662007c3.067399-3.23781 7.327675-4.94192 11.928773-4.94192 4.430687 0 8.690964 1.704111 11.928774 4.94192l23.687136 24.027958c6.47562 6.646031 6.47562 17.381927 0 23.857547l-151.495424 150.302546h139.56665c10.224663 0 18.574804 7.668497 18.574805 17.041105v34.08221z m0 0" fill="#b2b2b2"></path></svg>