<?xml version="1.0" standalone="no"?><!DOCTYPE svg PUBLIC "-//W3C//DTD SVG 1.1//EN" "http://www.w3.org/Graphics/SVG/1.1/DTD/svg11.dtd"><svg t="1555141414098" class="icon" style="" viewBox="0 0 1024 1024" version="1.1" xmlns="http://www.w3.org/2000/svg" p-id="65206" xmlns:xlink="http://www.w3.org/1999/xlink" width="1024" height="1024"><defs><style type="text/css"></style></defs><path d="M804.576 779.904a24.608 24.608 0 0 1-24.672 24.672H245.024a24.608 24.608 0 0 1-24.704-24.672v-73.184c0-96.864 194.752-146.24 291.68-146.24 96.96 0 291.616 48.448 291.616 146.24l0.96 73.184zM366.592 356.576c4.608-73.152 64.064-131.648 137.152-136.256a146.432 146.432 0 0 1 154.528 146.336A146.688 146.688 0 0 1 512 512.896c-84.16 0-150.88-71.264-145.408-156.32zM512 0C229.504 0 0 229.504 0 512s229.504 512 512 512 512-229.504 512-512S794.496 0 512 0z" p-id="65207" fill="#ffb108"></path></svg>