<?xml version="1.0" standalone="no"?><!DOCTYPE svg PUBLIC "-//W3C//DTD SVG 1.1//EN" "http://www.w3.org/Graphics/SVG/1.1/DTD/svg11.dtd"><svg class="order-done-svg" xmlns="http://www.w3.org/2000/svg" viewBox="0 0 164 155"><path fill="#C9CACA" d="M11.6 153.9c-5.9 0-10.6-4.8-10.6-10.6v-120c0-5.9 4.8-10.6 10.6-10.6h98.7c5.9 0 10.6 4.8 10.6 10.6v120c0 5.9-4.8 10.6-10.6 10.6H11.6z"></path><path fill="#9FA0A0" d="M110.3 13.7c5.3 0 9.6 4.3 9.6 9.6v120c0 5.3-4.3 9.6-9.6 9.6H11.6c-5.3 0-9.6-4.3-9.6-9.6v-120c0-5.3 4.3-9.6 9.6-9.6h98.7m0-2H11.6C5.2 11.7 0 16.9 0 23.3v120c0 6.4 5.2 11.6 11.6 11.6h98.7c6.4 0 11.6-5.2 11.6-11.6v-120c0-6.4-5.2-11.6-11.6-11.6z"></path><path fill="#FFF" d="M18.8 143.5c-4.9 0-8.9-4-8.9-8.9V32.1c0-4.9 4-8.9 8.9-8.9h84.3c4.9 0 8.9 4 8.9 8.9v102.5c0 4.9-4 8.9-8.9 8.9H18.8z"></path><path fill="#9FA0A0" d="M103.1 24.2c4.4 0 7.9 3.6 7.9 7.9v102.5c0 4.4-3.6 7.9-7.9 7.9H18.8c-4.4 0-7.9-3.6-7.9-7.9V32.1c0-4.4 3.6-7.9 7.9-7.9h84.3m0-2H18.8c-5.5 0-9.9 4.4-9.9 9.9v102.5c0 5.5 4.4 9.9 9.9 9.9h84.3c5.5 0 9.9-4.4 9.9-9.9V32.1c.1-5.5-4.4-9.9-9.9-9.9z"></path><g fill="#DCDDDD"><path d="M22.8 45.5h76.4v12.1H22.8zM22.8 62.6h76.4v12.1H22.8zM22.8 79.4h76.4v12.1H22.8zM22.8 98.3h76.4v12.1H22.8z"></path></g><circle fill="#FFF" cx="121.8" cy="110.2" r="41.5"></circle><path fill="#EFEFEF" d="M153.4 84c3.5 5.9 5.5 12.8 5.5 20.2 0 21.9-17.7 39.6-39.6 39.6-18.2 0-33.6-12.3-38.2-29 2.4 20.4 19.7 36.2 40.7 36.2 22.6 0 40.9-18.3 40.9-40.9 0-9.9-3.5-19-9.3-26.1z"></path><path fill="#9FA0A0" d="M121.8 70.1c22.1 0 40.1 18 40.1 40.1s-18 40.1-40.1 40.1-40.1-18-40.1-40.1 17.9-40.1 40.1-40.1m0-2c-23.3 0-42.1 18.9-42.1 42.1s18.9 42.1 42.1 42.1 42.1-18.9 42.1-42.1-18.9-42.1-42.1-42.1z"></path><path fill="#9FA0A0" d="M140.9 90.6l-28.1 28-10.1-10.1-5.6 5.6 15.7 15.7 5.6-5.6 28.1-28"></path><g><path fill="#FFF" d="M31.7 22.7V8.6h15.7c.6 0 1-.4 1-1V1h25.1v6.6c0 .6.4 1 1 1h15.7v14.2H31.7z"></path><path fill="#9FA0A0" d="M72.5 2v5.6c0 1.1.9 2 2 2h14.7v12.2H32.7V9.6h14.7c1.1 0 2-.9 2-2V2h23.1m2-2H47.4v7.6H30.7v16.2h60.5V7.6H74.5V0z"></path></g><path fill="#FFF" stroke="#9FA0A0" stroke-width="2" stroke-miterlimit="10" d="M67.1 10.6c0 1.4-1.1 2.5-2.5 2.5h-7.2c-1.4 0-2.5-1.1-2.5-2.5S56 8 57.4 8h7.2c1.4 0 2.5 1.2 2.5 2.6z"></path></svg>