<?xml version="1.0" standalone="no"?><!DOCTYPE svg PUBLIC "-//W3C//DTD SVG 1.1//EN" "http://www.w3.org/Graphics/SVG/1.1/DTD/svg11.dtd"><svg class="order-wait-send-svg" xmlns="http://www.w3.org/2000/svg" viewBox="0 0 164 130"><path fill="#FFF" d="M121.1 126.1L1.3 117.9 2 9.3l120 3.1"></path><path fill="#DCDDDD" d="M121 126.3l-8.8-1.1.3-112.2 8.5.3"></path><path fill="#DCDDDD" d="M1.4 119.3v-11l120.6 7.8V128"></path><path fill="#9FA0A0" d="M2.5 10.3L121 13.7v113.9L2.1 119.3l.4-109m-2-2.1L.1 121.1l122.9 8.7v-118L.5 8.2z"></path><path fill="#DCDDDD" d="M122.6 13L3.1 9.5l40.8-5.7 114.4 2"></path><path fill="#C9CACA" d="M124 12.7l34.5-5.9.4 101.4-34.9 19.9"></path><path fill="#9FA0A0" d="M157.5 8l.4 99.7-32.9 18.7V13.5L157.5 8m2-2.4L123 11.8v118l36.9-21.1-.4-103.1z"></path><path fill="#C9CACA" d="M134.5 121l-11.2 6.6-.3-113.4 11.2-1.8M51.8 28l1.1 1.2 1.4-1.2 1.1 1.2 1.4-1.2 1.1 1.6 1.3-1.2 1.2 1.5 1.4-1.2 1.1 1.6 1.4-1.2 1.1 1.2 1.4-.7 1.1.7 1.4-.7 1.3.9 1-1 1.1 1 .1-18.1h-.1L108 4.9 88.2 3.8l-38.1 8.1-.1 17.2"></path><path fill="none" stroke="#9FA0A0" stroke-width="2" stroke-linejoin="bevel" stroke-miterlimit="10" d="M124.5 13L.8 9.3l42.3-5.5 116.1 2.3z"></path><text transform="matrix(.9122 .0602 -.06585 .9978 18.515 76.593)" fill="#9FA0A0" font-family="'HelveticaExt-Normal'" font-size="21.186">READY</text><g><path fill="#9FA0A0" d="M14.8 47.1l86.8 5.2-1 42.7-86.1-6.6.3-41.3m-2-2.2l-.4 45.2 90.1 6.9 1.1-46.7-90.8-5.4z"></path></g></svg>