<?xml version="1.0" standalone="no"?><!DOCTYPE svg PUBLIC "-//W3C//DTD SVG 1.1//EN" "http://www.w3.org/Graphics/SVG/1.1/DTD/svg11.dtd"><svg xmlns="http://www.w3.org/2000/svg" viewBox="0 0 180 180"><style>.st0{fill:#C9CACA;} .st1{fill:#DCDDDD;}</style><g id="XMLID_141_"><path id="XMLID_233_" class="st0" d="M143.1 172.3H36.9c-7.4 0-13.4-5.8-13.4-13V34.5c0-7.2 6-13 13.4-13h19.4v1.8H36.9c-6.4 0-11.6 5-11.6 11.2v124.9c0 6.2 5.2 11.2 11.6 11.2h106.3c6.4 0 11.6-5 11.6-11.2V34.5c0-6.2-5.2-11.2-11.6-11.2h-19.4v-1.8h19.4c7.4 0 13.4 5.8 13.4 13v124.9c-.1 7.1-6.1 12.9-13.5 12.9z"></path></g><path class="st0" d="M134 35.1c4.7 0 8.5 3.8 8.5 8.5v106.9c0 4.7-3.8 8.5-8.5 8.5H46c-4.7 0-8.5-3.8-8.5-8.5V43.6c0-4.7 3.8-8.5 8.5-8.5h88m0-1.8H46c-5.7 0-10.3 4.6-10.3 10.3v106.9c0 5.7 4.6 10.3 10.3 10.3h88c5.7 0 10.3-4.6 10.3-10.3V43.6c0-5.7-4.6-10.3-10.3-10.3z" id="XMLID_140_"></path><g id="XMLID_139_"><path id="XMLID_230_" class="st0" d="M56.2 35.1c-.2 0-.5-.1-.7-.3-.2-.2-.3-.4-.3-.7V17c0-.5.4-.9.9-.9h17.7V8.6c0-.5.4-.9.9-.9H105c.5 0 .9.4.9.9v7.5h17.7c.5 0 .9.4.9.9v17.1c0 .5-.4.9-.9.9l-67.4.1zm1-17.1v15.3l65.7-.1V18h-17.7c-.5 0-.9-.4-.9-.9V9.5H75.8V17c0 .5-.4.9-.9.9H57.2z"></path></g><g id="XMLID_138_"><path id="XMLID_225_" class="st0" d="M94 24.9h-8c-2.1 0-3.8-1.7-3.8-3.8s1.7-3.8 3.8-3.8h8c2.1 0 3.8 1.7 3.8 3.8s-1.7 3.8-3.8 3.8zm-8-5.6c-1.1 0-1.9.9-1.9 1.9 0 1.1.9 1.9 1.9 1.9h8c1.1 0 1.9-.9 1.9-1.9 0-1.1-.9-1.9-1.9-1.9h-8z"></path></g><path id="XMLID_219_" class="st1" d="M134.3 94.7H45.8c-1.5 0-2.8-1.2-2.8-2.8 0-1.5 1.2-2.8 2.8-2.8h88.5c1.5 0 2.8 1.2 2.8 2.8-.1 1.6-1.3 2.8-2.8 2.8z"></path><path id="XMLID_235_" class="st1" d="M134.3 116.8H45.8c-1.5 0-2.8-1.2-2.8-2.8 0-1.5 1.2-2.8 2.8-2.8h88.5c1.5 0 2.8 1.2 2.8 2.8-.1 1.5-1.3 2.8-2.8 2.8z"></path><path id="XMLID_237_" class="st1" d="M126.4 72.6H91.8c-1.5 0-2.8-1.2-2.8-2.8 0-1.5 1.2-2.8 2.8-2.8h34.6c1.5 0 2.8 1.2 2.8 2.8-.1 1.6-1.3 2.8-2.8 2.8z"></path><path id="XMLID_238_" class="st1" d="M74.5 72.6H51.9c-1.5 0-2.8-1.2-2.8-2.8 0-1.5 1.2-2.8 2.8-2.8h22.5c1.5 0 2.8 1.2 2.8 2.8 0 1.6-1.2 2.8-2.7 2.8z"></path></svg>