<?xml version="1.0" encoding="utf-8"?>
<!-- Generator: Adobe Illustrator 23.0.0, SVG Export Plug-In . SVG Version: 6.00 Build 0)  -->
<svg version="1.1" id="图层_1" xmlns="http://www.w3.org/2000/svg" xmlns:xlink="http://www.w3.org/1999/xlink" x="0px" y="0px"
	 viewBox="0 0 160 160" style="enable-background:new 0 0 160 160;" xml:space="preserve">
<style type="text/css">
	.st0{fill:#B2B2B2;}
</style>
<path class="st0" d="M134.48,148.45c-1.42,1.05-3.29,1.05-4.71,0l-11.81-9.43c-3.3,2.09-9.23,5.96-14.78,9.43
	c-1.39,0.99-3.24,0.99-5.09,0c-5.55-3.47-12.01-7.87-14.83-9.43c-3.3,2.09-10.15,6.05-16.47,9.76c-0.97,0.46-1.94,0.46-2.92,0.46
	c-0.97,0-1.94-0.46-2.43-0.93c-5.83-3.71-13.21-7.21-16.04-9.29c-2.36,1.57-7.38,6.28-12,9.44c-1.39,1.05-3.23,1.05-4.62,0
	c-1.38-1.06-2.31-2.64-2.31-4.75v-126c0-3.13,1.89-5.22,4.72-5.22h100.93c2.83,0,4.71,2.09,4.71,5.22v126.01
	C136.84,145.83,135.89,147.4,134.48,148.45L134.48,148.45z M87.02,43.27H52.51c-3,0-4.99,2.04-4.99,5.11c0,3.07,1.99,5.12,4.99,5.12
	h34.51c3,0,4.99-2.05,4.99-5.12C92,45.31,90.01,43.27,87.02,43.27L87.02,43.27z M107.38,70.62H52.66c-3.08,0-5.14,2.05-5.14,5.12
	c0,3.07,2.06,5.12,5.14,5.12h54.72c3.09,0,5.15-2.05,5.15-5.12C112.53,72.67,110.47,70.62,107.38,70.62L107.38,70.62z M107.38,97.97
	H52.66c-3.08,0-5.14,2.05-5.14,5.12c0,3.07,2.06,5.12,5.14,5.12h54.72c3.09,0,5.15-2.05,5.15-5.12
	C112.53,100.01,110.47,97.97,107.38,97.97L107.38,97.97z M107.38,97.97"/>
</svg>
