<?xml version="1.0" encoding="utf-8"?>
<svg version="1.1" xmlns="http://www.w3.org/2000/svg" xmlns:xlink="http://www.w3.org/1999/xlink" viewBox="0 0 1024 1024">
  <path d="M768 992c-64 0-115.2-51.2-121.6-108.8L384 883.2c-6.4 64-57.6 108.8-121.6 108.8s-115.2-51.2-121.6-108.8L38.4 883.2c-19.2 0-38.4-19.2-38.4-38.4L0 499.2c0-121.6 96-217.6 217.6-217.6l185.6 0L403.2 134.4c0-38.4 32-64 64-64l486.4 0c38.4 0 64 32 64 64l0 710.4c0 19.2-19.2 38.4-38.4 38.4l-96 0C883.2 947.2 832 992 768 992zM358.4 832l307.2 0c6.4 0 12.8 0 19.2 6.4 6.4 6.4 6.4 12.8 6.4 19.2l0 6.4c0 44.8 32 76.8 76.8 76.8s76.8-32 76.8-76.8c0 0 0-6.4 0-6.4 0-6.4 0-12.8 6.4-19.2 6.4-6.4 12.8-6.4 19.2-6.4l108.8 0L979.2 134.4c0-6.4-6.4-19.2-19.2-19.2L473.6 115.2C460.8 121.6 454.4 128 454.4 134.4l0 172.8c0 12.8-12.8 25.6-25.6 25.6L224 332.8C128 332.8 51.2 409.6 51.2 499.2L51.2 832l108.8 0c6.4 0 12.8 0 19.2 6.4s6.4 12.8 6.4 19.2l0 6.4c0 44.8 32 76.8 76.8 76.8s76.8-32 76.8-76.8c0 0 0-6.4 0-6.4 0-6.4 0-12.8 6.4-19.2S352 832 358.4 832z"></path><path d="M428.8 633.6 128 633.6c-12.8 0-25.6-12.8-25.6-25.6l0 0c0-12.8 12.8-25.6 25.6-25.6l300.8 0c12.8 0 25.6 12.8 25.6 25.6l0 0C454.4 627.2 441.6 633.6 428.8 633.6z"></path><path d="M403.2 614.4l0-192c0-12.8 12.8-25.6 25.6-25.6l0 0c12.8 0 25.6 12.8 25.6 25.6l0 192c0 12.8-12.8 25.6-25.6 25.6l0 0C416 640 403.2 627.2 403.2 614.4z"></path>
</svg>
