<?xml version="1.0" standalone="no"?><!DOCTYPE svg PUBLIC "-//W3C//DTD SVG 1.1//EN" "http://www.w3.org/Graphics/SVG/1.1/DTD/svg11.dtd"><svg class="order-wait-pay-svg" xmlns="http://www.w3.org/2000/svg" viewBox="0 0 200 130"><path fill="#FFF" d="M43.1 105.8c-4 0-7.3-3.3-7.3-7.4l.1-88.4c0-4.1 3.3-7.4 7.3-7.4l148.7.1c4 0 7.3 3.3 7.3 7.4l-.1 88.4c0 4.1-3.3 7.4-7.3 7.4l-148.7-.1z"></path><path fill="#9FA0A0" d="M43.2 3.6l148.7.1c3.5 0 6.3 2.9 6.3 6.4l-.1 88.4c0 3.5-2.8 6.4-6.3 6.4l-148.7-.1c-3.5 0-6.3-2.9-6.3-6.4l.1-88.4c0-3.5 2.9-6.4 6.3-6.4m0-2c-4.6 0-8.3 3.8-8.3 8.4l-.1 88.4c0 4.6 3.7 8.4 8.3 8.4l148.7.1c4.6 0 8.3-3.8 8.3-8.4l.1-88.4c0-4.6-3.7-8.4-8.3-8.4L43.2 1.6z"></path><path fill="#C9CACA" d="M37.1 18.6H198v27.3H37.1z"></path><circle fill="#FFF" cx="43.4" cy="86.9" r="43.1"></circle><path fill="#EFEFEF" d="M71.5 54.2c6.3 7.3 10.1 16.8 10.1 27.2 0 22.9-18.6 41.5-41.5 41.5-17.8 0-32.9-11.2-38.8-26.9 3.8 17.6 18.4 31.7 37.3 33.8 23.7 2.6 45-14.4 47.6-38.1 1.7-14.7-4.3-28.5-14.7-37.5z"></path><path fill="#9FA0A0" d="M43.4 45.8c22.7 0 41.1 18.4 41.1 41.1S66.1 128 43.4 128 2.3 109.6 2.3 86.9s18.5-41.1 41.1-41.1m0-2C19.6 43.8.3 63.1.3 86.9S19.6 130 43.4 130s43.1-19.3 43.1-43.1-19.3-43.1-43.1-43.1z"></path><path fill="#9FA0A0" d="M59.2 68.8L49.2 87h7.1v5.4h-8.6v4.3h8.6v5.4h-8.6v7.4H39V102h-9v-5.4h8.9v-4.3H30V87h7.3l-9.7-18.2h9.1l7 16.2h.1c.1-.2.4-1.1 1-2.6l5.8-13.6h8.6z"></path><path fill="#C9CACA" d="M192.7 96.7c0 1.3-1 2.3-2.3 2.3h-23.8c-1.3 0-2.3-1-2.3-2.3V84.3c0-1.3 1-2.3 2.3-2.3h23.8c1.3 0 2.3 1 2.3 2.3v12.4z"></path></svg>