<?xml version="1.0" standalone="no"?><!DOCTYPE svg PUBLIC "-//W3C//DTD SVG 1.1//EN" "http://www.w3.org/Graphics/SVG/1.1/DTD/svg11.dtd"><svg t="1554275357617" style="" viewBox="0 0 1024 1024" version="1.1" xmlns="http://www.w3.org/2000/svg" xmlns:xlink="http://www.w3.org/1999/xlink" width="32" height="32"><defs></defs><path d="M911.898947 421.941895C911.898947 188.901053 725.962105 0 496.532211 0S81.111579 188.901053 81.111579 421.941895c0 7.383579 0.754526 14.551579 1.077895 21.773473-0.323368 3.557053-1.077895 7.006316-1.077895 10.725053 0 259.664842 383.461053 553.822316 383.461053 553.822316s31.959579 24.360421 63.919157 0c31.905684-24.360421 383.407158-294.157474 383.407158-553.822316 0-3.718737-0.754526-7.168-1.077894-10.725053 0.377263-7.221895 1.077895-14.389895 1.077894-21.773473zM496.532211 584.218947c-88.279579 0-159.797895-72.650105-159.797895-162.330947 0-89.626947 71.518316-162.223158 159.797895-162.223158 88.225684 0 159.744 72.596211 159.744 162.223158 0 89.680842-71.518316 162.330947-159.744 162.330947z" fill="#b2b2b2"></path></svg>