<?xml version="1.0" standalone="no"?><!DOCTYPE svg PUBLIC "-//W3C//DTD SVG 1.1//EN" "http://www.w3.org/Graphics/SVG/1.1/DTD/svg11.dtd"><svg class="order-shipment-svg" xmlns="http://www.w3.org/2000/svg" viewBox="0 0 196 154"><path fill="#DCDDDD" d="M113.2 150.5c0 2.1-1.5 3.8-3.4 3.8H27.5c-1.9 0-3.4-1.7-3.4-3.8 0-2.1 1.5-3.8 3.4-3.8h82.3c1.9 0 3.4 1.7 3.4 3.8z"></path><path fill="#EFEFEF" stroke="#9FA0A0" stroke-width="2" stroke-linecap="round" stroke-linejoin="round" stroke-miterlimit="10" d="M101.1 86.4L92.9 77c-1.6-1.8-4.3-1.9-6.2-.3L58.3 105l-17.5-9c-4.8-2.6-8.6-4.3-10.7-1.9l-3.2 4.8c-1.4 2.3.6 5.1 4.1 7.8l25.4 17.7c4.6 2.7 9.2-1.5 9.2-1.5l34.9-30.3c1.8-1.7 2.1-4.4.6-6.2z"></path><path fill="#FFF" stroke="#9FA0A0" stroke-width="2" stroke-linecap="round" stroke-linejoin="round" stroke-miterlimit="10" d="M127.2 110.7l-23.1-16.5 8.8-35.7c.9-4.8-2.3-9.4-7.1-10.3l-18.5-3.4c-4.8-.9-9.4 2.3-10.3 7.1L69.1 82c-1.6 9.2-3.2 14.2 16.3 26 10.4 6.3 25.1 13.3 25.1 13.3l-9.2 22.6c-1 2.2-.2 4.7 1.8 5.7l5 3c2.1 1 4.6 0 5.6-2.2l16.4-28.5c.2.1 3.6-5.7-2.9-11.2z"></path><path fill="#FFF" d="M102 43c-10.4 0-19-7.8-20.1-18.2-.5-5.4 1.1-10.7 4.5-14.8 3.4-4.2 8.3-6.8 13.6-7.3.7-.1 1.4-.1 2-.1 10.4 0 19.1 7.8 20.1 18.2.5 5.4-1.1 10.6-4.5 14.8-3.4 4.2-8.3 6.8-13.6 7.3-.6.1-1.3.1-2 .1z"></path><path fill="#9FA0A0" d="M102.1 1.6v2c9.9 0 18.1 7.4 19.1 17.3 1 10.5-6.7 20-17.2 21-.6.1-1.3.1-1.9.1C92.2 42 84 34.6 83 24.7c-.5-5.1 1-10.1 4.3-14.1s7.9-6.4 13-6.9c.6-.1 1.3-.1 1.9-.1l-.1-2m0 0c-.7 0-1.4 0-2.1.1-11.7 1.2-20.2 11.6-19 23.2C82 35.8 91.3 44 102 44c.7 0 1.4 0 2.1-.1 11.7-1.2 20.2-11.6 19-23.2-1-11-10.2-19.1-21-19.1z"></path><path fill="#FFF" d="M195.025 51.826l-5.167 53.552-72.864-7.03 5.167-53.553z"></path><path fill="#9FA0A0" d="M123 45.9l70.9 6.8-5 51.5-70.9-6.8 5-51.5m-1.8-2.2l-5.4 55.5 74.9 7.2 5.4-55.5-74.9-7.2z"></path><path fill="#DCDDDD" d="M144.38 48.578l31.07 2.86-4.628 50.287-31.07-2.86z"></path><path fill="#FFF" stroke="#9FA0A0" stroke-width="2" stroke-linecap="round" stroke-linejoin="round" stroke-miterlimit="10" d="M154.3 73.1l-1.6-4.6c-1.2-2.9-2.8-3.7-5.2-3.1l-30.2 6.9-18.6-19.2c-1.8-1.6-4.5-1.6-6.1.1L85.5 61c-1.6 1.7-1.4 4.4.4 6.1 0 0 23.1 20.5 27.2 22.9l36.6-11.2c2.5-.9 5.1-1.7 4.6-5.7z"></path><path fill="#C9CACA" d="M63 140.2c0 1-1.1 1.7-2.4 1.7H2.8c-1.3 0-2.4-.8-2.4-1.7 0-1 1.1-1.7 2.4-1.7h57.9c1.2 0 2.3.8 2.3 1.7zM67.7 44.6c0 1-.5 1.7-1.2 1.7H37.9c-.6 0-1.2-.8-1.2-1.7 0-1 .5-1.7 1.2-1.7h28.6c.7 0 1.2.7 1.2 1.7z"></path><path fill="#DCDDDD" d="M55.1 57.9c0 1-.8 1.7-1.9 1.7H7.4c-1 0-1.9-.8-1.9-1.7 0-1 .8-1.7 1.9-1.7h45.9c.9-.1 1.8.7 1.8 1.7z"></path><g><path fill="#DCDDDD" d="M122.4 45.6l2.7-8.7 68.6 6.9 1.1 8.8"></path><path fill="#9FA0A0" d="M125.8 37.9l67 6.8.8 6.8-70-6.7 2.2-6.9m-1.4-2.1L121 46.4l74.9 7.2-1.3-10.8-70.2-7z"></path></g></svg>