<?xml version="1.0" standalone="no"?><!DOCTYPE svg PUBLIC "-//W3C//DTD SVG 1.1//EN" "http://www.w3.org/Graphics/SVG/1.1/DTD/svg11.dtd"><svg xmlns="http://www.w3.org/2000/svg" viewBox="0 0 164 133"><path fill="#DCDDDD" d="M92.5 8.2l-1.1-2.1-50.5 24.5 1.1 2.1M98.1 6.8l-1.5 1.9 41.5 32.2 1.5-1.9"></path><path fill="#FFF" d="M158.4 123.1c-.3 4.5-3.7 7.9-7.6 7.6L8 121.4c-3.9-.3-6.9-4.1-6.6-8.6l5-76.2c.2-4.4 3.6-7.8 7.6-7.6l142.8 9.3c3.9.3 6.9 4.1 6.6 8.6l-5 76.2z"></path><path fill="#DCDDDD" d="M157.4 39.8l-2.3-.1-4.9 74.8c-.3 4.5-3.7 7.9-7.6 7.6L2.1 113l-.1 1.4c-.3 4.5 2.7 8.3 6.6 8.6l142.8 9.3c3.9.3 7.3-3.2 7.6-7.6l5-76.2c.3-4.6-2.7-8.4-6.6-8.7z"></path><path fill="#C9CACA" d="M162.4 65.2l1.1-17.3c.2-5-2.9-9.3-6.9-9.6L12.9 29c-4-.3-7.3 3.6-7.5 8.7l-.6 16.4 157.6 11.1z"></path><path fill="#9FA0A0" d="M12.9 29.8h.3l144.3 9.4c2.9.2 5 3.2 4.8 6.7l-5.1 78.6c-.2 3.4-2.6 6-5.3 6h-.3L7.2 121.1c-2.9-.2-5-3.2-4.8-6.7l5.1-78.6c.3-3.3 2.6-6 5.4-6m0-2c-3.8 0-7 3.4-7.3 7.9L.5 114.3c-.3 4.6 2.7 8.5 6.6 8.8l144.3 9.4h.4c3.8 0 7-3.4 7.3-7.9l5.1-78.6c.3-4.6-2.7-8.5-6.6-8.8L13.3 27.8h-.4z"></path><g fill="#9FA0A0"><path d="M32.3 80.5c-.3-1.7-1-3-2-3.9-1.1-.9-2.5-1.4-4.1-1.5-2.4-.2-4.3.5-5.8 2.1S18.1 81 17.8 84c-.2 2.9.3 5.2 1.4 7s2.9 2.7 5.2 2.9c1.8.1 3.4-.3 4.7-1.3 1.3-1 2.2-2.5 2.6-4.4l3.3.3c-.5 2.7-1.8 4.8-3.7 6.4-1.9 1.6-4.2 2.3-7 2.1-3.4-.3-5.9-1.5-7.7-3.9-1.8-2.3-2.5-5.3-2.2-9.1.3-3.4 1.4-6.3 3.4-8.6s4.9-3.4 8.5-3.1c2.8.2 5.1 1.1 6.8 2.7 1.7 1.6 2.5 3.6 2.5 6l-3.3-.5zM43.7 73.9l-1.6 20.8 11.9.9-.2 3-15.2-1.2 1.9-23.8 3.2.3zM59.7 78.1c2.2-2.1 5.2-3 8.7-2.7 3.5.3 6.2 1.6 8.1 3.9 1.9 2.3 2.7 5.4 2.4 9.1-.3 3.6-1.5 6.5-3.7 8.7-2.2 2.2-5.1 3.2-8.9 2.9-3.5-.3-6.2-1.6-8.1-3.9-1.9-2.3-2.7-5.3-2.4-9.1.4-3.9 1.6-6.9 3.9-8.9zm1.2 16c1.3 1.8 3.2 2.7 5.7 2.9 2.5.2 4.6-.5 6.1-2 1.5-1.6 2.4-3.9 2.7-6.9.2-2.8-.3-5.1-1.6-6.9-1.3-1.7-3.2-2.7-5.7-2.9-2.5-.2-4.6.5-6.1 2-1.6 1.6-2.4 3.8-2.7 6.8-.2 2.9.3 5.2 1.6 7zM84.5 93v.6c0 .8 0 1.5.1 2.1.1.6.5 1.2 1.3 1.8.6.4 1.2.7 1.9 1 .7.2 1.6.4 2.5.5 1.8.1 3.2-.1 4.3-.7s1.7-1.5 1.8-2.6c0-.6-.1-1.2-.5-1.7s-1.1-.9-2.1-1.4l-7-3.3c-1.4-.7-2.5-1.5-3.2-2.5-.7-1-.9-2.1-.8-3.4.2-2.4 1.2-4 3-5 1.8-.9 3.8-1.4 5.8-1.2h.2c1.7.1 3.2.5 4.5 1.2 1.2.6 2.2 1.5 2.8 2.6.4.7.7 1.4.7 2.2.1.7.1 1.5.1 2.3v.2l-3.4-.3v-.2-.2-1.4c0-.3-.1-.6-.2-.8v-.1s0-.1-.1-.1c-.3-.6-.9-1.1-1.7-1.6-.8-.4-1.8-.7-2.8-.8-1.5-.1-2.7.1-3.7.7s-1.5 1.4-1.6 2.4c0 .6.1 1.1.3 1.5.2.4.7.8 1.4 1.1.1.1.2.1.3.2.1.1.2.1.3.2l7.3 3.4c1.5.7 2.5 1.5 3.2 2.5.7 1 .9 2.1.8 3.4-.1 1.1-.4 2.1-1.1 3.1-.6 1-1.4 1.7-2.5 2.3-.8.5-1.7.8-2.7.9-1 .2-2.2.2-3.6.1-3.1-.2-5.5-1.1-7-2.5s-2.2-3.4-2-5.9l.1-.8 3.3.2zM122.6 80l-.2 3-13.9-1-.5 7 12.7 1-.2 3-12.7-1-.6 7.8 13.9 1.1-.2 3-17.3-1.4 1.9-23.8 17.1 1.3zM135.2 81c1.9.1 3.3.4 4.3.7 1 .3 1.9.8 2.7 1.5 0 0 .1 0 .1.1 0 0 .1 0 .1.1 1.3 1.1 2.2 2.6 2.8 4.3.6 1.7.8 3.7.6 6-.2 2.9-1 5.4-2.4 7.4s-3.1 3.3-5.2 3.7c-.5.1-1.1.2-1.9.2-.8 0-1.7 0-2.7-.1l-8.3-.6 1.9-23.8 8 .5zm-6.4 20.5l4.8.4c1.2.1 2.1.1 2.9 0 .8-.1 1.5-.3 2-.6 1.1-.6 2-1.6 2.6-2.9.6-1.3 1-3 1.2-5 .1-1.7 0-3.3-.4-4.6-.4-1.3-1.1-2.4-2-3.1-.6-.5-1.2-.8-1.9-1-.7-.2-1.8-.4-3.1-.5l-4.7-.4-1.4 17.7z"></path></g><path fill="#9FA0A0" d="M5.62 52.39l157.158 11.827-.195 2.593L5.423 54.982z"></path><circle fill="#FFF" stroke="#C9CACA" stroke-width="2" stroke-miterlimit="10" cx="94" cy="6.1" r="5"></circle></svg>