<?xml version="1.0" standalone="no"?><!DOCTYPE svg PUBLIC "-//W3C//DTD SVG 1.1//EN" "http://www.w3.org/Graphics/SVG/1.1/DTD/svg11.dtd"><svg t="1554693332534" class="icon" style="" viewBox="0 0 1024 1024" version="1.1" xmlns="http://www.w3.org/2000/svg" p-id="35481" xmlns:xlink="http://www.w3.org/1999/xlink" width="32" height="32"><defs><style type="text/css"></style></defs><path d="M858.54 193.16c-114.4-5-223.92-43.65-325.55-115l-19.27-13.53-19.21 13.51c-101.57 71.36-211.1 110.06-324.78 115h-35.91v302.51c0 221.6 152.87 411.36 371.76 461.45l9.55 1.53 6.87-1.53C740.84 907 893.67 717.25 893.67 495.65V193.14zM722.2 397.7L478 651a15.21 15.21 0 0 1-21.43-0.85L305 489.18a15.21 15.21 0 0 1 0.85-21.43l3.87-3.58a15.22 15.22 0 0 1 21.43 0.85L468 610.3l228.81-237.55a15.2 15.2 0 0 1 21.44-0.18l3.75 3.7a15.18 15.18 0 0 1 0.2 21.43z m0 0" p-id="35482" fill="#b2b2b2"></path></svg>