<?xml version="1.0" standalone="no"?><!DOCTYPE svg PUBLIC "-//W3C//DTD SVG 1.1//EN" "http://www.w3.org/Graphics/SVG/1.1/DTD/svg11.dtd"><svg t="1555141647590" class="icon" style="" viewBox="0 0 1024 1024" version="1.1" xmlns="http://www.w3.org/2000/svg" p-id="11030" xmlns:xlink="http://www.w3.org/1999/xlink" width="32" height="32"><defs><style type="text/css"></style></defs><path d="M512 0C229.12 0 0 229.12 0 512s229.12 512 512 512 512-229.12 512-512S794.88 0 512 0zM307.2 281.6c0-7.68 5.12-12.8 12.8-12.8h384c7.68 0 12.8 5.12 12.8 12.8v38.4c0 7.68-5.12 12.8-12.8 12.8H320c-7.68 0-12.8-5.12-12.8-12.8v-38.4z m448 448c0 28.16-23.04 51.2-51.2 51.2H320c-28.16 0-51.2-23.04-51.2-51.2V597.76c7.68 2.56 16.64 3.84 25.6 3.84 14.08 0 26.88-2.56 38.4-7.68v7.68c0 28.16 23.04 51.2 51.2 51.2h256c28.16 0 51.2-23.04 51.2-51.2v-3.84c7.68 2.56 16.64 3.84 25.6 3.84 14.08 0 26.88-2.56 38.4-7.68V729.6z m-26.88-153.6c-32 0-60.16-19.2-71.68-46.08-11.52 26.88-39.68 46.08-71.68 46.08-32 0-60.16-19.2-71.68-46.08-11.52 26.88-39.68 46.08-71.68 46.08-32 0-60.16-19.2-71.68-46.08-11.52 26.88-39.68 46.08-71.68 46.08-43.52 0-78.08-34.56-78.08-76.8 0-2.56 3.84-26.88 14.08-43.52l57.6-94.72c2.56-8.96 15.36-15.36 26.88-15.36h387.84c11.52 0 24.32 6.4 29.44 15.36l57.6 94.72c12.8 19.2 14.08 40.96 14.08 43.52-1.28 42.24-35.84 76.8-79.36 76.8z" fill="#08a5ff" p-id="11031"></path></svg>