<?xml version="1.0" standalone="no"?><!DOCTYPE svg PUBLIC "-//W3C//DTD SVG 1.1//EN" "http://www.w3.org/Graphics/SVG/1.1/DTD/svg11.dtd"><svg height="32" viewBox="0 0 1024 1024" width="32" xmlns="http://www.w3.org/2000/svg"><path d="m896 0h-768c-38.4 0-64 25.6-64 64v896c0 38.4 25.6 64 64 64h768c38.4 0 64-25.6 64-64v-896c0-38.4-25.6-64-64-64zm-153.6 275.2v172.8 25.6c-12.8 108.8-108.8 198.4-230.4 198.4s-217.6-89.6-230.4-198.4v-25.6-172.8-25.6c0-25.6 19.2-44.8 44.8-44.8s44.8 19.2 44.8 44.8v6.4 211.2c12.8 64 70.4 115.2 140.8 115.2s128-51.2 134.4-115.2v-211.2s0 0 0-6.4c0-25.6 19.2-44.8 44.8-44.8s44.8 19.2 44.8 44.8v25.6z" fill="#b2b2b2"/></svg>