<?xml version="1.0" encoding="utf-8"?>
<svg version="1.1" xmlns="http://www.w3.org/2000/svg" xmlns:xlink="http://www.w3.org/1999/xlink" viewBox="0 0 1024 1024">
  <path d="M89.6 320l857.6 0 0 51.2-857.6 0 0-51.2Z"></path><path d="M838.4 582.4c0 12.8-12.8 25.6-25.6 25.6L224 608c-12.8 0-25.6-12.8-25.6-25.6l0 0c0-12.8 12.8-25.6 25.6-25.6l588.8 0C825.6 556.8 838.4 569.6 838.4 582.4L838.4 582.4z"></path><path d="M838.4 800c0 12.8-12.8 25.6-25.6 25.6L224 825.6c-12.8 0-25.6-12.8-25.6-25.6l0 0c0-12.8 12.8-25.6 25.6-25.6l588.8 0C825.6 774.4 838.4 787.2 838.4 800L838.4 800z"></path><path d="M1145.6 569.6 1145.6 569.6 1145.6 569.6 1145.6 569.6 1145.6 569.6 1145.6 569.6 1145.6 569.6 1145.6 569.6Z"></path><path d="M883.2 1004.8 153.6 1004.8c-44.8 0-83.2-38.4-83.2-83.2L70.4 179.2c0-44.8 38.4-83.2 83.2-83.2l108.8 0c12.8 0 25.6 12.8 25.6 25.6S275.2 140.8 262.4 140.8L153.6 140.8c-19.2 0-38.4 19.2-38.4 38.4l0 742.4c0 19.2 19.2 38.4 38.4 38.4l729.6 0c19.2 0 38.4-19.2 38.4-38.4L921.6 179.2c0-19.2-19.2-38.4-38.4-38.4l-108.8 0c-12.8 0-25.6-12.8-19.2-25.6 0-12.8 12.8-19.2 25.6-19.2 0 0 0 0 0 0l108.8 0c44.8 0 83.2 38.4 83.2 83.2l0 742.4C966.4 966.4 928 1004.8 883.2 1004.8z"></path><path d="M614.4 140.8l-192 0C409.6 140.8 403.2 128 403.2 115.2l0 0c0-12.8 12.8-25.6 25.6-25.6l192 0c12.8 0 25.6 12.8 25.6 25.6l0 0C633.6 128 627.2 140.8 614.4 140.8z"></path><path d="M320 192 320 38.4c0-12.8 12.8-25.6 25.6-25.6l0 0c12.8 0 25.6 12.8 25.6 25.6L371.2 192c0 12.8-12.8 25.6-25.6 25.6l0 0C332.8 211.2 320 204.8 320 192z"></path><path d="M672 192 672 38.4c0-12.8 12.8-25.6 25.6-25.6l0 0c12.8 0 25.6 12.8 25.6 25.6L723.2 192c0 12.8-12.8 25.6-25.6 25.6l0 0C678.4 211.2 672 204.8 672 192z"></path>
</svg>
