<?xml version="1.0" encoding="utf-8"?>
<svg version="1.1" xmlns="http://www.w3.org/2000/svg" xmlns:xlink="http://www.w3.org/1999/xlink" viewBox="0 0 1024 1024">
  <path d="M1004.4 548.7c-10.8-6.6-24.5-6.2-34.9 1l-91.6 63.6c-14.5 10.1-18.1 30-8 44.5 10.1 14.5 30 18.1 44.5 8l24.2-16.8C880.1 830.9 708.7 960 512 960c-113.1 0-221.2-42.3-304.2-119.1-13-12-33.2-11.2-45.2 1.8s-11.2 33.2 1.8 45.2C259.2 975.7 382.7 1024 512 1024c124.8 0 245.1-45.4 338.6-127.9 92.7-81.7 152.7-193.9 168.9-315.8 1.7-12.6-4.2-24.9-15.1-31.6zM153.2 780.3c-10.6-14.1-20.4-29-29.2-44.3-8.9-15.3-28.4-20.5-43.7-11.7-15.3 8.9-20.5 28.4-11.7 43.7 10.1 17.4 21.3 34.4 33.4 50.6 6.3 8.4 15.9 12.8 25.6 12.8 6.7 0 13.4-2.1 19.2-6.4 14.1-10.5 17-30.5 6.4-44.7zM87.9 656.9c-9.4-27.5-16.1-56.2-20-85.1-2.3-17.5-18.4-29.8-35.9-27.5-17.5 2.3-29.8 18.4-27.5 35.9 4.4 33.1 12.1 65.8 22.9 97.3 4.5 13.3 17 21.7 30.3 21.7 3.4 0 6.9-0.6 10.3-1.7 16.7-5.7 25.6-23.9 19.9-40.6zM19.5 474.5c10.7 6.6 24.4 6.4 34.8-0.7l91.7-62.3c14.6-9.9 18.4-29.8 8.5-44.5-9.9-14.6-29.8-18.4-44.5-8.5l-24.8 16.9C143.6 193.4 315.2 64 512 64c223.6 0 414.5 166.9 444 388.2 2.1 16.1 15.9 27.8 31.7 27.8 1.4 0 2.8-0.1 4.3-0.3 17.5-2.3 29.8-18.4 27.5-35.9-16.3-121.9-76.2-234-168.9-315.8C757.1 45.4 636.8 0 512 0 387.3 0 267.2 45.4 173.7 127.7 81.1 209.3 21 321.3 4.6 443c-1.7 12.5 4.2 24.9 14.9 31.5z" fill="" p-id="4148"></path><path d="M672 480.8c17.7 0 32-14.3 32-32s-14.3-32-32-32h-82.7l73.4-73.4c12.5-12.5 12.5-32.8 0-45.3s-32.8-12.5-45.3 0L512.1 403.5 405.7 296.6c-12.5-12.5-32.7-12.6-45.3-0.1-12.5 12.5-12.6 32.7-0.1 45.3l74.7 75.1h-83c-17.7 0-32 14.3-32 32s14.3 32 32 32h128v64H352c-17.7 0-32 14.3-32 32s14.3 32 32 32h128v96c0 17.7 14.3 32 32 32s32-14.3 32-32v-96h128c17.7 0 32-14.3 32-32s-14.3-32-32-32H544v-64h128z"></path>
</svg>
