<?xml version="1.0" encoding="utf-8"?>
<svg version="1.1" xmlns="http://www.w3.org/2000/svg" xmlns:xlink="http://www.w3.org/1999/xlink" viewBox="0 0 1024 1024">
  <path d="M953.6 160c12.8 0 19.2 12.8 19.2 19.2L972.8 832c0 12.8-12.8 19.2-19.2 19.2L70.4 851.2c-12.8 0-19.2-12.8-19.2-19.2L51.2 185.6c0-12.8 12.8-19.2 19.2-19.2L953.6 166.4M953.6 115.2 70.4 115.2C32 115.2 0 147.2 0 185.6L0 832c0 38.4 32 70.4 70.4 70.4l883.2 0c38.4 0 70.4-32 70.4-70.4L1024 185.6C1024 147.2 992 115.2 953.6 115.2L953.6 115.2z"></path><path d="M864 441.6l0 83.2-147.2 0L716.8 441.6 864 441.6M883.2 403.2 704 403.2c-12.8 0-25.6 12.8-25.6 25.6l0 108.8c0 12.8 12.8 25.6 25.6 25.6l179.2 0c12.8 0 25.6-12.8 25.6-25.6L908.8 422.4C902.4 409.6 896 403.2 883.2 403.2L883.2 403.2z"></path><path d="M883.2 326.4 140.8 326.4C128 326.4 121.6 320 121.6 307.2l0 0c0-12.8 12.8-25.6 25.6-25.6l742.4 0c12.8 0 25.6 12.8 25.6 25.6l0 0C902.4 320 896 326.4 883.2 326.4z"></path>
</svg>
