<?xml version="1.0" standalone="no"?><!DOCTYPE svg PUBLIC "-//W3C//DTD SVG 1.1//EN" "http://www.w3.org/Graphics/SVG/1.1/DTD/svg11.dtd"><svg t="1566931787321" class="icon" viewBox="0 0 1024 1024" version="1.1" xmlns="http://www.w3.org/2000/svg" p-id="2777" xmlns:xlink="http://www.w3.org/1999/xlink" width="48" height="48"><defs><style type="text/css"></style></defs><path d="M411.2 608a44.16 44.16 0 0 0-52.16 17.6 32 32 0 0 0 11.84 46.4 44.16 44.16 0 0 0 53.44-17.28 32 32 0 0 0-13.12-46.72z m44.16-18.24a16.64 16.64 0 0 0-19.52 7.36 11.52 11.52 0 0 0 5.12 17.28 16.64 16.64 0 0 0 20.16-7.36 11.52 11.52 0 0 0-5.44-17.6z m-28.16-120C311.68 480 224 551.68 231.04 627.52s107.52 128 224 116.8 203.84-82.24 196.48-158.08-107.52-128.32-224-116.8z m101.76 178.88a125.44 125.44 0 0 1-149.44 64 85.76 85.76 0 0 1-55.04-122.24 128 128 0 0 1 141.44-61.44 86.08 86.08 0 0 1 63.36 119.36zM512 0a512 512 0 1 0 512 512A512 512 0 0 0 512 0z m-56.32 794.88C310.08 794.88 160 724.8 160 608c0-60.48 38.4-130.24 104.32-196.16 88.32-88 192-128 229.76-89.28a79.68 79.68 0 0 1 7.68 81.6c-5.76 17.6 16.64 8 16.64 8 71.36-29.76 133.44-32 156.48 0a72.64 72.64 0 0 1 0 69.44c-5.12 12.8 0 15.04 11.52 17.92a106.24 106.24 0 0 1 84.8 96c1.6 88.96-125.12 199.36-315.52 199.36z m263.04-367.04a43.84 43.84 0 0 0-9.28-43.84 44.48 44.48 0 0 0-41.92-13.44 23.04 23.04 0 1 1-9.6-45.12 90.24 90.24 0 0 1 104.96 115.84 23.04 23.04 0 0 1-43.84-14.08z m134.72 43.2a26.88 26.88 0 0 1-51.2-16.64 131.52 131.52 0 0 0-152.96-168.96 26.88 26.88 0 1 1-11.2-52.16 185.28 185.28 0 0 1 215.36 237.76z" fill="#E73736" p-id="2778"></path></svg>