<?xml version="1.0" standalone="no"?><!DOCTYPE svg PUBLIC "-//W3C//DTD SVG 1.1//EN" "http://www.w3.org/Graphics/SVG/1.1/DTD/svg11.dtd"><svg t="1566931767020" class="icon" viewBox="0 0 1024 1024" version="1.1" xmlns="http://www.w3.org/2000/svg" p-id="2020" xmlns:xlink="http://www.w3.org/1999/xlink" width="48" height="48"><defs><style type="text/css"></style></defs><path d="M516.704599 1023.978357A511.989178 511.989178 0 1 1 1023.992786 511.989178c1.279973 281.431142-225.833772 510.639389-507.288187 511.989179z m-101.792758-767.983768c-135.770221 0-246.964962 88.481039-246.964961 200.909208a192.507931 192.507931 0 0 0 98.813911 159.554446l-24.691842 71.073407 86.316721-41.424579c28.392127 6.795493 57.36606 10.751773 86.526171 11.822295 7.70311 0 15.429492-0.349084 23.039514-0.884344a169.514963 169.514963 0 0 1-7.610021-49.54659 198.605257 198.605257 0 0 1 209.915563-186.992411c7.959105 0.023272 15.894937 0.511989 23.807496 1.396334-21.363912-94.95072-127.7413-165.698316-249.152552-165.698316v-0.232722z m240.960726 177.171528c-117.454972 0-209.98538 76.798377-209.98538 171.516375s92.530408 171.423286 209.98538 171.423286a322.32046 322.32046 0 0 0 74.122069-11.799024l67.722205 35.490159-18.547971-59.111477a178.009328 178.009328 0 0 0 86.479626-136.002944c0-94.275826-98.767367-171.074202-209.775929-171.074202v-0.442173z m67.745477 141.960636a23.667863 23.667863 0 1 1 0-47.312455 24.528936 24.528936 0 1 1 0 47.521905v-0.232722z m-135.840038 0a23.667863 23.667863 0 1 1 0-47.312455 24.528936 24.528936 0 1 1 0 47.521905v-0.232722z m-80.289212-159.647535a30.30045 30.30045 0 1 1 0-59.018389 29.602283 29.602283 0 0 1 0 59.227839v-0.232722z m-172.842892 0a30.30045 30.30045 0 1 1 0-59.018389 29.602283 29.602283 0 0 1 0 59.227839v-0.232722z" fill="#11AC36" p-id="2021"></path></svg>