<?xml version="1.0" standalone="no"?><!DOCTYPE svg PUBLIC "-//W3C//DTD SVG 1.1//EN" "http://www.w3.org/Graphics/SVG/1.1/DTD/svg11.dtd"><svg t="1564052363197" class="icon" viewBox="0 0 1024 1024" version="1.1" xmlns="http://www.w3.org/2000/svg" p-id="12295" xmlns:xlink="http://www.w3.org/1999/xlink" width="48" height="48"><defs><style type="text/css"></style></defs><path d="M512 1024C794.311111 1024 1024 794.311111 1024 511.971556 1024 229.717333 794.311111 0 512 0c-282.282667 0-512 229.717333-512 511.971556C0 794.311111 229.717333 1024 512 1024z m0-971.804444c253.525333 0 459.804444 206.250667 459.804444 459.776C971.804444 765.525333 765.525333 971.804444 512 971.804444c-253.58222199 0-459.832889-206.279111-459.832889-459.832888 0.028444-253.525333 206.279111-459.776 459.832889-459.776z" p-id="12296"></path><path d="M748.032 444.131556c0-7.424-2.958222-14.478222-8.248889-19.882667a29.070222 29.070222 0 0 0-39.879111 0l-187.847111 187.790222-189.127111-189.070222a28.871111 28.871111 0 0 0-39.907556 0 28.245333 28.245333 0 0 0 0 39.87911101l209.09511101 209.00977799a28.928 28.928 0 0 0 39.85066699 0l207.843556-207.70133399a28.245333 28.245333 0 0 0 8.220444-20.02488801z" p-id="12297"></path></svg>