<?xml version="1.0" standalone="no"?><!DOCTYPE svg PUBLIC "-//W3C//DTD SVG 1.1//EN" "http://www.w3.org/Graphics/SVG/1.1/DTD/svg11.dtd"><svg t="1564061111709" class="icon" viewBox="0 0 1024 1024" version="1.1" xmlns="http://www.w3.org/2000/svg" p-id="13156" xmlns:xlink="http://www.w3.org/1999/xlink" width="48" height="48"><defs><style type="text/css"></style></defs><path d="M 700.856 155.543 c -74.769 0 -144.295 72.698 -190.046 127.26 c -45.737 -54.576 -115.247 -127.259 -190.055 -127.26 c -134.79 0 -244.443 105.78 -244.443 235.799 c 0 77.57 39.278 131.988 70.845 175.713 c 91.753 126.998 322.463 285.039 332.235 291.702 c 9.409 6.414 20.424 9.629 31.401 9.629 c 11.005 0 21.998 -3.215 31.397 -9.629 c 9.783 -6.663 240.515 -164.703 332.239 -291.702 c 31.586 -43.724 70.873 -98.143 70.873 -175.713 c -0.001 -130.02 -109.656 -235.8 -244.445 -235.799 v 0 Z M 700.856 155.543 Z" p-id="13157"></path></svg>