<?xml version="1.0" standalone="no"?><!DOCTYPE svg PUBLIC "-//W3C//DTD SVG 1.1//EN" "http://www.w3.org/Graphics/SVG/1.1/DTD/svg11.dtd"><svg t="1564061105122" class="icon" viewBox="0 0 1024 1024" version="1.1" xmlns="http://www.w3.org/2000/svg" p-id="13029" xmlns:xlink="http://www.w3.org/1999/xlink" width="48" height="48"><defs><style type="text/css"></style></defs><path d="M508.783 927.208c-4.998 0-9.607-1.098-13.7-3.263-59.828-29.747-168.302-110.899-265.239-218.887-50.848-56.644-91.277-112.65-120.163-166.465-33.727-62.83-50.828-121.363-50.828-173.974 0-108.376 50.56-170.902 92.974-204.272 47.115-37.068 111.558-59.198 172.384-59.198 37.786 0 76.862 11.6 116.144 34.479 28.826 16.79 52.34 36.52 68.427 51.785 16.088-15.264 39.6-34.996 68.428-51.785 39.28-22.878 78.353-34.48 116.137-34.48 60.826 0 125.27 22.13 172.387 59.199 42.416 33.369 92.978 95.896 92.978 204.272 0 52.606-17.1 111.14-50.824 173.974-28.879 53.804-69.296 109.813-120.132 166.464-96.908 107.997-205.344 189.197-265.083 218.94a31.315 31.315 0 0 1-13.89 3.21zM324.213 162.07c-82.017 0-204.038 53.943-204.038 202.55 0 186.876 268.955 430.488 388.61 497.762 119.63-67.262 388.537-310.86 388.537-497.763 0-148.606-121.982-202.549-203.973-202.549-43.25 0-83.864 23.238-110.32 42.734-28.975 21.35-47.966 43.057-50.166 45.625l-0.081 0.132-0.485 0.55c-5.936 6.742-14.726 10.766-23.514 10.766-8.78 0-17.57-4.022-23.512-10.762l-0.357-0.405-0.076-0.111c-3.783-4.396-77.925-88.529-160.625-88.529z" p-id="13030"></path></svg>