<?xml version="1.0" standalone="no"?><!DOCTYPE svg PUBLIC "-//W3C//DTD SVG 1.1//EN" "http://www.w3.org/Graphics/SVG/1.1/DTD/svg11.dtd"><svg t="1564052356495" class="icon" viewBox="0 0 1024 1024" version="1.1" xmlns="http://www.w3.org/2000/svg" p-id="12167" xmlns:xlink="http://www.w3.org/1999/xlink" width="48" height="48"><defs><style type="text/css"></style></defs><path d="M512 0C229.688889 0 0 229.688889 0 512.028444 0 794.282667 229.688889 1024 512 1024c282.282667 0 512-229.717333 512-511.971556C1024 229.688889 794.282667 0 512 0z m0 971.804444c-253.525333 0-459.804444-206.250667-459.804444-459.776C52.195556 258.474667 258.474667 52.195556 512 52.195556c253.582222 0 459.832889 206.279111 459.832889 459.832888-0.028444 253.525333-206.279111 459.776-459.832889 459.776z" p-id="12168"></path><path d="M275.968 579.868444c0 7.424 2.958222 14.478222 8.248889 19.882667a29.070222 29.070222 0 0 0 39.879111 0l187.847111-187.790222 189.127111 189.070222a28.871111 28.871111 0 0 0 39.907556 0 28.245333 28.245333 0 0 0 0-39.879111l-209.095111-209.009778a28.928 28.928 0 0 0-39.850667 0l-207.843556 207.701334a28.245333 28.245333 0 0 0-8.220444 20.024888z" p-id="12169"></path></svg>