<?xml version="1.0" standalone="no"?><!DOCTYPE svg PUBLIC "-//W3C//DTD SVG 1.1//EN" "http://www.w3.org/Graphics/SVG/1.1/DTD/svg11.dtd"><svg t="1554864745390" class="icon" style="" viewBox="0 0 1024 1024" version="1.1" xmlns="http://www.w3.org/2000/svg" p-id="9384" xmlns:xlink="http://www.w3.org/1999/xlink" width="200" height="200"><defs><style type="text/css"></style></defs><path d="M512.38564295 769.46385579c188.35570688 0 443.84474453-192.48942649 461.60063147-245.40523179-6.92875719-57.9711067-247.38471026-267.61873181-461.60063147-267.61873181-203.77326933 0-461.72063517 166.98805817-461.74510194 268.89566436C56.00109454 575.54137543 303.53377053 769.46385579 512.38564295 769.46385579M512.38564295 820.79165099C298.40856405 820.79165099-0.63715555 619.40447459-0.63715555 525.77712355c0-148.36651349 300.83412423-320.66619165 513.0227985-320.66619164 232.19666944 0 513.02978901 225.65705045 513.02978902 320.66619164C1025.41543197 604.83509362 718.46694457 820.79165099 512.38564295 820.79165099L512.38564295 820.79165099 512.38564295 820.79165099 512.38564295 820.79165099zM512.38564295 820.79165099" p-id="9385"></path><path d="M512.38564295 641.20786489c70.69499392 0 128.26065123-57.56449223 128.26065124-128.26065124 0-70.69149867-57.56565731-128.25249565-128.26065124-128.25249564-70.69382883 0-128.25482581 57.56099698-128.25482581 128.25249564C384.13081714 583.64337266 441.69181411 641.20786489 512.38564295 641.20786489M512.38564295 692.53566009c-99.19295943 0-179.5837861-80.39548701-179.5837861-179.58844644 0-99.18946418 80.39082667-179.58145593 179.5837861-179.58145592 99.19878485 0 179.58728135 80.39082667 179.58728135 179.58145592C691.9729243 612.14017309 611.58442781 692.53566009 512.38564295 692.53566009L512.38564295 692.53566009 512.38564295 692.53566009 512.38564295 692.53566009zM512.38564295 692.53566009" p-id="9386"></path></svg>