<?xml version="1.0" standalone="no"?><!DOCTYPE svg PUBLIC "-//W3C//DTD SVG 1.1//EN" "http://www.w3.org/Graphics/SVG/1.1/DTD/svg11.dtd"><svg t="1554878152987" class="icon" style="" viewBox="0 0 1024 1024" version="1.1" xmlns="http://www.w3.org/2000/svg" p-id="10350" xmlns:xlink="http://www.w3.org/1999/xlink" width="200" height="200"><defs><style type="text/css"></style></defs><path d="M423.6 264.6l-85.5-148.2c-12.5-21.7-39.5-32-62.3-21.8-26.2 11.8-36 43.5-22 67.8l86.7 150.1c13.1 22.8 42.2 30.5 65 17.3 0.3-0.2 0.6-0.3 0.8-0.5 22.7-12.9 30.4-42 17.3-64.7z" fill="#737373" p-id="10351"></path><path d="M767.8 860.8l-85.5-148.2c-13.1-22.8-42.2-30.5-65-17.3-0.3 0.2-0.6 0.3-0.8 0.5-22.7 13.1-30.4 42.1-17.3 64.8l86.7 150.1c14 24.3 46.4 31.7 69.7 14.9 20.2-14.6 24.7-43.1 12.2-64.8z" fill="#bfbfbf" p-id="10352"></path><path d="M311.4 341.7l-148.2-85.5c-21.7-12.5-50.2-8-64.9 12.3-16.8 23.3-9.4 55.7 14.9 69.7l150.1 86.7c22.7 13.1 51.7 5.4 64.8-17.3 0.2-0.3 0.3-0.6 0.5-0.8 13.3-22.8 5.5-51.9-17.2-65.1z" fill="#808080" p-id="10353"></path><path d="M907.5 685.9l-148.2-85.5c-22.7-13.1-51.7-5.4-64.8 17.3-0.2 0.3-0.3 0.6-0.5 0.8-13.2 22.7-5.5 51.8 17.3 65l150.1 86.7c24.3 14 56 4.2 67.8-22 10.4-22.8 0-49.8-21.7-62.3z" fill="#cccccc" p-id="10354"></path><path d="M300.2 512.6v-0.5c0.1-26.1-20.3-47.5-46.4-47.5H81.6c-25 0-47.5 18.2-50 43.1-2.9 28.6 19.7 52.9 47.8 52.9h174.4c26.1 0 46.5-21.4 46.4-47.5v-0.5z" fill="#8c8c8c" p-id="10355"></path><path d="M941.1 464.6H768.9c-26.1 0-46.5 21.4-46.4 47.5v1c-0.1 26.1 20.3 47.5 46.4 47.5h174.4c28 0 50.6-24.3 47.8-52.9-2.5-24.9-25-43.1-50-43.1z" fill="#404040" p-id="10356"></path><path d="M263.4 600.4l-148.2 85.5c-21.7 12.5-32 39.5-21.8 62.3 11.8 26.2 43.5 36 67.8 22l150.1-86.7c22.8-13.1 30.5-42.2 17.3-65-0.2-0.3-0.3-0.6-0.5-0.8-13-22.7-42-30.4-64.7-17.3z" fill="#999999" p-id="10357"></path><path d="M924.4 268.5c-14.6-20.3-43.2-24.8-64.9-12.3l-148.2 85.5c-22.8 13.1-30.5 42.2-17.3 65 0.2 0.3 0.3 0.6 0.5 0.8 13.1 22.7 42.1 30.4 64.8 17.3l150.1-86.7c24.4-13.9 31.8-46.3 15-69.6z" fill="#4d4d4d" p-id="10358"></path><path d="M340.5 712.6L255 860.8c-12.5 21.7-8 50.2 12.3 64.8 23.3 16.8 55.7 9.4 69.7-14.9l86.7-150.1c13.1-22.7 5.4-51.7-17.3-64.8-0.3-0.2-0.6-0.3-0.8-0.5-22.9-13.2-52-5.5-65.1 17.3z" fill="#a6a6a6" p-id="10359"></path><path d="M747 94.7c-22.8-10.3-49.8 0.1-62.3 21.8l-85.5 148.2c-13.1 22.7-5.4 51.7 17.3 64.8 0.3 0.2 0.6 0.3 0.8 0.5 22.7 13.2 51.8 5.5 65-17.3L769 162.6c13.9-24.4 4.2-56.1-22-67.9z" fill="#595959" p-id="10360"></path><path d="M511.4 301.4h0.5c26.1 0.1 47.5-20.3 47.5-46.4V80.6c0-26.4-21.6-48-48-48s-48 21.6-48 48V255c0 26.1 21.4 46.5 47.5 46.4h0.5z" fill="#666666" p-id="10361"></path><path d="M511.4 723.8h-0.5c-26.1-0.1-47.5 20.3-47.5 46.4v174.4c0 26.4 21.6 48 48 48s48-21.6 48-48V770.2c0-26.1-21.4-46.5-47.5-46.4h-0.5z" fill="#b3b3b3" p-id="10362"></path></svg>