<?xml version="1.0" standalone="no"?><!DOCTYPE svg PUBLIC "-//W3C//DTD SVG 1.1//EN" "http://www.w3.org/Graphics/SVG/1.1/DTD/svg11.dtd"><svg t="1554715409774" class="icon" style="" viewBox="0 0 1080 1024" version="1.1" xmlns="http://www.w3.org/2000/svg" p-id="2753" xmlns:xlink="http://www.w3.org/1999/xlink" width="210.9375" height="200"><defs><style type="text/css"></style></defs><path d="M1077.529145 388.206248C1072.06379 371.533456 1056.511742 360.326019 1039.008769 360.326019L686.956883 360.326019 578.161726 27.824884C572.876243 11.207437 557.37954 0 539.765877 0 522.262904 0 506.710856 11.207437 501.370028 27.700357L392.450343 360.326019 40.467639 360.326019C22.909321 360.326019 7.398781 371.533456 2.002608 388.206248-3.462747 404.713004 2.528389 422.963139 16.682967 433.119014L301.504067 638.533348 192.764255 971.214355C187.243555 987.776457 193.234691 1005.860556 207.444614 1016.127121 221.474665 1026.338342 240.845544 1026.338342 254.944776 1016.127121L539.765877 810.588261 824.642322 1016.127121C831.629675 1021.191223 839.972989 1023.820128 848.371649 1023.820128 856.701127 1023.820128 865.099787 1021.191223 872.142485 1016.127121 886.297062 1005.860556 892.288199 987.776457 886.767498 971.214355L778.138377 638.533348 1062.793441 433.119014C1076.934183 422.963139 1082.869974 404.713004 1077.529145 388.206248Z" p-id="2754"></path></svg>