<?xml version="1.0" standalone="no"?>
<svg viewBox="0 0 1024 1024" version="1.1" xmlns="http://www.w3.org/2000/svg" xmlns:xlink="http://www.w3.org/1999/xlink">
  <path d="M896 0l-768 0c-70.4 0-128 57.6-128 128l0 768c0 70.4 57.6 128 128 128l768 0c70.4 0 128-57.6 128-128L1024 128C1024 57.6 966.4 0 896 0zM655.5392 754.52928c-35.3536 28.28288-87.68 43.13088-150.60992 43.13088-79.19616 0-155.56096-24.04352-196.57216-47.37536l21.21216-132.224c48.08192 28.28288 121.62048 50.2016 166.16448 50.2016 36.06016 0 55.8592-13.43488 55.8592-36.76672 0-24.0384-20.5056-39.59808-82.0224-61.5168-95.45728-34.64704-154.14272-75.65824-154.14272-171.82208 0-53.03296 19.09248-96.8704 55.8592-127.27808 35.3536-28.98944 84.84864-44.54912 144.24576-44.54912 84.14208 0 144.95232 23.33184 174.65344 37.4784l-21.21216 130.81088c-37.47328-18.38592-91.91936-38.89152-144.95232-38.89152-28.98944 0-45.25568 11.3152-45.25568 31.11424 0 23.33184 28.28288 38.18496 79.90272 57.27232 96.8704 34.64704 156.97408 75.65824 156.97408 173.94176C715.64288 677.45792 695.13728 723.42016 655.5392 754.52928z"></path>
</svg>
