<?xml version="1.0" standalone="no"?><!DOCTYPE svg PUBLIC "-//W3C//DTD SVG 1.1//EN" "http://www.w3.org/Graphics/SVG/1.1/DTD/svg11.dtd"><svg viewBox="0 0 1024 1024" version="1.1" xmlns="http://www.w3.org/2000/svg" xmlns:xlink="http://www.w3.org/1999/xlink"><path d="M915.2 825.6 915.2 825.6l-307.2-166.4c0 0-57.6 76.8-115.2 108.8-57.6 32-128 51.2-198.4 32-70.4-19.2-121.6-76.8-115.2-172.8 6.4-102.4 102.4-134.4 179.2-134.4 76.8 0 217.6 57.6 217.6 57.6S582.4 512 588.8 473.6c12.8-38.4 12.8-64 12.8-64L300.8 409.6 300.8 377.6 448 377.6 448 307.2l-185.6 0L262.4 262.4 448 262.4 448 160l96 0 0 102.4 198.4 0 0 44.8-198.4 0 0 64 166.4 0c0 0 0 38.4-25.6 102.4-19.2 64-38.4 96-38.4 96l0 0 377.6 147.2L1024 128c0-70.4-57.6-128-128-128L128 0C57.6 0 0 57.6 0 128l0 768c0 70.4 57.6 128 128 128l768 0c70.4 0 128-57.6 128-128l0-12.8"></path><path d="M204.8 640c0 44.8 25.6 102.4 128 102.4 108.8 0 198.4-128 198.4-128S409.6 531.2 313.6 544C224 550.4 204.8 595.2 204.8 640z"></path></svg>
