<?xml version="1.0" standalone="no"?><!DOCTYPE svg PUBLIC "-//W3C//DTD SVG 1.1//EN" "http://www.w3.org/Graphics/SVG/1.1/DTD/svg11.dtd"><svg viewBox="0 0 1024 1024" version="1.1" xmlns="http://www.w3.org/2000/svg" xmlns:xlink="http://www.w3.org/1999/xlink"><path d="M697.6 320c0-12.8-12.8-25.6-25.6-25.6L236.8 294.4C224 300.8 217.6 307.2 217.6 320l0 300.8c0 12.8 12.8 25.6 25.6 25.6l25.6 0L268.8 377.6c0-12.8 12.8-25.6 25.6-25.6l409.6 0C697.6 352 697.6 339.2 697.6 320z"></path><path d="M697.6 435.2l-6.4 0L339.2 435.2C320 435.2 313.6 448 313.6 460.8l0 38.4c0 12.8 12.8 25.6 25.6 25.6l352 0 6.4 0 51.2 0 12.8 0 32 0c12.8 0 25.6-12.8 25.6-25.6L819.2 460.8c0-12.8-12.8-25.6-25.6-25.6l-32 0-12.8 0L697.6 435.2z"></path><path d="M1024 128c0-70.4-57.6-128-128-128L128 0C57.6 0 0 57.6 0 128l0 768c0 70.4 57.6 128 128 128l768 0c70.4 0 128-57.6 128-128L1024 128zM832 352c12.8 0 25.6 12.8 25.6 25.6l0 364.8c0 12.8-12.8 25.6-25.6 25.6L288 768c-12.8 0-25.6-12.8-25.6-25.6l0-44.8L192 697.6c-12.8 0-25.6-12.8-25.6-25.6L166.4 275.2c0-12.8 12.8-25.6 25.6-25.6l531.2 0c12.8 0 25.6 12.8 25.6 25.6l0 76.8L832 352z"></path></svg>
