<?xml version="1.0" standalone="no"?><!DOCTYPE svg PUBLIC "-//W3C//DTD SVG 1.1//EN" "http://www.w3.org/Graphics/SVG/1.1/DTD/svg11.dtd"><svg viewBox="0 0 1024 1024" version="1.1" xmlns="http://www.w3.org/2000/svg" xmlns:xlink="http://www.w3.org/1999/xlink"><path d="M1024 128c0-70.4-57.6-128-128-128L128 0C57.6 0 0 57.6 0 128l0 768c0 70.4 57.6 128 128 128l768 0c70.4 0 128-57.6 128-128L1024 128zM512 851.2c-153.6 0-281.6-128-281.6-288 0-96 44.8-172.8 108.8-224C358.4 320 358.4 320 364.8 307.2c0 0-108.8-32-121.6-128C268.8 185.6 384 243.2 640 172.8c19.2 0 108.8-12.8 102.4 83.2-19.2 6.4-83.2 6.4-147.2 32C518.4 320 428.8 364.8 364.8 460.8c-19.2 32-32 64-32 102.4 0 102.4 83.2 185.6 179.2 185.6 102.4 0 179.2-83.2 179.2-185.6 0-89.6-64-166.4-140.8-179.2 6.4 0 6.4-6.4 6.4-6.4 179.2-51.2 230.4 128 230.4 128 6.4 19.2 6.4 38.4 6.4 57.6C793.6 716.8 665.6 851.2 512 851.2zM595.2 563.2 512 652.8 428.8 563.2 512 473.6 595.2 563.2z"></path></svg>
