<?xml version="1.0" standalone="no"?><!DOCTYPE svg PUBLIC "-//W3C//DTD SVG 1.1//EN" "http://www.w3.org/Graphics/SVG/1.1/DTD/svg11.dtd"><svg viewBox="0 0 1024 1024" version="1.1" xmlns="http://www.w3.org/2000/svg" xmlns:xlink="http://www.w3.org/1999/xlink"><path d="M896 0 128 0C57.6 0 0 57.6 0 128l0 768c0 70.4 57.6 128 128 128l768 0c70.4 0 128-57.6 128-128L1024 128C1024 57.6 966.4 0 896 0zM512 787.2c-44.8 0-83.2-6.4-121.6-19.2-25.6 12.8-64 44.8-76.8 51.2-25.6 12.8-19.2-12.8-19.2-12.8l12.8-76.8c-76.8-51.2-121.6-134.4-121.6-224 0-160 147.2-288 326.4-288 108.8 0 211.2 51.2 268.8 121.6l-320 147.2c0 0-25.6 12.8-51.2-6.4C384 460.8 358.4 441.6 358.4 441.6S320 409.6 339.2 460.8L390.4 576c0 0 6.4 32 44.8 12.8C467.2 576 704 428.8 806.4 371.2c19.2 38.4 32 83.2 32 128C838.4 652.8 691.2 787.2 512 787.2z"></path></svg>
