<?xml version="1.0" standalone="no"?><!DOCTYPE svg PUBLIC "-//W3C//DTD SVG 1.1//EN" "http://www.w3.org/Graphics/SVG/1.1/DTD/svg11.dtd"><svg viewBox="0 0 1024 1024" version="1.1" xmlns="http://www.w3.org/2000/svg" xmlns:xlink="http://www.w3.org/1999/xlink"><path d="M896 0 128 0C57.6 0 0 57.6 0 128l0 768c0 70.4 57.6 128 128 128l768 0c70.4 0 128-57.6 128-128L1024 128C1024 57.6 966.4 0 896 0zM454.4 780.8c0 0-102.4-12.8-134.4-83.2-25.6 25.6-57.6 70.4-172.8 83.2l6.4-70.4c0 0 115.2 6.4 134.4-128C313.6 390.4 320 364.8 320 364.8l76.8 0L364.8 582.4 364.8 608c0 0-12.8 96 96 102.4L454.4 780.8zM396.8 640 448 313.6l-153.6 0L243.2 640 166.4 640c0 0 12.8-89.6 44.8-332.8 19.2-64 76.8-64 76.8-64l243.2 0L480 640 396.8 640zM486.4 768c12.8-64 12.8-76.8 12.8-76.8s25.6 6.4 44.8-44.8l89.6-262.4 83.2 0-102.4 275.2C614.4 665.6 588.8 774.4 486.4 768zM864 358.4l-38.4 0-44.8 352c0 0-6.4 57.6-57.6 57.6L620.8 768c0 0 108.8-140.8 134.4-268.8 25.6-102.4-19.2-147.2-19.2-147.2l-192 0 38.4-70.4 160 0 6.4-44.8 89.6 0-6.4 44.8 38.4 0L864 358.4z"></path></svg>
