<?xml version="1.0" standalone="no"?><!DOCTYPE svg PUBLIC "-//W3C//DTD SVG 1.1//EN" "http://www.w3.org/Graphics/SVG/1.1/DTD/svg11.dtd"><svg viewBox="0 0 1024 1024" version="1.1" xmlns="http://www.w3.org/2000/svg" xmlns:xlink="http://www.w3.org/1999/xlink"><path d="M652.8 428.8 614.4 428.8l-12.8 128 70.4 0L678.4 448C678.4 435.2 672 428.8 652.8 428.8z"></path><path d="M896 0 128 0C57.6 0 0 57.6 0 128l0 768c0 70.4 57.6 128 128 128l768 0c70.4 0 128-57.6 128-128L1024 128C1024 57.6 966.4 0 896 0zM249.6 800l19.2-198.4-89.6 0C147.2 601.6 128 582.4 134.4 550.4l6.4-64c0 0 0-51.2 12.8-102.4C160 326.4 192 211.2 364.8 211.2l185.6 0 6.4 0 19.2 0 0 6.4c0 6.4-6.4 12.8-19.2 12.8L550.4 230.4l0 0L384 230.4c-121.6 0-140.8 108.8-147.2 160C224 441.6 224 486.4 224 486.4L217.6 544c0 0 0 12.8 12.8 12.8l38.4 0 19.2-249.6 76.8 0c6.4 0 12.8 6.4 12.8 12.8l-38.4 486.4L249.6 806.4zM806.4 800c-38.4 0-121.6-19.2-140.8-102.4-6.4-32 0-76.8 0-76.8l96 0-6.4 57.6c-6.4 64 38.4 83.2 51.2 89.6L806.4 800zM889.6 601.6 832 601.6 588.8 601.6c-44.8 108.8-179.2 198.4-224 198.4l0-32c38.4-19.2 102.4-89.6 128-166.4L377.6 601.6 384 556.8l121.6 0 12.8-128L396.8 428.8l6.4-51.2 121.6 0 6.4-76.8 83.2 0c6.4 0 12.8 6.4 12.8 12.8l-6.4 64 108.8 0c32 0 51.2 19.2 51.2 44.8L768 556.8 832 556.8l57.6 0L889.6 601.6z"></path></svg>
