<?xml version="1.0" standalone="no"?>
<svg viewBox="0 0 1024 1024" version="1.1" xmlns="http://www.w3.org/2000/svg" xmlns:xlink="http://www.w3.org/1999/xlink">
  <path d="M907.636364 0 116.363636 0C52.363636 0 0 52.363636 0 116.363636l0 791.272727c0 64 52.363636 116.363636 116.363636 116.363636l791.272727 0c64 0 116.363636-52.363636 116.363636-116.363636L1024 116.363636C1024 52.363636 971.636364 0 907.636364 0zM358.4 748.218182l-102.4 0c-4.654545 0-9.309091-2.327273-12.8-5.818182-3.490909-3.490909-4.654545-8.145455-3.490909-12.8l83.781818-514.327273c1.163636-6.981818 4.654545-12.8 9.309091-16.290909 4.654545-4.654545 11.636364-6.981818 17.454545-6.981818L558.545455 192c8.145455 0 18.618182 1.163636 33.745455 4.654545 15.127273 3.490909 27.927273 6.981818 38.4 11.636364 24.436364 9.309091 43.054545 23.272727 57.018182 43.054545 12.8 18.618182 19.781818 41.890909 19.781818 67.490909l0 0c0 24.436364-5.818182 52.363636-16.290909 81.454545-18.618182 53.527273-53.527273 90.763636-104.727273 109.381818-25.6 9.309091-54.690909 13.963636-87.272727 15.127273 0 0-10.472727 0-31.418182 0l-31.418182 0c-23.272727 0-37.236364 11.636364-40.727273 33.745455 0 2.327273-13.963636 66.327273-32.581818 187.345455C363.054545 747.054545 361.890909 748.218182 358.4 748.218182zM779.636364 501.527273c-19.781818 102.4-84.945455 153.6-195.490909 153.6l-15.127273 0c-5.818182 0-10.472727 2.327273-15.127273 5.818182-4.654545 3.490909-6.981818 9.309091-8.145455 15.127273l-1.163636 6.981818-22.109091 123.345455-1.163636 4.654545c-1.163636 5.818182-3.490909 10.472727-8.145455 15.127273-4.654545 3.490909-9.309091 5.818182-15.127273 5.818182l-87.272727 0c-4.654545 0-8.145455-1.163636-11.636364-4.654545C395.636364 823.854545 394.472727 819.2 395.636364 814.545455c2.327273-12.8 4.654545-32.581818 9.309091-58.181818 3.490909-25.6 17.454545-94.254545 22.109091-119.854545 4.654545-25.6 6.981818-45.381818 9.309091-58.181818 1.163636-8.145455 5.818182-12.8 15.127273-12.8l45.381818 0c30.254545 0 58.181818-2.327273 81.454545-6.981818 40.727273-9.309091 73.309091-25.6 98.909091-50.036364 23.272727-22.109091 41.890909-50.036364 53.527273-84.945455 5.818182-16.290909 9.309091-31.418182 11.636364-46.545455 0-1.163636 0-2.327273 1.163636-2.327273 0 0 1.163636 0 1.163636 0s1.163636 0 2.327273 1.163636c18.618182 13.963636 29.090909 32.581818 33.745455 55.854545l0 0C785.454545 450.327273 785.454545 473.6 779.636364 501.527273z"></path>
</svg>
