<svg viewBox="0 0 1024 1024" version="1.1" xmlns="http://www.w3.org/2000/svg" xmlns:xlink="http://www.w3.org/1999/xlink"><path d="M765.685 449.358c8.568 0 16.8 1.689 24.688 5.073 7.894 3.382 14.659 7.894 20.296 13.529 5.635 5.638 10.145 12.402 13.529 20.297 3.383 7.894 5.074 16.122 5.074 24.689 0 9.021-1.69 17.363-5.074 25.032s-7.894 14.319-13.529 19.954c-5.638 5.638-12.403 10.148-20.296 13.533-7.891 3.382-16.122 5.074-24.688 5.074h-190.094v190.094c0 9.021-1.694 17.361-5.074 25.028-3.382 7.667-7.894 14.319-13.533 19.958-5.635 5.635-12.399 10.145-20.294 13.529s-16.123 5.074-24.693 5.074c-9.021 0-17.361-1.69-25.028-5.074-7.669-3.383-14.319-7.894-19.958-13.529-5.636-5.638-10.146-12.291-13.529-19.958-3.383-7.667-5.074-16.010-5.074-25.028v-190.095h-190.094c-9.021 0-17.362-1.694-25.028-5.074-7.667-3.383-14.319-7.894-19.958-13.533-5.635-5.635-10.148-12.287-13.528-19.955-3.383-7.667-5.074-16.009-5.074-25.031 0-8.568 1.69-16.797 5.074-24.689 3.381-7.894 7.892-14.659 13.528-20.297 5.638-5.635 12.291-10.145 19.958-13.529 7.667-3.383 16.010-5.073 25.028-5.073h190.094v-190.095c0-8.568 1.69-16.799 5.074-24.688 3.382-7.894 7.892-14.659 13.529-20.296 5.638-5.635 12.29-10.147 19.958-13.529 7.667-3.383 16.009-5.074 25.028-5.074 17.591 0 32.587 6.2 44.987 18.603 12.403 12.402 18.607 27.399 18.607 44.987v190.095h190.094zM765.685 449.358z"></path></svg>