<?xml version="1.0" standalone="no"?>
<svg viewBox="0 0 1170 1024" version="1.1" xmlns="http://www.w3.org/2000/svg" xmlns:xlink="http://www.w3.org/1999/xlink">
  <path d="M1018.368 356.425143c12.361143 22.820571-14.701714-40.448-62.610286-40.448l-741.229714 0.292571c-27.648 0-46.811429 13.677714-62.902857 38.838857C135.533714 380.342857 0 589.385143 0 633.636571v284.086858a80.457143 80.457143 0 0 0 80.676571 80.164571h1008.64a80.457143 80.457143 0 0 0 80.676572-80.164571V633.636571c0-44.251429-151.625143-277.211429-151.625143-277.211428s-21.723429-40.448 0 0z m-264.777143 255.268571a37.595429 37.595429 0 0 0-38.253714 28.013715c0 2.048 0.292571 4.096 0.292571 6.144a131.145143 131.145143 0 0 1-262.363428 0c0-2.633143 0.292571-5.193143 0.438857-7.826286-9.362286-26.185143-37.302857-26.331429-37.302857-26.331429H69.924571L187.245714 395.629714s21.504-38.765714 51.785143-37.595428h698.806857c24.356571 0 28.525714 8.777143 46.08 37.595428l119.222857 216.210286h-349.476571zM332.434286 202.386286L243.273143 117.76a23.844571 23.844571 0 1 1 32.914286-34.596571l89.088 84.626285a23.844571 23.844571 0 0 1-32.841143 34.596572M578.048 165.010286a23.771429 23.771429 0 0 1-7.387429-16.676572L567.442286 25.453714a23.844571 23.844571 0 0 1 47.762285-1.243428l3.145143 122.88a23.844571 23.844571 0 0 1-40.228571 17.92M809.252571 197.997714a23.844571 23.844571 0 0 1-0.877714-33.718857l84.626286-89.234286a23.844571 23.844571 0 0 1 34.596571 32.914286l-84.626285 89.161143a23.844571 23.844571 0 0 1-33.718858 0.877714"></path>
</svg>