<?xml version="1.0" standalone="no"?><!DOCTYPE svg PUBLIC "-//W3C//DTD SVG 1.1//EN" "http://www.w3.org/Graphics/SVG/1.1/DTD/svg11.dtd"><svg viewBox="0 0 1024 1024" version="1.1" xmlns="http://www.w3.org/2000/svg" xmlns:xlink="http://www.w3.org/1999/xlink"><path d="M851.3685 188.4422l-50.274-50.2779c-38.2537-38.2561-100.2802-38.2561-138.5369 0l-36.2439 36.2434 188.8159 188.813 36.239-36.2364C889.6232 288.7182 889.6232 226.6913 851.3685 188.4422zM324.6855 663.9638v-50.87150911681879l-68.5364-68.5295-4.9798 4.9806c-15.768 15.7643-25.0201 35.5699-27.7903 56.083l-14.5278 49.6463-9.9317 5.913-35.1716 165.0941 186.7602-32.6888 9.508-17.9268 60.2967-18.9541 1.1223-3.8244c6.6008-4.0023 12.8398-8.834 18.5422-14.5361l4.9888-4.9886L375.5611 663.9638H324.685500021986zM283.6686 517.0424l41.0159 41.0122v-0.37174795488658685h32.65423190850618v73.61808693705667h73.61518074504616v32.66185526213227h-0.3497775414836164l41.8824 41.8776 321.2867-321.2652L604.9513 195.7693 283.6686 517.0424z"></path></svg>
