<?xml version="1.0" standalone="no"?><!DOCTYPE svg PUBLIC "-//W3C//DTD SVG 1.1//EN" "http://www.w3.org/Graphics/SVG/1.1/DTD/svg11.dtd"><svg viewBox="0 0 180 180" version="1.1" xmlns="http://www.w3.org/2000/svg" xmlns:xlink="http://www.w3.org/1999/xlink">
<g>
  <path d="M90,148.3c-2.9,0-5.5-1.4-7.4-4l-34.1-43.6c-0.3-0.4-0.6-0.9-0.8-1.3l-0.1-0.2
    c-6-8.8-9.2-19.1-9.2-29.8C38.4,40.5,61.5,17,90,17c28.4,0,51.6,23.5,51.6,52.4c0,10.7-3.2,21-9.2,29.8c-0.3,0.5-0.5,1-0.9,1.4
    l-34.1,43.7C95.5,146.9,92.9,148.3,90,148.3z M90,20c-26.8,0-48.6,22.2-48.6,49.4c0,10.1,3,19.8,8.7,28.1l0.2,0.3
    c0.2,0.4,0.4,0.7,0.6,0.9L85,142.5c1.4,1.8,3.1,2.8,5,2.8c1.9,0,3.7-1,5-2.8l34.1-43.7c0.2-0.3,0.4-0.7,0.7-1l0.1-0.2
    c5.7-8.3,8.7-18.1,8.7-28.2C138.6,42.2,116.8,20,90,20z M90,91.3c-11.9,0-21.5-9.8-21.5-21.9c0-12.1,9.7-21.9,21.5-21.9
    s21.5,9.8,21.5,21.9C111.5,81.5,101.9,91.3,90,91.3z M90,50.5c-10.2,0-18.5,8.5-18.5,18.9c0,10.4,8.3,18.9,18.5,18.9
    s18.5-8.5,18.5-18.9C108.5,59,100.2,50.5,90,50.5z" />
</g>
<g>
  <path d="M153.8,163.6H26.2c-4.1,0-7.5-3.4-7.5-7.5v-0.2l0.1-0.2l18.3-54.3c0.2-0.6,0.8-0.9,1.4-0.7
    c0.6,0.2,0.9,0.8,0.7,1.4l-18.2,54.2c0.1,2.9,2.4,5.2,5.3,5.2h127.5c2.9,0,5.2-2.3,5.3-5.2l-18.2-54.2c-0.2-0.6,0.1-1.2,0.7-1.4
    c0.6-0.2,1.2,0.1,1.4,0.7l18.3,54.5v0.2C161.3,160.2,157.9,163.6,153.8,163.6z" />
</g>
</svg>
