<?xml version="1.0" standalone="no"?><!DOCTYPE svg PUBLIC "-//W3C//DTD SVG 1.1//EN" "http://www.w3.org/Graphics/SVG/1.1/DTD/svg11.dtd"><svg viewBox="0 0 1024 1024" version="1.1" xmlns="http://www.w3.org/2000/svg" xmlns:xlink="http://www.w3.org/1999/xlink"><path d="M844.74299 181.592788C803.963734 126.424573 754.373522 83.525287 697.345568 54.085698 640.939149 24.968431 579.61032 10.204849 515.064348 10.204849c-47.711012 0-96.275875 8.211315-144.344482 24.405279C291.119614 61.3714 223.29082 112.992852 174.565404 183.896481c-48.695008 70.858625-73.754662 154.34499-72.473886 241.454746-2.359643 88.149701 26.768571 170.733564 89.050988 252.453846 55.439452 72.633223 113.800482 144.87601 170.238525 214.740909 16.578318 20.522814 33.721004 41.742574 50.532853 62.657041 31.659357 39.344009 64.947354 59.292725 98.940812 59.292725 32.688356 0 64.683415-18.504954 95.100918-55.005229 73.772906-88.835701 159.078873-192.34376 237.887306-296.59012 50.515825-66.976161 78.286636-152.491333 78.197845-240.789424C921.953191 334.414957 894.50227 248.998306 844.74299 181.592788zM468.485722 926.940821c-14.663844-18.138845-29.372692-36.249714-44.085189-54.363017C357.727233 790.486548 288.784297 705.600209 225.228403 619.139964c-33.114065-44.866061-70.906061-114.836779-62.894221-193.393436l0.021894-0.43179c0-155.15627 92.882367-287.189253 236.628424-336.368352 36.282555-12.401506 74.089147-18.689834 112.370101-18.689834 106.924677 0 209.88418 50.340676 275.411714 134.658998 98.382525 126.807711 101.274912 287.844844 7.550858 420.264614-54.040694 76.170255-114.60568 149.899374-173.175916 221.201953-20.436456 24.878424-41.568642 50.603399-62.116999 76.058354-15.798663 19.377049-32.524154 29.617171-48.372685 29.617171 0 0-0.003649 0-0.004865 0C496.078951 952.056425 481.895549 943.60793 468.485722 926.940821z"></path><path d="M640.029348 548.562306c34.827847-35.04435 53.840003-81.543917 53.533492-130.933438-0.634914-100.579183-81.822452-176.427115-188.846866-176.427115l-1.077651 0.002433c-97.844916 0.510851-171.628769 77.303857-171.628769 178.63472 0.093656 49.777524 18.082894 95.653123 50.652052 129.175869 32.578888 33.531259 77.538605 52.440029 126.610669 53.242794 0.803982 0.010947 1.600665 0.015812 2.404647 0.015812C560.025281 602.274596 605.607749 583.199192 640.029348 548.562306zM598.97399 336.719866c21.675877 22.355795 33.246643 53.258606 32.580104 87.018532-1.204148 65.688088-53.489705 117.140472-119.031836 117.135607l-0.673836-0.002433c-32.966891-0.231099-63.344256-12.99385-85.534633-35.932257-22.428773-23.186535-34.297535-54.432346-33.420575-87.98185 1.784328-65.986084 52.386511-115.74658 117.70484-115.74658 0.509634 0 1.033864 0.002433 1.547147 0.00973C546.308943 301.600105 577.146074 314.208384 598.97399 336.719866z"></path></svg>
