<svg xmlns="http://www.w3.org/2000/svg" width="38" height="36" viewBox="0 0 38 36">
  <defs>
    <style>
      .cls-1 {
        fill: #383838;
        fill-rule: evenodd;
      }
    </style>
  </defs>
  <path id="形状_10_拷贝_10" data-name="形状 10 拷贝 10" class="cls-1" d="M2450,1601.93a2.334,2.334,0,0,0-2-1.93h-28l-0.95-3.49a1.922,1.922,0,0,0-.16-0.42,1.549,1.549,0,0,0-1.47-1.09h-3.88a1.565,1.565,0,0,0,0,3.13h2.68l4.95,23.53a2.009,2.009,0,0,0,1.83,1.3l20,0.04a1.712,1.712,0,0,0,1.69-1.6,1.557,1.557,0,0,0-1.69-1.4h-19l-0.89-4.18h20.9a1.488,1.488,0,0,0,.97-0.34,1.61,1.61,0,0,0,.58-0.75l4.24-11.78a1.813,1.813,0,0,0,.09-0.44,1.616,1.616,0,0,0,.11-0.58h0Zm-27.57,25.92a3.1,3.1,0,1,1,3.1,3.14,3.122,3.122,0,0,1-3.1-3.14h0Zm14.72,0a3.1,3.1,0,1,1,3.1,3.14,3.122,3.122,0,0,1-3.1-3.14h0Zm0,0" transform="translate(-2412 -1595)"/>
</svg>
