<svg 
 xmlns="http://www.w3.org/2000/svg"
 xmlns:xlink="http://www.w3.org/1999/xlink"
 width="35px" height="35px">
<path fill-rule="evenodd"  fill="rgb(56, 56, 56)"
 d="M33.852,19.429 C32.784,20.497 31.052,20.497 29.984,19.429 C28.916,18.361 28.916,16.628 29.984,15.562 C31.052,14.493 32.784,14.493 33.852,15.562 C34.920,16.628 34.920,18.361 33.852,19.429 ZM22.836,26.671 C21.768,25.603 21.768,23.871 22.836,22.803 C23.904,21.735 25.636,21.735 26.704,22.803 C27.772,23.871 27.772,25.603 26.704,26.671 C25.636,27.738 23.904,27.738 22.836,26.671 ZM22.789,12.233 C21.721,11.164 21.721,9.434 22.789,8.366 C23.857,7.297 25.588,7.297 26.656,8.366 C27.725,9.434 27.725,11.164 26.656,12.233 C25.588,13.302 23.857,13.302 22.789,12.233 ZM15.593,33.913 C14.526,32.845 14.526,31.113 15.593,30.045 C16.662,28.977 18.393,28.977 19.462,30.045 C20.530,31.113 20.530,32.845 19.462,33.913 C18.393,34.982 16.662,34.982 15.593,33.913 ZM15.593,19.429 C14.526,18.361 14.526,16.628 15.593,15.562 C16.662,14.493 18.393,14.493 19.462,15.562 C20.530,16.628 20.530,18.361 19.462,19.429 C18.393,20.497 16.662,20.497 15.593,19.429 ZM15.593,4.944 C14.526,3.875 14.526,2.144 15.593,1.075 C16.662,0.007 18.393,0.007 19.462,1.075 C20.530,2.144 20.530,3.875 19.462,4.944 C18.393,6.012 16.662,6.012 15.593,4.944 ZM8.351,26.671 C7.283,25.603 7.283,23.871 8.351,22.803 C9.419,21.735 11.151,21.735 12.219,22.803 C13.287,23.871 13.287,25.603 12.219,26.671 C11.151,27.738 9.419,27.738 8.351,26.671 ZM8.304,12.138 C7.236,11.071 7.236,9.338 8.304,8.271 C9.372,7.203 11.103,7.203 12.171,8.271 C13.240,9.338 13.240,11.071 12.171,12.138 C11.103,13.206 9.372,13.206 8.304,12.138 ZM1.014,19.429 C-0.054,18.361 -0.054,16.628 1.014,15.562 C2.082,14.493 3.813,14.493 4.881,15.562 C5.950,16.628 5.950,18.361 4.881,19.429 C3.813,20.497 2.082,20.497 1.014,19.429 Z"/>
</svg>