<svg 
 xmlns="http://www.w3.org/2000/svg"
 xmlns:xlink="http://www.w3.org/1999/xlink"
 width="35.5px" height="40.5px">
<path fill-rule="evenodd"  stroke="rgb(56, 56, 56)" stroke-width="3px" stroke-linecap="butt" stroke-linejoin="miter" fill="none"
 d="M30.155,37.508 L3.843,37.508 C3.161,37.508 1.500,35.960 1.500,35.349 L1.500,32.379 C1.500,24.709 8.439,18.492 16.999,18.492 C25.558,18.492 32.497,24.709 32.497,32.379 L32.497,35.349 C32.497,35.960 30.837,37.508 30.155,37.508 ZM16.999,16.500 C12.857,16.500 9.500,13.142 9.500,9.000 C9.500,4.858 12.857,1.500 16.999,1.500 C21.142,1.500 24.500,4.858 24.500,9.000 C24.500,13.142 21.142,16.500 16.999,16.500 Z"/>
</svg>