<svg 
 xmlns="http://www.w3.org/2000/svg"
 xmlns:xlink="http://www.w3.org/1999/xlink"
 width="21px" height="20px">
<path fill-rule="evenodd"  fill="rgb(124, 124, 124)"
 d="M3.000,-0.000 L17.000,-0.000 C18.657,-0.000 20.000,1.343 20.000,3.000 L20.000,17.000 C20.000,18.657 18.657,20.000 17.000,20.000 L3.000,20.000 C1.343,20.000 -0.000,18.657 -0.000,17.000 L-0.000,3.000 C-0.000,1.343 1.343,-0.000 3.000,-0.000 Z"/>
<path fill-rule="evenodd"  fill="rgb(41, 41, 41)"
 d="M12.333,11.506 C12.333,11.506 12.653,10.884 13.018,9.737 C13.384,8.542 13.430,7.920 13.430,7.920 L10.550,7.872 L10.550,6.725 L14.024,6.677 L14.024,5.865 L10.550,5.865 L10.550,4.000 L8.859,4.000 L8.859,5.865 L5.614,5.865 L5.614,6.677 L8.859,6.629 L8.859,7.872 L6.254,7.872 L6.254,8.542 L11.647,8.542 C11.647,8.542 11.601,9.068 11.373,9.737 C11.144,10.406 10.962,10.980 10.962,10.980 C10.962,10.980 8.448,9.928 7.122,9.928 C5.797,9.928 4.152,10.550 4.014,12.367 C3.877,14.183 4.746,15.187 6.071,15.522 C7.397,15.857 8.539,15.522 9.545,14.900 C10.596,14.327 11.601,12.940 11.601,12.940 L19.949,17.000 C19.949,17.000 20.269,16.426 20.543,15.853 C20.817,15.279 21.000,14.657 21.000,14.657 L12.333,11.506 L12.333,11.506 ZM6.802,14.566 C4.928,14.566 4.517,13.466 4.517,12.701 C4.517,11.936 4.928,11.076 6.528,10.932 C8.128,10.789 10.322,12.271 10.322,12.271 C10.322,12.271 8.722,14.566 6.802,14.566 L6.802,14.566 Z"/>
</svg>