<svg 
 xmlns="http://www.w3.org/2000/svg"
 xmlns:xlink="http://www.w3.org/1999/xlink"
 width="20px" height="20px">
<path fill-rule="evenodd"  fill="rgb(124, 124, 124)"
 d="M3.000,-0.000 L17.000,-0.000 C18.657,-0.000 20.000,1.343 20.000,3.000 L20.000,17.000 C20.000,18.657 18.657,20.000 17.000,20.000 L3.000,20.000 C1.343,20.000 -0.000,18.657 -0.000,17.000 L-0.000,3.000 C-0.000,1.343 1.343,-0.000 3.000,-0.000 Z"/>
<path fill-rule="evenodd"  fill="rgb(41, 41, 41)"
 d="M7.883,11.756 L7.944,11.348 L8.474,7.211 L7.045,7.211 C7.045,7.211 6.962,7.770 6.571,11.241 C6.244,13.801 4.149,13.674 4.149,13.674 L4.000,15.000 C6.034,14.796 6.576,13.914 7.045,13.454 C7.649,14.757 9.498,15.000 9.498,15.000 L9.609,13.672 C7.599,13.519 7.883,11.752 7.883,11.756 L7.883,11.756 ZM6.490,5.000 C5.835,5.072 5.296,5.553 5.147,6.200 C4.545,10.638 4.345,12.343 4.345,12.343 L5.714,12.343 L6.535,6.315 L9.333,6.322 L8.477,12.343 L9.907,12.343 L10.869,5.001 L6.493,5.001 L6.490,5.000 ZM12.671,7.746 L11.013,12.561 C10.742,13.416 10.249,13.354 10.249,13.354 C10.249,13.354 10.224,13.545 10.027,14.733 C11.851,14.911 12.356,12.855 12.356,12.855 L14.156,7.747 L12.671,7.747 L12.671,7.746 ZM16.344,5.887 L16.437,5.000 L14.810,5.000 L14.681,5.887 L11.760,5.887 L11.075,7.209 L14.520,7.209 C14.520,7.209 15.291,8.027 14.860,9.932 C14.428,12.208 12.444,14.864 12.444,14.864 L14.255,14.864 C15.198,14.864 15.337,13.760 15.337,13.760 L16.169,7.180 L16.889,7.180 L17.000,5.888 L16.344,5.888 L16.344,5.887 Z"/>
</svg>