<svg 
 xmlns="http://www.w3.org/2000/svg"
 xmlns:xlink="http://www.w3.org/1999/xlink"
 width="20px" height="20px">
<path fill-rule="evenodd"  fill="rgb(124, 124, 124)"
 d="M3.000,-0.000 L17.000,-0.000 C18.657,-0.000 20.000,1.343 20.000,3.000 L20.000,17.000 C20.000,18.657 18.657,20.000 17.000,20.000 L3.000,20.000 C1.343,20.000 -0.000,18.657 -0.000,17.000 L-0.000,3.000 C-0.000,1.343 1.343,-0.000 3.000,-0.000 Z"/>
<path fill-rule="evenodd"  fill="rgb(41, 41, 41)"
 d="M3.000,9.000 L17.000,9.000 L17.000,13.000 C17.000,14.105 16.105,15.000 15.000,15.000 L5.000,15.000 C3.895,15.000 3.000,14.105 3.000,13.000 L3.000,9.000 Z"/>
<path fill-rule="evenodd"  fill="rgb(41, 41, 41)"
 d="M5.000,5.000 L15.000,5.000 C16.105,5.000 17.000,5.895 17.000,7.000 L17.000,8.000 L3.000,8.000 L3.000,7.000 C3.000,5.895 3.895,5.000 5.000,5.000 Z"/>
<path fill-rule="evenodd"  fill="rgb(124, 124, 124)"
 d="M4.000,10.000 L8.000,10.000 L8.000,11.000 L4.000,11.000 L4.000,10.000 Z"/>
</svg>