<svg 
 xmlns="http://www.w3.org/2000/svg"
 xmlns:xlink="http://www.w3.org/1999/xlink"
 width="36px" height="36px">
<path fill-rule="evenodd"  fill="rgb(54, 54, 54)"
 d="M18.000,-0.000 C27.941,-0.000 36.000,8.059 36.000,18.000 C36.000,27.941 27.941,36.000 18.000,36.000 C8.059,36.000 0.000,27.941 0.000,18.000 C0.000,8.059 8.059,-0.000 18.000,-0.000 Z"/>
<path fill-rule="evenodd"  fill="rgb(238, 238, 238)"
 d="M21.937,9.120 L21.937,12.203 C21.058,12.285 19.779,11.958 19.363,12.531 C19.288,13.291 19.267,14.057 19.299,14.821 C20.198,14.893 21.100,14.915 22.001,14.886 C21.913,15.974 21.801,17.037 21.689,18.092 L19.291,18.092 L19.291,26.999 L15.718,26.999 L15.718,18.092 L14.079,18.092 C14.002,17.025 13.978,15.955 14.007,14.886 L15.654,14.886 C15.238,10.208 17.205,8.523 21.937,9.120 L21.937,9.120 Z"/>
</svg>