<svg 
 xmlns="http://www.w3.org/2000/svg"
 xmlns:xlink="http://www.w3.org/1999/xlink"
 width="36px" height="36px">
<path fill-rule="evenodd"  fill="rgb(54, 54, 54)"
 d="M18.000,-0.000 C27.941,-0.000 36.000,8.059 36.000,18.000 C36.000,27.941 27.941,36.000 18.000,36.000 C8.059,36.000 0.000,27.941 0.000,18.000 C0.000,8.059 8.059,-0.000 18.000,-0.000 Z"/>
<path fill-rule="evenodd"  fill="rgb(241, 241, 241)"
 d="M26.985,12.467 L26.985,13.696 L24.526,13.696 L24.526,16.153 L23.296,16.153 L23.296,13.696 L20.837,13.696 L20.837,12.467 L23.296,12.467 L23.296,10.010 L24.526,10.010 L24.526,12.467 L26.985,12.467 ZM20.770,22.016 C20.770,23.120 20.242,24.012 19.425,24.723 C18.320,25.673 16.812,25.980 15.390,25.980 C13.594,25.980 11.000,25.213 11.000,22.987 C11.000,22.536 11.154,22.093 11.356,21.690 C12.210,19.963 14.881,19.521 16.600,19.473 C16.284,19.061 15.986,18.581 15.986,18.043 C15.986,17.727 16.100,17.515 16.198,17.218 C15.967,17.247 15.747,17.266 15.526,17.266 C13.662,17.266 12.049,15.894 12.049,13.964 C12.049,12.141 13.460,10.586 15.208,10.203 C15.795,10.077 16.398,10.010 17.004,10.010 L21.203,10.010 L19.906,10.768 L18.608,10.768 C19.561,11.363 20.040,12.525 20.040,13.600 C20.040,16.143 17.888,16.334 17.888,17.602 C17.888,18.840 20.770,19.329 20.770,22.016 L20.770,22.016 ZM18.264,14.569 C18.264,13.110 17.475,10.702 15.698,10.702 C14.441,10.702 13.826,11.815 13.826,12.948 C13.826,14.406 14.786,16.690 16.496,16.690 C17.811,16.689 18.264,15.740 18.264,14.569 L18.264,14.569 ZM19.416,22.842 C19.416,21.498 18.156,20.750 17.177,20.068 C17.013,20.049 16.859,20.049 16.695,20.049 C15.121,20.049 12.776,20.548 12.776,22.544 C12.776,24.386 14.851,25.097 16.389,25.097 C17.820,25.097 19.416,24.522 19.416,22.842 L19.416,22.842 Z"/>
</svg>