<svg 
 xmlns="http://www.w3.org/2000/svg"
 xmlns:xlink="http://www.w3.org/1999/xlink"
 width="20px" height="20px">
<path fill-rule="evenodd"  fill="rgb(124, 124, 124)"
 d="M3.000,-0.000 L17.000,-0.000 C18.657,-0.000 20.000,1.343 20.000,3.000 L20.000,17.000 C20.000,18.657 18.657,20.000 17.000,20.000 L3.000,20.000 C1.343,20.000 -0.000,18.657 -0.000,17.000 L-0.000,3.000 C-0.000,1.343 1.343,-0.000 3.000,-0.000 Z"/>
<path fill-rule="evenodd"  fill="rgb(41, 41, 41)"
 d="M18.000,11.215 L12.035,11.215 C11.147,13.226 8.482,14.882 7.593,14.882 L7.593,14.290 C8.355,13.935 9.624,12.634 10.131,11.215 L7.847,11.215 L7.974,10.387 L10.385,10.387 L10.639,8.022 L8.228,8.022 L8.355,7.075 L10.766,7.075 L10.893,5.656 L12.543,5.656 C12.670,5.656 12.797,5.774 12.797,5.893 L12.670,7.075 L14.827,7.075 C15.462,7.075 15.843,7.430 15.843,7.903 L15.589,10.387 L18.000,10.387 L18.000,11.215 ZM13.304,8.022 L12.543,8.022 L12.289,10.387 L13.685,10.387 L13.812,8.376 C13.812,8.140 13.685,8.022 13.304,8.022 ZM11.401,4.355 L7.974,4.355 C5.563,4.355 5.182,6.366 5.055,7.312 C4.801,8.258 4.801,9.086 4.801,9.086 L4.674,10.151 C4.674,10.151 4.674,10.387 4.928,10.387 L5.690,10.387 L6.070,5.774 L7.593,5.774 C7.720,5.774 7.847,5.893 7.847,6.011 L7.086,15.000 L5.309,15.000 L5.309,14.882 L5.690,11.215 L3.913,11.215 C3.278,11.215 2.898,10.860 3.024,10.269 L3.151,9.086 C3.151,9.086 3.151,8.140 3.405,7.194 C3.532,6.129 4.167,4.000 7.593,4.000 L11.781,4.000 L11.781,4.119 C11.781,4.237 11.654,4.355 11.401,4.355 ZM15.462,11.570 L15.335,12.634 C15.208,13.817 16.096,14.172 16.350,14.290 L16.350,14.882 C15.589,14.882 13.939,14.527 13.558,12.989 C13.431,12.398 13.558,11.570 13.558,11.570 L15.462,11.570 Z"/>
</svg>