<svg 
 xmlns="http://www.w3.org/2000/svg"
 xmlns:xlink="http://www.w3.org/1999/xlink"
 width="36px" height="36px">
<path fill-rule="evenodd"  fill="rgb(54, 54, 54)"
 d="M18.000,-0.000 C27.941,-0.000 36.000,8.059 36.000,18.000 C36.000,27.941 27.941,36.000 18.000,36.000 C8.059,36.000 0.000,27.941 0.000,18.000 C0.000,8.059 8.059,-0.000 18.000,-0.000 Z"/>
<path fill-rule="evenodd"  fill="rgb(236, 236, 236)"
 d="M27.000,12.833 C26.725,13.406 26.250,13.814 25.771,14.199 C25.477,14.436 25.405,14.681 25.386,15.038 C25.168,19.128 23.362,22.284 19.560,24.037 C16.399,25.494 13.208,25.265 10.148,23.573 C10.086,23.539 10.004,23.520 10.000,23.380 C11.242,23.466 12.447,23.309 13.585,22.793 C14.052,22.582 14.513,22.355 14.977,21.957 C14.745,21.912 14.578,21.883 14.413,21.845 C13.255,21.584 12.426,20.917 11.909,19.860 C11.785,19.607 11.789,19.475 12.137,19.504 C12.462,19.532 12.790,19.510 13.138,19.459 C11.540,18.829 10.604,17.752 10.523,15.978 C11.027,16.125 11.450,16.348 12.013,16.336 C11.286,15.726 10.793,15.044 10.623,14.167 C10.457,13.310 10.560,12.502 11.036,11.696 C11.697,12.427 12.368,13.076 13.150,13.605 C14.586,14.575 16.173,15.129 17.896,15.323 C18.190,15.355 18.335,15.337 18.294,14.963 C18.133,13.490 18.704,12.323 19.971,11.561 C21.257,10.788 22.617,10.801 23.825,11.687 C24.398,12.107 24.857,12.125 25.432,11.869 C25.805,11.703 26.182,11.546 26.666,11.339 C26.370,12.133 25.933,12.704 25.221,13.181 C25.886,13.185 26.410,12.907 26.969,12.801 L27.000,12.833 Z"/>
</svg>