<svg 
 xmlns="http://www.w3.org/2000/svg"
 xmlns:xlink="http://www.w3.org/1999/xlink"
 width="36px" height="36px">
<path fill-rule="evenodd"  fill="rgb(54, 54, 54)"
 d="M18.000,-0.000 C27.941,-0.000 36.000,8.059 36.000,18.000 C36.000,27.941 27.941,36.000 18.000,36.000 C8.059,36.000 0.000,27.941 0.000,18.000 C0.000,8.059 8.059,-0.000 18.000,-0.000 Z"/>
<path fill-rule="evenodd"  fill="rgb(234, 234, 234)"
 d="M22.338,17.819 C21.638,17.686 21.979,17.321 21.979,17.321 C21.979,17.321 22.664,16.222 21.842,15.422 C20.826,14.433 18.352,15.547 18.352,15.547 C17.408,15.831 17.658,15.416 17.792,14.711 C17.792,13.879 17.499,12.471 14.983,13.301 C12.469,14.139 10.312,17.070 10.312,17.070 C8.811,19.016 9.009,20.521 9.009,20.521 C9.384,23.845 13.014,24.758 15.838,24.974 C18.808,25.199 22.819,23.979 24.033,21.467 C25.251,18.951 23.041,17.956 22.338,17.819 L22.338,17.819 ZM16.057,24.038 C13.108,24.171 10.723,22.735 10.723,20.821 C10.723,18.904 13.108,17.369 16.057,17.236 C19.009,17.102 21.398,18.287 21.398,20.198 C21.398,22.109 19.009,23.908 16.057,24.038 L16.057,24.038 ZM15.470,18.495 C12.503,18.833 12.847,21.535 12.847,21.535 C12.847,21.535 12.816,22.391 13.641,22.826 C15.375,23.742 17.165,23.188 18.066,22.053 C18.970,20.921 18.440,18.160 15.470,18.495 L15.470,18.495 ZM14.721,22.290 C14.167,22.352 13.720,22.041 13.720,21.591 C13.720,21.143 14.116,20.672 14.670,20.616 C15.306,20.557 15.719,20.912 15.719,21.365 C15.722,21.813 15.272,22.228 14.721,22.290 L14.721,22.290 ZM16.471,20.841 C16.282,20.977 16.051,20.960 15.954,20.794 C15.850,20.634 15.890,20.379 16.078,20.246 C16.297,20.086 16.526,20.133 16.626,20.293 C16.724,20.453 16.654,20.699 16.471,20.841 L16.471,20.841 ZM23.784,16.649 C24.024,16.649 24.225,16.477 24.262,16.252 C24.265,16.234 24.268,16.219 24.268,16.202 C24.630,13.034 21.599,13.579 21.599,13.579 C21.331,13.579 21.115,13.790 21.115,14.056 C21.115,14.317 21.331,14.527 21.599,14.527 C23.774,14.059 23.297,16.178 23.297,16.178 C23.294,16.439 23.513,16.649 23.784,16.649 L23.784,16.649 ZM23.431,11.120 C22.384,10.880 21.304,11.088 21.002,11.144 C20.978,11.147 20.957,11.168 20.935,11.171 C20.926,11.174 20.917,11.183 20.917,11.183 C20.619,11.265 20.403,11.532 20.403,11.849 C20.403,12.225 20.716,12.536 21.109,12.536 C21.109,12.536 21.489,12.486 21.748,12.388 C22.003,12.288 24.176,12.314 25.254,14.074 C25.841,15.360 25.512,16.219 25.470,16.358 C25.470,16.358 25.329,16.693 25.329,17.022 C25.329,17.401 25.643,17.641 26.036,17.641 C26.361,17.641 26.635,17.597 26.715,17.061 L26.717,17.061 C27.880,13.307 25.305,11.544 23.431,11.120 L23.431,11.120 Z"/>
</svg>