<svg 
 xmlns="http://www.w3.org/2000/svg"
 xmlns:xlink="http://www.w3.org/1999/xlink"
 width="36px" height="36px">
<path fill-rule="evenodd"  fill="rgb(54, 54, 54)"
 d="M18.000,-0.000 C27.941,-0.000 36.000,8.059 36.000,18.000 C36.000,27.941 27.941,36.000 18.000,36.000 C8.059,36.000 0.000,27.941 0.000,18.000 C0.000,8.059 8.059,-0.000 18.000,-0.000 Z"/>
<path fill-rule="evenodd"  fill="rgb(234, 234, 234)"
 d="M25.714,24.480 L25.719,26.000 L24.683,24.977 C23.971,25.238 23.186,25.393 22.353,25.393 C19.233,25.393 16.705,23.354 16.705,20.838 C16.705,18.323 19.233,16.284 22.353,16.284 C25.473,16.284 28.001,18.323 28.001,20.838 C28.001,22.334 27.094,23.649 25.714,24.480 ZM20.824,19.020 C20.722,18.841 20.533,18.730 20.328,18.730 C20.012,18.730 19.756,18.989 19.756,19.309 C19.756,19.628 20.012,19.887 20.328,19.887 C20.533,19.887 20.722,19.777 20.824,19.598 C20.926,19.419 20.926,19.198 20.824,19.020 ZM24.357,18.414 C23.886,18.439 23.516,18.833 23.516,19.310 C23.516,19.787 23.886,20.181 24.357,20.206 C24.829,20.181 25.198,19.787 25.198,19.310 C25.198,18.833 24.829,18.439 24.357,18.414 ZM15.812,20.200 C15.811,20.539 15.853,20.877 15.939,21.206 C15.550,21.261 15.153,21.293 14.745,21.291 C14.349,21.289 13.967,21.244 13.590,21.188 L11.810,22.000 L12.096,20.827 C9.677,19.953 7.987,17.941 8.000,15.608 C8.018,12.489 11.064,9.978 14.809,9.999 C18.431,10.019 21.368,12.408 21.536,15.389 C18.362,15.509 15.828,17.607 15.812,20.200 ZM12.523,12.824 C12.101,12.821 11.756,13.165 11.754,13.592 C11.752,14.019 12.092,14.367 12.514,14.370 C12.937,14.372 13.281,14.028 13.283,13.601 C13.286,13.174 12.945,12.826 12.523,12.824 ZM18.415,13.629 C18.417,13.126 18.016,12.716 17.518,12.713 C17.020,12.710 16.614,13.116 16.612,13.619 C16.609,14.123 17.010,14.533 17.508,14.536 C18.006,14.539 18.412,14.133 18.415,13.629 Z"/>
</svg>