<svg 
 xmlns="http://www.w3.org/2000/svg"
 xmlns:xlink="http://www.w3.org/1999/xlink"
 width="20px" height="20px">
<path fill-rule="evenodd"  fill="rgb(124, 124, 124)"
 d="M3.000,-0.000 L17.000,-0.000 C18.657,-0.000 20.000,1.343 20.000,3.000 L20.000,17.000 C20.000,18.657 18.657,20.000 17.000,20.000 L3.000,20.000 C1.343,20.000 -0.000,18.657 -0.000,17.000 L-0.000,3.000 C-0.000,1.343 1.343,-0.000 3.000,-0.000 Z"/>
<path fill-rule="evenodd"  fill="rgb(41, 41, 41)"
 d="M11.373,11.555 L10.066,12.736 L8.424,11.287 L9.791,10.088 C9.907,9.981 10.096,9.981 10.212,10.089 L11.373,11.165 C11.489,11.273 11.489,11.448 11.373,11.555 ZM10.000,15.999 C7.239,15.999 5.000,13.927 5.000,11.371 C5.000,9.865 5.726,8.527 6.930,7.682 L6.930,7.684 C7.125,7.536 7.314,7.402 7.314,7.402 L7.346,7.319 C5.353,6.734 5.154,5.020 5.154,5.020 C5.154,5.020 8.079,6.545 12.570,5.032 C12.570,5.032 13.757,4.723 14.139,5.948 C14.139,5.948 14.288,6.303 13.637,6.333 C12.482,6.387 8.119,7.717 7.032,10.308 L7.032,10.329 C6.904,10.648 6.834,10.993 6.834,11.353 C6.834,12.972 8.252,14.285 10.001,14.285 C11.750,14.285 13.169,12.973 13.169,11.353 C13.169,9.763 11.801,8.469 10.095,8.423 C10.442,8.276 10.876,8.144 11.338,8.129 C12.527,8.090 14.073,8.409 14.838,10.312 C14.863,10.374 14.938,10.646 14.949,10.717 L14.949,10.717 C14.982,10.931 14.999,11.149 14.999,11.371 C14.999,13.927 12.761,15.999 10.000,15.999 Z"/>
</svg>