<?xml version="1.0" standalone="no"?><!DOCTYPE svg PUBLIC "-//W3C//DTD SVG 1.1//EN" "http://www.w3.org/Graphics/SVG/1.1/DTD/svg11.dtd"><svg t="1563247610180" class="icon" viewBox="0 0 1024 1024" version="1.1" xmlns="http://www.w3.org/2000/svg" p-id="1989" xmlns:xlink="http://www.w3.org/1999/xlink" width="48" height="48"><defs><style type="text/css"></style></defs><path d="M837.817801 1023.999535H186.181734a186.181734 186.181734 0 0 1-186.181734-186.181734V186.181734a186.181734 186.181734 0 0 1 186.181734-186.181734h651.636067a186.181734 186.181734 0 0 1 186.181734 186.181734v529.966304c-0.418909 0-4.654543-1.442908-12.567267-3.816725-229.701714-70.749059-307.19986-96.069775-331.962031-104.913407a793.832366 793.832366 0 0 0 86.481415-217.367174h-213.596994V317.626037h261.864608v-44.497434h-261.864608V152.343203H451.909613a20.061082 20.061082 0 0 0-20.293809 16.523629v104.261771H185.623188v44.497434h245.34098v72.47124H230.120623v40.029073h406.807087a707.164769 707.164769 0 0 1-58.507609 142.382481l-30.161441-10.100359-0.744727-0.232728a844.334162 844.334162 0 0 0-225.279898-51.199976c-16.197811-1.535999-31.930167-2.327272-46.77816-2.327272-183.807916 0-217.460265 119.854491-223.41808 171.426831A157.928655 157.928655 0 0 0 93.090867 805.235998a252.043522 252.043522 0 0 0 188.974459 73.215966c130.327213 0 229.748259-53.247976 333.079122-177.989737 115.47922 55.295975 339.362755 153.59993 403.548907 181.108281A185.483552 185.483552 0 0 1 837.817801 1023.999535z m185.762825-173.754103L1023.999535 716.148038V837.817801c0 4.095998 0 8.285087-0.418909 12.427631zM266.33297 808.959632A176.174465 176.174465 0 0 1 121.018127 755.106566a104.959952 104.959952 0 0 1-23.64508-83.409417 130.327213 130.327213 0 0 1 137.309028-92.811594 631.109531 631.109531 0 0 1 290.49005 76.287965c-75.869056 99.188319-167.749742 153.786112-258.839155 153.786112z" fill="#515151" p-id="1990"></path></svg>