<?xml version="1.0" standalone="no"?><!DOCTYPE svg PUBLIC "-//W3C//DTD SVG 1.1//EN" "http://www.w3.org/Graphics/SVG/1.1/DTD/svg11.dtd"><svg t="1559571865382" class="icon" style="" viewBox="0 0 1024 1024" version="1.1" xmlns="http://www.w3.org/2000/svg" p-id="3242" xmlns:xlink="http://www.w3.org/1999/xlink" width="200" height="200"><defs><style type="text/css"></style></defs><path d="M713.14823 982.874347 310.850747 982.874347c-50.705845 0-91.959412-41.253566-91.959412-91.959412l0-757.829871c0-50.705845 41.253566-91.959412 91.959412-91.959412l402.297482 0c50.705845 0 91.959412 41.253566 91.959412 91.959412l0 757.830895C805.107641 941.620781 763.856122 982.874347 713.14823 982.874347zM264.871553 753.526869l0 137.388067c0 25.358551 20.621667 45.979194 45.980217 45.979194l402.297482 0c25.358551 0 45.980217-20.620643 45.980217-45.979194L759.12947 753.526869 264.871553 753.526869 264.871553 753.526869zM264.871553 707.547675l494.256894 0 0-574.463634c0-25.358551-20.621667-45.979194-45.980217-45.979194L310.850747 87.104847c-25.358551 0-45.980217 20.620643-45.980217 45.979194L264.871553 707.547675 264.871553 707.547675z" p-id="3243" fill="#ff4444"></path><path d="M562.439786 860.866572c0 27.836999-22.573111 50.438763-50.438763 50.438763-27.836999 0-50.438763-22.600741-50.438763-50.438763 0-27.835975 22.601764-50.438763 50.438763-50.438763C539.865651 810.42781 562.439786 833.029574 562.439786 860.866572" p-id="3244" fill="#ff4444"></path></svg>