<?xml version="1.0" standalone="no"?><!DOCTYPE svg PUBLIC "-//W3C//DTD SVG 1.1//EN" "http://www.w3.org/Graphics/SVG/1.1/DTD/svg11.dtd"><svg t="1556181982761" class="icon" style="" viewBox="0 0 1024 1024" version="1.1" xmlns="http://www.w3.org/2000/svg" p-id="4745" xmlns:xlink="http://www.w3.org/1999/xlink" width="16" height="16"><defs><style type="text/css"></style></defs><path d="M512 4.53290667C791.80231111 4.53290667 1019.46709333 232.16128 1019.46709333 512 1019.46709333 791.80231111 791.80231111 1019.46709333 512 1019.46709333c-279.83872 0-507.46709333-227.62837333-507.46709333-507.46709333C4.53290667 232.16128 232.16128 4.53290667 512 4.53290667zM512 946.64931555C751.67971555 946.64931555 946.64931555 751.67971555 946.64931555 512c0-239.64330667-194.9696-434.64931555-434.64931555-434.64931555-239.64330667 0-434.64931555 194.9696-434.64931555 434.64931555C77.35068445 751.67971555 272.35669333 946.64931555 512 946.64931555zM512 748.65777778m54.61333333 0a1.70666667 1.70666667 0 1 0-109.22666666 0 1.70666667 1.70666667 0 1 0 109.22666666 0ZM512 220.72888889c20.09770667 0 36.40888889 16.27477332 36.40888889 36.40888889l0 327.68c0 20.09770667-16.31118222 36.40888889-36.40888889 36.40888889s-36.40888889-16.31118222-36.40888889-36.40888889l0-327.68C475.59111111 237.00366221 491.90229333 220.72888889 512 220.72888889z" p-id="4746" fill="#aaaaaa"></path></svg>