<?xml version="1.0" standalone="no"?><!DOCTYPE svg PUBLIC "-//W3C//DTD SVG 1.1//EN" "http://www.w3.org/Graphics/SVG/1.1/DTD/svg11.dtd"><svg version="1.1" xmlns="http://www.w3.org/2000/svg" xmlns:xlink="http://www.w3.org/1999/xlink" viewBox="0 0 60 50"><g><g><path class="st0" d="M27.3,1.5h19c4.1,0,7.4,3.3,7.4,7.3v1.4c1.6,1,2.6,2.9,2.5,5L54.3,44c-0.2,3.2-3,5.9-6.2,5.9H12.5c-3.2,0-6-2.6-6.2-5.9L3.9,5.9C3.7,2.6,6.2,0,9.4,0h14.1C24.9,0,26.3,0.6,27.3,1.5L27.3,1.5z M50.7,9.3V8.8c0-1.2-0.5-2.3-1.3-3.1c-0.8-0.8-2-1.3-3.1-1.3H29.5l3.6,4.9H50.7z M31.7,12.2L26.3,5l-0.1-0.2c-0.6-1.1-1.6-1.8-2.7-1.8H9.4c-1.6,0-2.7,1.2-2.6,2.8l2.4,38.2c0.1,1.7,1.6,3.1,3.3,3.1h35.6c1.7,0,3.2-1.4,3.3-3.1L53.2,15c0.1-1.6-1.1-2.8-2.6-2.8H31.7z"></path></g><g><g><path class="st0" d="M43.4,26.6c-0.1-0.2-0.3-0.3-0.5-0.4c-0.1-0.1-0.3-0.2-0.5-0.2l-8.1-1.2L31,17.4c-0.2-0.5-0.7-0.7-1.2-0.7c-0.5,0-1,0.2-1.2,0.7l-3.2,7.4l-8,1.1c-0.5,0.1-0.9,0.5-1,1c-0.2,0.5,0,1,0.4,1.3l6.1,5l-2.3,7.6c-0.1,0.5,0,1,0.4,1.3c0.4,0.4,0.9,0.5,1.4,0.2l7.6-3.7l7.4,3.6c0.5,0.2,1,0.1,1.4-0.2c0.4-0.3,0.6-0.8,0.4-1.3l-2.3-7.5l6.3-4.8C43.7,27.9,43.8,27.1,43.4,26.6L43.4,26.6z M33.1,27.3c0.1,0,0.1,0.1,0.2,0.1l5.9,0.8l-4.5,3.5C34.2,32,34,32.5,34.1,33l1.7,5.6l-5.3-2.5c-0.3-0.2-0.7-0.1-1.1,0.1c-0.1,0-0.2,0-0.2,0.1L24,38.7l1.7-5.6c0.1-0.3,0.1-0.5-0.1-0.8c0,0,0-0.1,0-0.1c-0.1-0.1-0.2-0.2-0.3-0.3c0,0,0,0,0,0l0,0l-0.1-0.1l-4.5-3.6l5.8-0.8c0.1,0,0.1,0,0.1-0.1c0.1,0,0.1,0,0.2-0.1c0.2-0.1,0.4-0.3,0.5-0.5c0,0,0.1-0.1,0.1-0.1l2.4-5.4l2.4,5.4C32.4,27,32.7,27.2,33.1,27.3L33.1,27.3z M33.1,27.3"></path></g></g></g></svg>