<?xml version="1.0" standalone="no"?><!DOCTYPE svg PUBLIC "-//W3C//DTD SVG 1.1//EN" "http://www.w3.org/Graphics/SVG/1.1/DTD/svg11.dtd"><svg viewBox="0 0 1024 1024" version="1.1" xmlns="http://www.w3.org/2000/svg" xmlns:xlink="http://www.w3.org/1999/xlink"><path d="M512 16c274 0 496 222 496 496S786 1008 512 1008 16 786 16 512 238 16 512 16z m227.8 462L468.8 207c-18.8-18.8-49.2-18.8-67.8 0l-34 34c-18.8 18.8-18.8 49.2 0 67.8L570.2 512 367 715.2c-18.8 18.8-18.8 49.2 0 67.8l34 34c18.8 18.8 49.2 18.8 67.8 0L739.8 546c18.8-18.8 18.8-49.2 0-68z"></path></svg>