<?xml version="1.0" standalone="no"?><!DOCTYPE svg PUBLIC "-//W3C//DTD SVG 1.1//EN" "http://www.w3.org/Graphics/SVG/1.1/DTD/svg11.dtd"><svg t="1544590068710" class="icon" style="" viewBox="0 0 1024 1024" version="1.1" xmlns="http://www.w3.org/2000/svg" p-id="2296" xmlns:xlink="http://www.w3.org/1999/xlink" width="200" height="200"><defs><style type="text/css"></style></defs><path d="M958.241 459.883l-96.32-101.014V149.852c0-28.268-22.995-51.273-51.272-51.273H750.08c-28.277 0-51.272 23.005-51.272 51.273v37.954L538.048 19.213a20.96 20.96 0 0 0-14.989-6.501c-5.446 0.737-11.118 2.201-15.111 6.235L70.329 461.992c-5.938 6.01-7.679 15.009-4.423 22.821a20.968 20.968 0 0 0 19.35 12.879h68.227v433.442c0 44.986 36.591 81.577 81.578 81.577h545.303c44.967 0 81.558-36.591 81.558-81.577V497.692h83.399c0.144-0.01 0.287 0 0.41 0 11.59 0 20.968-9.388 20.968-20.967-0.001-6.901-3.318-13.013-8.458-16.842zM740.742 225.542v-75.69c0-5.15 4.197-9.337 9.337-9.337h60.569c5.14 0 9.337 4.188 9.337 9.337V314.89l-79.986-83.885a20.94 20.94 0 0 0 0.743-5.463zM601.954 970.776H416.767v-221.39c0-21.868 17.773-39.642 39.621-39.642h105.944c21.849 0 39.622 17.773 39.622 39.642v221.39z m218.031-39.641c0 21.868-17.773 39.642-39.622 39.642H643.89v-221.39c0-44.986-36.592-81.577-81.558-81.577H456.388c-44.966 0-81.557 36.591-81.557 81.577v221.39H235.06c-21.869 0-39.642-17.773-39.642-39.642V497.692h624.567v433.443zM135.443 455.757L522.608 63.79l373.754 391.967H135.443z" p-id="2297"></path></svg>