<?xml version="1.0" standalone="no"?><!DOCTYPE svg PUBLIC "-//W3C//DTD SVG 1.1//EN" "http://www.w3.org/Graphics/SVG/1.1/DTD/svg11.dtd"><svg t="1544590091256" class="icon" style="" viewBox="0 0 1024 1024" version="1.1" xmlns="http://www.w3.org/2000/svg" p-id="3041" xmlns:xlink="http://www.w3.org/1999/xlink" width="200" height="200"><defs><style type="text/css"></style></defs><path d="M825.402514 627.448686c-60.123429 0-113.8688 26.916571-150.147657 69.2224l-299.973486-191.634286a196.608 196.608 0 0 0 20.538515-87.361829 197.485714 197.485714 0 0 0-7.723886-54.242742l255.122286-88.502858A197.866057 197.866057 0 0 0 1023.210057 197.778286 197.778286 197.778286 0 0 0 825.402514 0a197.778286 197.778286 0 0 0-197.807543 197.778286c0 9.4208 0.877714 18.6368 2.165029 27.706514l-262.056229 90.901943a197.485714 197.485714 0 0 0-169.691428-96.519314 197.778286 197.778286 0 1 0 0 395.556571c59.450514 0 112.64-26.331429 148.918857-67.876571l300.412343 191.926857a196.608 196.608 0 0 0-19.748572 85.723428 197.778286 197.778286 0 0 0 197.778286 197.778286 197.778286 197.778286 0 1 0 0-395.556571z m0-575.839086a146.168686 146.168686 0 1 1 0 292.366629 146.168686 146.168686 0 0 1 0-292.366629zM198.012343 563.8144a146.168686 146.168686 0 1 1 0-292.337371 146.168686 146.168686 0 0 1 0 292.337371z m627.390171 407.552a146.168686 146.168686 0 1 1 0-292.337371 146.168686 146.168686 0 0 1 0 292.337371z" fill="#717171" p-id="3042"></path></svg>