<?xml version="1.0" standalone="no"?><!DOCTYPE svg PUBLIC "-//W3C//DTD SVG 1.1//EN" "http://www.w3.org/Graphics/SVG/1.1/DTD/svg11.dtd"><svg t="1544708081126" class="icon" style="" viewBox="0 0 1024 1024" version="1.1" xmlns="http://www.w3.org/2000/svg" p-id="2278" xmlns:xlink="http://www.w3.org/1999/xlink" width="200" height="200"><defs><style type="text/css"></style></defs><path d="M793.7 967.2c-13.4 0-24.7-10-26.3-23.3v-0.3l-0.2-0.2c-0.6-0.6-1-1.5-1.1-2.5-11.8-187.8-168.2-334.7-356.1-334.7-187.9-0.1-344.3 147-356 334.7-0.1 1-0.5 1.9-1.1 2.5l-0.2 0.2v0.3c-1.6 13.3-12.8 23.3-26.3 23.3-14.5 0-26.4-11.9-26.4-26.5 0-3.3 0.6-6.5 1.8-9.5l0.1-0.1v-0.1c6.4-82.8 37.5-160.9 89.7-225.6 49.4-61 114.4-106.2 188.2-130.9l1.8-0.6-1.6-0.9c-41.3-22.3-76.3-54.8-101.5-94.2-28.2-44-43.1-94.9-43.1-147.4 0-73.3 28.6-142.4 80.5-194.2 52-52 120.9-80.5 194.2-80.5 73.3 0 142.4 28.6 194.3 80.5 51.9 51.9 80.5 120.9 80.5 194.2 0 52.4-14.9 103.4-43.1 147.4-25.3 39.5-60.4 72-101.5 94.2l-1.6 0.9 1.8 0.6c73.7 24.7 138.8 69.8 188.2 130.9 52.4 64.7 83.4 142.9 89.7 225.8v0.2c1.2 3.1 1.8 6.3 1.8 9.3 0 14.6-11.9 26.5-26.5 26.5zM410.1 109.7c-122.3 0-221.7 99.5-221.7 221.7 0 122.3 99.5 221.7 221.7 221.7s221.6-99.5 221.6-221.7-99.4-221.7-221.6-221.7z m0 0" p-id="2279" fill="#e6e6e6"></path><path d="M996.8 967.2c-13.4 0-24.7-10-26.3-23.3v-0.3l-0.2-0.2c-0.6-0.6-1-1.5-1.1-2.5-9.7-157.6-124.1-291.5-278.1-325.6-0.5-0.1-1-0.4-1.6-0.8-16.9-13.4-35.4-26-56.8-38.4-1.4-0.8-2.2-2.5-1.9-4.1 0.1-0.6-0.8-8.2-0.5-8.9v-0.1c0-0.3 0.1-0.5 0.1-0.7 0.1-0.3-0.2-0.8-0.2-1-0.4-2.1-0.4-2.5-0.8-3.8-0.3-1.2-0.4-2.4 0.2-3.5 0.7-1.1 1.8-1.8 3-1.9 115.3-10.2 202.1-105 202.1-220.6 0-114.4-89.3-211.4-203.2-220.7-0.9-0.1-1.7-0.5-2.4-1.2-15.9-15.8-34.3-30.2-54.7-42.9-1.4-0.9-2.1-2.6-1.7-4.2 0.4-1.7 1.7-2.8 3.3-3.1 14-1.9 25.7-2.8 37.1-2.8 73.4 0 142.5 28.6 194.2 80.5 51.9 52 80.4 120.9 80.4 194.2 0 52.4-14.9 103.4-43.1 147.4-25.2 39.5-60.3 72-101.4 94.2l-1.6 0.9 1.8 0.6c73.6 24.7 138.7 69.9 188.1 130.9 52.3 64.5 83.3 142.6 89.8 225.7v0.2c1.2 3.2 1.7 6.4 1.7 9.4 0 6.9-2.8 13.8-7.8 18.7-4.6 5.1-11.3 7.9-18.4 7.9z m0 0" p-id="2280" fill="#e6e6e6"></path></svg>