<?xml version="1.0" standalone="no"?><!DOCTYPE svg PUBLIC "-//W3C//DTD SVG 1.1//EN" "http://www.w3.org/Graphics/SVG/1.1/DTD/svg11.dtd"><svg t="1550820898907" class="icon" style="" viewBox="0 0 1177 1024" version="1.1" xmlns="http://www.w3.org/2000/svg" p-id="1106" xmlns:xlink="http://www.w3.org/1999/xlink" width="229.8828125" height="200"><defs><style type="text/css"></style></defs><path d="M1170.127786 395.538294l-131.434631-269.887616c-12.122612-26.15932-42.748157-36.367835-66.99338-24.245223L29.326232 554.408309C3.166912 566.53092-7.041603 597.156465 5.081009 620.763656L137.153672 890.651272c12.122612 26.15932 42.748157 36.367835 66.99338 24.245224l941.735511-454.916951c24.245223-12.122612 34.453738-40.196028 24.245223-64.441251z m-40.83406 34.453738L187.558215 884.908983c-8.294418 1.914097-15.950805 0-20.41703-8.294419L35.706554 607.364981c-1.914097-8.294418 0-15.950805 8.294418-20.417031L985.736483 132.031c8.294418-1.914097 15.950805 0 20.41703 8.294418l131.434631 269.887616c1.914097 7.656386 0 15.950805-8.294418 19.778998zM858.130045 657.131491c-8.294418-3.828193-18.502933-1.914097-24.245223 5.74229-28.073416 46.57635-70.821573 82.306152-119.312019 106.551376-48.490446 24.245223-103.361215 33.815706-158.231983 28.073416-8.294418 0-15.950805 6.380322-18.502934 15.950805 0 8.294418 6.380322 15.950805 15.950805 17.864901 60.613058 5.74229 121.226116-3.828193 176.096884-29.987513 54.870768-26.15932 101.447118-68.269444 133.348728-120.588084 4.466225-7.018354 2.552129-17.226869-5.104258-23.607191zM317.078749 362.998652c8.294418 3.828193 18.502933 1.914097 24.245223-5.74229 28.073416-46.57635 70.821573-82.306152 119.31202-106.551375 48.490446-24.245223 103.361215-33.815706 158.231982-28.073417 3.828193 0 8.294418 0 10.208516-1.914096 3.828193-1.914097 8.294418-8.294418 8.294418-12.122612 0-8.294418-6.380322-15.950805-15.950805-17.864901-60.613058-5.74229-121.226116 3.828193-176.096884 29.987513-54.870768 26.15932-101.447118 66.355348-133.98676 118.673987-4.466225 7.656386-2.552129 17.864901 5.74229 23.607191z m477.88611 574.22897c-148.023468 72.097637-322.206255 62.527155-461.935305-24.245223l-18.502934 29.987513c151.851661 92.514667 336.242964 102.723182 496.389043 26.15932 160.146079-76.563863 267.335487-227.777492 285.838421-404.512408l-34.453738-3.828193c-17.864901 165.250337-117.397923 304.341354-267.335487 376.438991zM91.853386 474.016253c10.208515 0 18.502933-6.380322 20.41703-15.950805C130.77335 292.815111 232.220468 153.724094 379.605904 81.626457c148.023468-72.73567 322.206255-62.527155 461.935304 26.159319 3.828193 1.914097 10.208515 1.914097 15.950805 0 3.828193-1.914097 5.74229-3.828193 7.656386-5.742289 3.828193-8.294418 1.914097-18.502933-5.742289-24.245223C708.192481-15.354436 523.801178-25.562951 363.655099 51.000912S96.319612 278.778403 75.902582 453.599223c0 10.846547 5.74229 18.502933 15.950804 20.41703z m689.074765 380.905217l-8.294419-31.90161-20.41703 28.073417-32.539642-1.914097 20.41703 26.15932-12.122611 29.987513 30.625545-12.122612 26.15932 22.331127-1.914097-34.453738 28.711449-15.950805-30.625545-10.208515z m-200.342108 78.477959l18.502934 28.073416 10.208515-31.901609 30.625545-5.74229-26.15932-20.41703 3.828193-31.901609-26.15932 17.864901-30.625545-12.122611 10.208515 31.901609-22.331126 24.245223h31.901609z m331.776738-189.49556l-18.502933-28.073416-8.294418 31.901609-32.539642 8.294419 28.073416 17.864901-1.914096 31.901609 26.159319-20.41703 30.625545 12.122612-12.122611-29.987513 20.41703-26.15932-31.90161 2.552129zM264.122077 278.778403l18.502934 28.073416 8.294418-31.901609 30.625545-8.294418-26.159319-17.864902 1.914096-32.539641-26.15932 20.41703-30.625545-12.122612 10.208515 29.987513-20.41703 26.15932 33.815706-1.914097z m330.500674-189.49556l-16.588837-28.073416-10.208515 29.987513-32.539641 8.294418 26.159319 20.41703-1.914096 31.90161 26.15932-20.417031 30.625545 12.122612-10.208515-29.987513 22.331126-24.245223h-33.815706z m-176.096884 38.281931L392.366547 107.147744v32.539642l-26.159319 17.864901 30.625545 10.208515 8.294418 29.987513 18.502934-26.15932 34.453738 1.914097-20.41703-26.15932 12.122611-29.987513-31.263577 10.208515z m-189.49556 564.020455l-36.367835 26.797352c5.104258-24.883255 8.294418-52.31864 8.294419-77.839927l-28.073417-1.276064c0.638032 8.932451 0 19.140966 0 28.073416l-21.693094 13.398676c2.552129-23.607191 1.914097-50.404543-0.638032-74.011734l-31.263578 2.552129c6.380322 28.711449 7.656386 62.527155 6.380322 71.459605-0.638032 9.570483-1.914097 15.950805-5.742289 19.778998 7.018354 4.466225 17.864901 13.398676 22.331126 17.864901 2.552129-3.828193 7.656386-7.656386 28.711449-21.693094-1.914097 14.67474-4.466225 26.15932-5.104258 31.901609-3.190161 11.484579-5.104258 18.502933-10.208515 22.969159 6.380322 4.466225 16.588837 12.122612 21.055062 16.588837 4.466225-6.380322 12.122612-13.398676 65.079284-54.870768-3.828193-5.74229-9.570483-15.312773-12.760644-21.693095z m20.41703 41.472093c-24.883255 21.055062-51.042575 42.748157-68.907476 56.784865l19.778997 21.055062c19.140966-16.588837 42.748157-37.643899 65.079284-58.698962l-15.950805-19.140965z m128.882502-34.453738L277.520753 541.647665 183.730022 590.138111l100.809085 156.955919-20.41703 10.208515 14.036709 22.331127 132.710695-68.907477-14.036708-22.331126-18.502934 10.208515zM223.926049 599.070562l40.834061-21.055062 19.140965 29.987513-40.83406 21.055062-19.140966-29.987513z m52.31864 81.66812l-19.140966-29.987513 40.83406-21.055062 19.140966 29.987513-40.83406 21.055062z m33.815706 52.956672l-19.778998-31.263577 40.83406-21.055063 19.778998 31.263578-40.83406 21.055062z m1.276064-213.102751l118.673988 185.029335 28.073416-14.674741-4.466225-7.018354 137.17692-71.459605 4.466225 7.018354 29.349481-15.312772-118.673987-185.029335-194.599818 101.447118z m128.24447 141.005114L354.084616 528.887021l137.176921-71.459605L577.395882 590.776144l-137.814953 70.821573z m20.41703-179.287046l-26.159319 13.398676 14.036708 22.331127L382.158032 551.85618l14.036708 21.693094 54.870769-28.711448c-5.104258 28.073416-18.502933 55.5088-32.539642 75.92583 8.932451 1.276064 21.055062 5.104258 27.435384 7.656387 12.122612-17.864901 24.245223-40.83406 31.263577-65.079284l17.864902 28.073417c1.276064 2.552129 1.276064 3.828193-1.914097 5.104257-2.552129 1.914097-11.484579 6.380322-20.41703 10.208515 7.018354 4.466225 17.226869 11.484579 22.969159 17.226869 14.036708-7.018354 24.245223-12.760644 29.349481-20.41703 5.74229-7.656386 3.828193-14.67474-3.190161-25.521287L488.071376 526.334893l27.435384-14.036709-14.036708-21.693094-27.435384 14.036708-14.036709-22.331127z m262.869262-31.901609l79.754024-41.472092-15.950805-24.883256-91.238603 47.214382c-4.466225-8.932451-9.570483-17.226869-14.67474-25.521287l-5.104258-7.656387 70.183541-36.367834-15.950805-24.883256L660.340067 373.207167l-21.055062-32.539642-28.711449 14.674741 21.055062 32.539641-31.901609 16.588837c-1.914097-9.570483-4.466225-19.778998-7.018354-29.34948l-32.539642 9.570483c9.570483 29.987513 13.398676 63.803219 7.018354 88.048442 8.932451-0.638032 26.15932-1.276064 35.091771-0.638033 1.914097-10.846547 2.552129-22.969159 1.276064-36.367834l44.024221-22.969159 5.104258 7.656386c5.104258 8.294418 10.208515 16.588837 14.036708 25.521288l-86.134346 44.662253 15.950805 24.883255 77.839927-40.196028c3.828193 28.711449-6.380322 60.613058-46.57635 98.89499 8.932451 1.914097 24.245223 8.294418 31.263577 12.122611 42.748157-40.83406 54.232736-77.839927 49.766511-111.017601 39.557996 22.969159 81.030088 29.349481 132.072663 16.588837-0.638032-8.932451 0.638032-24.245223 3.190161-32.539641-46.57635 14.67474-87.41041 10.208515-121.226116-8.932451zM1004.239417 341.305558c-1.276064-28.073416-10.846547-60.613058-28.073417-97.618925l12.760644-6.380322-14.036708-21.693095-61.889122 31.90161c-3.190161-11.484579-6.380322-22.969159-10.208515-34.453738l-27.435385 7.656386c12.760644 33.815706 20.41703 69.545509 17.22687 96.980893L846.645466 245.600729l-89.324506 46.57635L838.98908 418.507453l21.693094-11.48458L792.41273 303.023626l45.300285-23.607191 66.99338 103.999247 22.969159-11.484579-31.901609-49.128479c8.294418 3.190161 20.41703 8.294418 25.521287 11.48458 0.638032-3.190161 0.638032-7.018354 1.276064-10.846548 17.864901 14.036708 35.729803 25.521288 54.232737 34.453739-1.914097 19.140966-8.932451 35.729803-20.41703 51.042575 7.018354 0.638032 20.41703 5.74229 27.435384 8.93245 10.208515-14.67474 16.588837-31.263577 19.140965-49.128478 19.140966 6.380322 38.919964 9.570483 59.336994 8.93245 0-7.656386 1.914097-19.778998 5.104257-26.797351-21.693094 0.638032-42.748157-1.914097-63.165186-9.570483z m-83.582217-51.042575c-0.638032-5.104258-1.276064-10.846547-1.914097-16.588837l34.453739-17.864902c13.398676 27.435384 21.055062 52.31864 23.607191 74.011734-19.778998-10.208515-38.919964-23.607191-56.146833-39.557995z m-24.883255 117.397922c16.588837 7.018354 38.281931 17.226869 49.76651 24.245224l12.122612-21.693095c-12.122612-6.380322-33.815706-15.312773-49.766511-22.331127l-12.122611 19.778998z m-61.889123-111.655633l-23.607191 12.122612 35.729803 56.146832c16.588837 25.521288 35.09177 61.889122 7.018354 101.447119 8.294418 1.276064 20.41703 4.466225 26.797352 7.018354 28.073416-46.57635 10.208515-88.686474-10.208515-120.588084l-35.729803-56.146833z" fill="#999899" p-id="1107"></path></svg>