<?xml version="1.0" standalone="no"?><!DOCTYPE svg PUBLIC "-//W3C//DTD SVG 1.1//EN" "http://www.w3.org/Graphics/SVG/1.1/DTD/svg11.dtd"><svg t="1550820891919" class="icon" style="" viewBox="0 0 1177 1024" version="1.1" xmlns="http://www.w3.org/2000/svg" p-id="984" xmlns:xlink="http://www.w3.org/1999/xlink" width="229.8828125" height="200"><defs><style type="text/css"></style></defs><path d="M860.8 659.2c-8.32-3.84-18.56-1.92-24.32 5.76-28.16 46.72-71.04 82.56-119.68 106.88-48.64 24.32-103.68 33.92-158.72 28.16-8.32 0-16 6.4-18.56 16 0 8.32 6.4 16 16 17.92 60.8 5.76 121.6-3.84 176.64-30.08 55.04-26.24 101.76-68.48 133.76-120.96 5.12-7.04 3.2-17.28-5.12-23.68z m312.96-262.4l-131.84-270.72c-12.16-26.24-42.88-36.48-67.2-24.32L29.44 556.16C3.2 568.32-7.04 598.4 5.12 622.72l132.48 270.72c12.16 26.24 42.88 36.48 67.2 24.32l944.64-456.32c24.32-12.16 34.56-40.32 24.32-64.64z m-40.96 34.56L188.16 887.68c-8.32 1.92-16 0-20.48-8.32L35.84 609.28c-1.92-8.32 0-16 8.32-20.48l944.64-456.32c8.32-1.92 16 0 20.48 8.32l131.84 270.72c1.92 7.68 0 16-8.32 19.84zM318.08 364.16c8.32 3.84 18.56 1.92 24.32-5.76 28.16-46.72 71.04-82.56 119.68-106.88 48.64-24.32 103.68-33.92 158.72-28.16 3.84 0 8.32 0 10.24-1.92 3.84-1.92 8.32-8.32 8.32-12.16 0-8.32-6.4-16-16-17.92-60.8-5.76-121.6 3.84-176.64 30.08-55.04 26.24-101.76 66.56-134.4 119.04-4.48 7.68-2.56 17.92 5.76 23.68zM92.16 475.52c10.24 0 18.56-6.4 20.48-16 18.56-165.76 119.68-305.28 268.16-377.6C529.28 8.96 704 19.2 844.16 108.16c3.84 1.92 10.24 1.92 16 0 3.84-1.92 5.76-3.84 7.68-5.76 3.84-8.32 1.92-18.56-5.76-24.32C710.4-15.36 525.44-25.6 364.8 51.2S96.64 279.68 76.16 455.68c0 10.24 6.4 17.92 16 19.84z m705.28 464.64c-148.48 72.32-323.2 62.72-463.36-24.32l-18.56 30.08c152.32 92.8 337.28 103.04 497.92 26.24 160.64-76.8 268.16-228.48 286.72-405.76l-34.56-3.84c-17.92 165.76-117.76 305.28-268.16 377.6z m-14.08-82.56l-8.32-32-20.48 28.16-32.64-1.92 20.48 26.24-12.16 30.08 30.72-12.16 26.24 22.4-1.92-34.56 28.8-16-30.72-10.24z m-518.4-577.92l18.56 28.16 8.32-32 30.72-8.32-26.88-17.92 1.92-32.64-26.24 20.48-30.72-12.16 10.24 30.08L230.4 281.6l34.56-1.92zM596.48 89.6l-16.64-28.16-10.24 30.08-32 8.32 26.24 20.48-1.92 32 26.24-20.48 30.72 12.16-10.24-30.08 22.4-24.32h-34.56z m-176.64 38.4l-26.24-20.48V140.8l-26.24 17.92 30.72 10.24 8.32 30.08 18.56-26.24 34.56 1.92-20.48-26.24 12.16-30.08-31.36 9.6z m495.36 618.24l-18.56-28.16-8.32 32-32.64 8.32 28.16 17.92-1.92 32 26.24-20.48 30.72 12.16-12.16-30.08 20.48-26.24-32 2.56z m-332.8 190.08l18.56 28.16 10.24-32 30.72-5.76-26.24-20.48 3.84-32-26.24 17.92-30.72-12.16 10.24 32-22.4 24.32h32z m-352.64-242.56l-36.48 26.88c5.12-24.96 8.32-52.48 8.32-78.08l-28.16-1.28c0.64 8.96 0 19.2 0 28.16l-21.76 13.44c2.56-23.68 1.92-50.56-0.64-74.24l-30.72 2.56c6.4 28.8 7.68 62.72 6.4 71.68-0.64 9.6-1.92 16-5.76 19.84 7.04 4.48 17.92 13.44 22.4 17.92 2.56-3.84 7.68-7.68 28.8-21.76-1.92 14.72-4.48 26.24-5.12 32-3.2 11.52-5.12 18.56-10.24 23.04 6.4 4.48 16.64 12.16 21.12 16.64 4.48-6.4 12.16-13.44 65.28-55.04-4.48-5.76-10.24-15.36-13.44-21.76z m149.76 7.04L278.4 543.36l-94.08 48.64 101.12 157.44-20.48 10.24 14.08 22.4 133.12-69.12-14.08-22.4-18.56 10.24zM224.64 600.96l40.96-21.12 19.2 30.08-40.96 21.12-19.2-30.08z m52.48 81.92l-19.2-30.08 40.96-21.12 19.2 30.08-40.96 21.12z m33.92 53.12l-19.84-31.36 40.96-21.12 19.84 31.36-40.96 21.12z m-60.8-0.64c-24.96 21.12-51.2 42.88-69.12 56.96l19.84 21.12c19.2-16.64 42.88-37.76 65.28-58.88l-16-19.2z m62.72-213.12l119.04 185.6 28.16-14.72-4.48-7.04L593.28 614.4l4.48 7.04 29.44-15.36-119.04-185.6-195.2 101.76zM441.6 663.68L355.2 530.56 492.8 458.88l85.76 133.76L441.6 663.68z m19.84-179.84L435.2 497.28l14.08 22.4L384 553.6l14.08 21.76 55.04-28.8c-5.12 28.16-18.56 55.68-32.64 76.16 8.96 1.28 21.12 5.12 27.52 7.68 12.16-17.92 24.32-40.96 31.36-65.28l17.92 28.16c1.28 2.56 1.28 3.84-1.92 5.12-2.56 1.92-11.52 6.4-20.48 10.24 7.04 4.48 17.28 11.52 23.04 17.28 14.08-7.04 24.32-12.8 29.44-20.48 5.76-7.68 3.84-14.72-3.2-25.6l-33.92-52.48 27.52-14.08-14.08-21.76-27.52 14.08-14.72-21.76z m334.72-48.64c15.36 26.24 19.2 38.4 14.08 40.96-7.68 3.84-20.48-1.28-36.48-12.16 3.84-28.8 1.92-59.52-5.76-91.52l-31.36 8.32c5.12 19.84 7.68 39.04 7.68 57.6-14.72-14.72-30.08-32-45.44-51.84l71.04-37.12-16-24.32-23.68 12.16 4.48-16c-12.16-2.56-35.2-3.2-51.84-2.56l-7.04 23.04c12.8 0 28.8 0.64 40.96 2.56l-35.2 18.56c-7.04-9.6-13.44-19.84-19.84-30.08l-28.8 14.72c6.4 10.24 13.44 20.48 20.48 30.08l-94.08 48.64 39.04 60.16c17.28 26.88 39.04 64 37.12 97.92 8.32-0.64 26.24 2.56 33.92 4.48 2.56-35.2-18.56-78.08-37.12-108.8l30.08-15.36c16 26.24 21.76 37.12 21.12 40.96-0.64 3.2-1.92 4.48-5.12 5.76-3.84 1.92-11.52 5.76-20.48 9.6 8.32 3.84 17.28 12.16 22.4 19.2 10.88-5.12 20.48-10.24 26.24-14.08 6.4-4.48 9.6-8.96 10.88-16.64 1.28-8.96-8.96-28.16-36.48-71.68l-5.76-9.6-56.96 29.44-15.36-22.4 66.56-34.56c23.04 29.44 46.72 55.68 69.76 74.88-4.48 20.48-13.44 39.68-25.6 57.6 8.96 1.92 24.96 7.04 32.64 10.24 8.96-15.36 16-31.36 21.12-48 21.12 11.52 40.32 15.36 56.32 7.04 21.12-10.88 24.96-24.96 4.48-65.28-8.96 0.64-22.4 0.64-32-1.92z m109.44-81.28c-8.96 7.68-17.92 16-26.88 23.68l-48-74.24 29.44-15.36-14.72-23.04-86.4 44.8 14.72 23.04 30.08-15.36 51.84 80c-10.24 8.96-20.48 17.28-28.8 24.32l23.04 21.76c21.12-19.2 49.28-44.8 74.24-68.48l-18.56-21.12z m74.24-129.28l-57.6 29.44c-8.32-12.8-16.64-26.88-25.6-40.32l-28.16 14.72c8.96 14.08 17.92 27.52 25.6 40.32l-32 16.64 15.36 23.68 31.36-16c27.52 48.64 39.04 90.88 8.96 136.96 9.6 1.28 23.68 5.76 32 9.6 33.28-53.12 18.56-103.68-13.44-161.28l30.72-16c39.68 65.92 53.76 92.8 51.2 101.76-0.64 4.48-2.56 5.76-6.4 8.32-5.12 2.56-16.64 8.32-28.8 14.08 8.96 4.48 18.56 12.8 23.68 19.84 13.44-6.4 25.6-12.8 32.64-17.92 7.68-5.76 12.16-10.88 13.44-21.76 1.92-14.08-14.72-45.44-65.92-131.2-1.92-2.56-7.04-10.88-7.04-10.88z" fill="#13983B" p-id="985"></path></svg>