<?xml version="1.0" standalone="no"?><!DOCTYPE svg PUBLIC "-//W3C//DTD SVG 1.1//EN" "http://www.w3.org/Graphics/SVG/1.1/DTD/svg11.dtd"><svg t="1564826993347" class="icon" viewBox="0 0 1169 1024" version="1.1" xmlns="http://www.w3.org/2000/svg" p-id="6128" xmlns:xlink="http://www.w3.org/1999/xlink" width="54.796875" height="48"><defs><style type="text/css"></style></defs><path d="M391.703273 1018.501818a55.470545 55.470545 0 0 1-17.611637-2.845091 56.529455 56.529455 0 0 1-34.548363-31.930182l-44.654546-107.042909H145.797818C65.338182 876.567273 0 811.229091 0 730.88V149.643636C0 69.294545 65.338182 3.84 145.797818 3.84H1017.949091c80.343273 0 145.797818 65.338182 145.797818 145.797818v581.248c0 80.343273-65.338182 145.797818-145.803636 145.797818h-374.196364l-223.069091 133.748364a55.761455 55.761455 0 0 1-28.974545 8.069818zM145.803636 100.887273c-26.938182 0-48.756364 21.934545-48.756363 48.750545v581.248c0 26.932364 21.934545 48.750545 48.756363 48.750546h213.858909l51.479273 123.52L616.930909 779.636364h401.024c26.932364 0 48.750545-21.934545 48.750546-48.750546V149.643636c0-26.938182-21.934545-48.756364-48.756364-48.756363H145.803636z" p-id="6129"></path></svg>