<?xml version="1.0" standalone="no"?><!DOCTYPE svg PUBLIC "-//W3C//DTD SVG 1.1//EN" "http://www.w3.org/Graphics/SVG/1.1/DTD/svg11.dtd"><svg t="1564826237075" class="icon" viewBox="0 0 1024 1024" version="1.1" xmlns="http://www.w3.org/2000/svg" p-id="2125" xmlns:xlink="http://www.w3.org/1999/xlink" width="48" height="48"><defs><style type="text/css"></style></defs><path d="M940.362031 162.754967c-54.251656-51.99117-126.587196-81.377483-203.443709-81.377484-76.856512 0-137.889625 27.125828-192.14128 79.116998l-31.646799 38.428256-31.646799-36.16777c-54.251656-51.99117-115.284768-81.377483-192.141281-81.377484-76.856512 0-149.192053 29.386313-203.443708 81.377484C29.386313 214.746137 0 284.821192 0 359.417219c0 74.596026 29.386313 142.410596 83.637969 196.662251L465.660044 926.799117c11.302428 11.302428 29.386313 18.083885 45.209713 18.083885s33.907285-6.781457 45.209713-18.083885l382.022075-370.719647c54.251656-51.99117 83.637969-122.066225 83.637969-196.662251 2.260486-74.596026-27.125828-144.671082-81.377483-196.662252z" p-id="2126"></path></svg>