<?xml version="1.0" standalone="no"?><!DOCTYPE svg PUBLIC "-//W3C//DTD SVG 1.1//EN" "http://www.w3.org/Graphics/SVG/1.1/DTD/svg11.dtd"><svg t="1564826794636" class="icon" viewBox="0 0 1168 1024" version="1.1" xmlns="http://www.w3.org/2000/svg" p-id="2258" xmlns:xlink="http://www.w3.org/1999/xlink" width="54.75" height="48"><defs><style type="text/css"></style></defs><path d="M1066.67136 102.4C930.1312-25.6 725.3312-34.13504 588.80128 93.86496 443.73632-34.13504 238.93632-25.6 102.40128 102.4c-136.53504 136.53504-136.53504 349.86496 0 486.4l401.06496 401.07008a108.17024 108.17024 0 0 0 153.6 0L1058.1312 588.8C1203.20128 460.8 1203.20128 238.93504 1066.67136 102.4z m-51.2 435.2L614.40128 938.67008c-17.07008 17.05984-34.13504 17.05984-51.2 0L153.60128 537.6C42.66624 435.2 42.66624 256 153.60128 153.6c102.4-102.4 273.06496-102.4 384-8.53504l51.2 42.66496 51.2-42.66496C750.9312 42.66496 913.07136 51.2 1024.00128 153.6c93.87008 110.93504 93.87008 281.6-8.52992 384z" p-id="2259"></path></svg>