<svg 
 xmlns="http://www.w3.org/2000/svg"
 xmlns:xlink="http://www.w3.org/1999/xlink"
 width="13px" height="12px">
<path fill-rule="evenodd"
 d="M9.249,-0.001 C8.104,-0.001 7.196,0.575 6.500,1.519 C5.798,0.575 4.899,-0.001 3.753,-0.001 C1.683,-0.001 -0.002,1.831 -0.002,4.089 C-0.002,5.437 0.603,6.381 1.086,7.137 C2.485,9.346 5.863,11.720 6.011,11.835 C6.158,11.951 6.322,12.000 6.494,12.000 C6.666,12.000 6.829,11.942 6.977,11.835 C7.125,11.720 10.502,9.339 11.909,7.137 C12.393,6.381 12.997,5.437 12.997,4.089 C12.996,1.840 11.310,-0.001 9.249,-0.001 L9.249,-0.001 Z"/>
</svg>