<svg xmlns="http://www.w3.org/2000/svg" width="36" height="32" viewBox="0 0 36 32">
  <defs>
    <style>
      .cls-1 {
        fill-rule: evenodd;
      }
    </style>
  </defs>
  <path id="形状_13" data-name="形状 13" class="cls-1" d="M914.613,666A9.364,9.364,0,0,0,907,670.05,9.372,9.372,0,0,0,899.392,666,10.668,10.668,0,0,0,889,676.9c0,3.594,1.675,6.111,3.013,8.127,3.872,5.891,13.228,12.221,13.638,12.53a2.152,2.152,0,0,0,1.337.439,2.325,2.325,0,0,0,1.338-.439c0.41-.309,9.762-6.658,13.658-12.53,1.338-2.016,3.013-4.533,3.013-8.127,0-6-4.672-10.906-10.38-10.906h0Zm0,0" transform="translate(-889 -666)"/>
</svg>
