<svg 
 xmlns="http://www.w3.org/2000/svg"
 xmlns:xlink="http://www.w3.org/1999/xlink"
 width="44px" height="40px">
<path fill-rule="evenodd"  stroke-width="4px" stroke="rgb(86, 84, 84)" fill="rgb(255, 255, 255)"
 d="M29.613,3.998 C26.443,3.998 23.929,5.533 22.000,8.050 C20.056,5.533 17.565,3.998 14.392,3.998 C8.660,3.998 3.996,8.883 3.996,14.904 C3.996,18.498 5.671,21.015 7.009,23.031 C10.881,28.922 20.237,35.252 20.647,35.561 C21.052,35.869 21.506,36.000 21.984,36.000 C22.459,36.000 22.912,35.846 23.322,35.561 C23.732,35.252 33.084,28.903 36.980,23.031 C38.318,21.015 39.993,18.498 39.993,14.904 C39.989,8.906 35.321,3.998 29.613,3.998 L29.613,3.998 Z"/>
</svg>