<svg 
 xmlns="http://www.w3.org/2000/svg"
 xmlns:xlink="http://www.w3.org/1999/xlink"
 width="24px" height="19px">
<path fill-rule="evenodd"
 d="M16.244,5.747 C16.519,5.747 16.793,5.767 17.063,5.796 C16.329,2.470 12.669,-0.001 8.493,-0.001 C3.824,-0.001 -0.000,3.090 -0.000,7.021 C-0.000,9.288 1.270,11.151 3.398,12.594 L2.549,15.077 L5.522,13.633 C6.585,13.836 7.434,14.047 8.498,14.047 C8.764,14.047 9.030,14.034 9.291,14.018 C9.127,13.463 9.030,12.888 9.030,12.284 C9.025,8.672 12.213,5.747 16.244,5.747 L16.244,5.747 ZM11.681,3.508 C12.323,3.508 12.745,3.918 12.745,4.538 C12.745,5.155 12.323,5.569 11.681,5.569 C11.048,5.569 10.406,5.155 10.406,4.538 C10.406,3.918 11.043,3.508 11.681,3.508 L11.681,3.508 ZM5.733,5.569 C5.095,5.569 4.453,5.155 4.453,4.538 C4.453,3.918 5.095,3.508 5.733,3.508 C6.370,3.508 6.792,3.918 6.792,4.538 C6.796,5.155 6.370,5.569 5.733,5.569 L5.733,5.569 ZM24.000,12.181 C24.000,8.879 20.601,6.189 16.785,6.189 C12.741,6.189 9.561,8.879 9.561,12.181 C9.561,15.491 12.745,18.172 16.785,18.172 C17.629,18.172 18.486,17.965 19.335,17.758 L21.665,19.000 L21.028,16.935 C22.729,15.689 24.000,14.043 24.000,12.181 L24.000,12.181 ZM14.442,11.146 C14.020,11.146 13.593,10.737 13.593,10.323 C13.593,9.913 14.020,9.500 14.442,9.500 C15.088,9.500 15.506,9.913 15.506,10.323 C15.506,10.737 15.084,11.146 14.442,11.146 L14.442,11.146 ZM19.115,11.146 C18.697,11.146 18.271,10.737 18.271,10.323 C18.271,9.913 18.697,9.500 19.115,9.500 C19.753,9.500 20.179,9.913 20.179,10.323 C20.175,10.737 19.753,11.146 19.115,11.146 L19.115,11.146 Z"/>
</svg>