<?xml version="1.0" encoding="utf-8"?>
<!-- Generator: Adobe Illustrator 23.0.0, SVG Export Plug-In . SVG Version: 6.00 Build 0)  -->
<svg version="1.1" id="图层_1" xmlns="http://www.w3.org/2000/svg" xmlns:xlink="http://www.w3.org/1999/xlink" x="0px" y="0px"
	 viewBox="0 0 28 28" style="enable-background:new 0 0 28 28;" xml:space="preserve">
<style type="text/css">
	.st0{fill:#777777;}
</style>
<path id="形状_19_拷贝" class="st0" d="M16.5,2.1c0.2,0.1,0.5,0.3,0.7,0.6c0.6,0.8,1.3,2.8-0.1,7.7l-0.4,1.4
	c-0.2,0.6,0.3,1.1,0.9,1.1H19h7c0,0.3-0.2,3.2-2.8,11.6c-0.2,0.5-0.4,1.1-0.6,1.4l-11,0c-0.2,0-0.6,0.1-0.6-0.2V12
	C12.7,10.5,16.3,6.9,16.5,2.1C16.5,2.1,16.5,2.1,16.5,2.1 M5,26H2l0-13h3V26z M16.3,0c-2.1,0-1.7,1.6-1.8,1.9C14.5,7.1,9,11,9,11v15
	c0,1.5,1.8,2,2.6,2h11.6c1.1,0,2-2.8,2-2.8C28,15.8,28,13,28,13c0-1.9-1-2-1-2h0h-8C22,0.3,16.3,0,16.3,0L16.3,0z M6.1,11
	c0,0-0.1,0-0.1,0H1c-0.5,0-1,0.5-1,1v15c0,0.5,0.4,1,0.9,1h5c0.5-0.1,1-0.5,1.1-1V12c0.1-0.5-0.3-0.9-0.7-1C6.2,11,6.2,11,6.1,11
	L6.1,11z"/>
</svg>
