<svg xmlns="http://www.w3.org/2000/svg" width="28" height="28" viewBox="0 0 28 28">
  <defs>
    <style>
      .cls-1 {
        fill: #333;
        fill-rule: evenodd;
      }
    </style>
  </defs>
  <path id="形状_19_拷贝" data-name="形状 19 拷贝" class="cls-1" d="M1545,1618h-8c2.98-10.67-2.69-11-2.69-11-2.13,0-1.69,1.63-1.85,1.91,0,5.22-5.46,9.09-5.46,9.09v15c0,1.46,1.79,2.01,2.6,2.01h11.56c1.09,0,1.98-2.77,1.98-2.77,2.86-9.43,2.86-12.23,2.86-12.23,0-1.95-1-2.01-1-2.01h0Zm-21,0h-5a1.024,1.024,0,0,0-1,1v15a0.99,0.99,0,0,0,.93,1.01h4.99A1.276,1.276,0,0,0,1525,1634v-15a0.875,0.875,0,0,0-1-1h0Z" transform="translate(-1518 -1607)"/>
</svg>
