<?xml version="1.0" standalone="no"?><!DOCTYPE svg PUBLIC "-//W3C//DTD SVG 1.1//EN" "http://www.w3.org/Graphics/SVG/1.1/DTD/svg11.dtd"><svg t="1566146757049" class="icon" viewBox="0 0 1024 1024" version="1.1" xmlns="http://www.w3.org/2000/svg" p-id="2712" xmlns:xlink="http://www.w3.org/1999/xlink" width="48" height="48"><defs><style type="text/css"></style></defs><path d="M827.78 731.973L512.146 416.338 192.365 736.12l-0.028-0.058c-10.825 10.472-25.564 16.915-41.802 16.915-33.269 0-60.242-26.974-60.242-60.245 0-16.237 6.443-30.974 16.915-41.8l-0.03-0.029L468.64 289.437l0.03 0.03c10.944-11.355 26.298-18.444 43.33-18.444h0.265c17.031 0 32.416 7.089 43.36 18.443l0.028-0.03 361.465 361.465-0.148 0.148c10.354 10.826 16.738 25.503 16.738 41.682 0 33.271-26.974 60.246-60.244 60.246-18.267-0.001-34.622-8.149-45.684-21.004z" p-id="2713"></path></svg>