<svg 
 xmlns="http://www.w3.org/2000/svg"
 xmlns:xlink="http://www.w3.org/1999/xlink"
 width="52px" height="52px">
<path fill-rule="evenodd"  stroke-width="4px" stroke="rgb(255, 255, 255)" fill-opacity="0" fill="rgb(255, 255, 255)"
 d="M45.000,39.200 L17.201,39.200 L17.203,39.208 C17.203,39.208 13.200,43.840 10.949,46.733 C10.607,47.172 9.025,48.009 8.724,48.009 L6.592,48.009 C5.163,48.009 4.004,46.851 4.004,45.420 L4.004,36.242 C4.004,36.227 4.000,36.214 4.000,36.200 L4.000,7.000 C4.000,5.343 5.343,4.000 7.000,4.000 L45.000,4.000 C46.657,4.000 48.000,5.343 48.000,7.000 L48.000,36.200 C48.000,37.857 46.657,39.200 45.000,39.200 Z"/>
</svg>