<?xml version="1.0" encoding="utf-8"?>
<!-- Generator: Adobe Illustrator 23.0.0, SVG Export Plug-In . SVG Version: 6.00 Build 0)  -->
<svg version="1.1" id="图层_1" xmlns="http://www.w3.org/2000/svg" xmlns:xlink="http://www.w3.org/1999/xlink" x="0px" y="0px"
	 viewBox="0 0 13 12" style="enable-background:new 0 0 13 12;" xml:space="preserve">
<style type="text/css">
	
</style>
<path class="st0" d="M9.4,1.4c0.7,0,1.3,0.3,1.8,0.8C11.7,2.6,12,3.3,12,4c0,1.9-3.2,4.8-5.5,6.4C4.2,8.8,1,5.9,1,4
	c0-2.3,1.6-2.6,2.6-2.6c0.8,0,1.6,0.4,2.1,1.1l0.8,1.1l0.8-1.1C7.8,1.8,8.6,1.4,9.4,1.4L9.4,1.4 M9.4,0.4C9.4,0.4,9.4,0.4,9.4,0.4
	c-1.2,0-2.2,0.6-2.9,1.5C5.8,0.9,4.7,0.4,3.6,0.4c0,0,0,0,0,0C1.6,0.4,0,1.5,0,4c0,3.4,6.5,7.6,6.5,7.6S13,7.3,13,4
	c0-1-0.4-1.9-1.1-2.5C11.3,0.8,10.4,0.4,9.4,0.4L9.4,0.4z"/>
<path class="st0" d="M9.4,0.4"/>
</svg>
