<?xml version="1.0" standalone="no"?><!DOCTYPE svg PUBLIC "-//W3C//DTD SVG 1.1//EN" "http://www.w3.org/Graphics/SVG/1.1/DTD/svg11.dtd"><svg t="1567135722449" class="icon" viewBox="0 0 1024 1024" version="1.1" xmlns="http://www.w3.org/2000/svg" p-id="3344" xmlns:xlink="http://www.w3.org/1999/xlink" width="48" height="48"><defs><style type="text/css"></style></defs><path d="M511.999488 102.677521c-226.061642 0-409.322479 183.259814-409.322479 409.322479 0 226.060619 183.260837 409.322479 409.322479 409.322479 226.062666 0 409.322479-183.26186 409.322479-409.322479C921.321968 285.937334 738.062154 102.677521 511.999488 102.677521zM693.34879 611.988272c0 0-12.960173 35.352159-36.716226 67.110467 0 0 42.461067 14.439874 38.874379 51.956326 0 0 1.426489 41.848107-90.709955 38.971593 0 0-64.789609-5.046946-84.229356-32.473599l-17.126053 0c-19.438725 27.427676-84.231403 32.473599-84.231403 32.473599-92.154863 2.876514-90.710978-38.971593-90.710978-38.971593-3.603061-37.516452 38.875402-51.956326 38.875402-51.956326-23.752983-31.758308-36.716226-67.110467-36.716226-67.110467-57.599859 93.091188-51.831482-12.990872-51.831482-12.990872 10.800997-62.783928 56.151881-103.915721 56.151881-103.915721-6.478552-57.003272 17.280572-67.11456 17.280572-67.11456 4.978385-176.364777 156.560732-173.279508 159.744237-173.193551 3.183506-0.082888 154.74641-3.172249 159.743214 173.193551 0 0 23.756053 10.111289 17.278525 67.11456 0 0 45.354977 41.131793 56.153928 103.915721l0.004093 0C745.184365 598.9974 750.928183 705.07946 693.34879 611.988272z" fill="#1296db" p-id="3345"></path></svg>