<svg 
 xmlns="http://www.w3.org/2000/svg"
 xmlns:xlink="http://www.w3.org/1999/xlink"
 width="34px" height="34px">
<path fill-rule="evenodd"
 d="M32.109,12.229 C31.100,12.229 30.268,11.437 30.219,10.429 L30.219,6.455 L18.332,18.337 C17.854,18.813 17.159,18.999 16.508,18.824 C15.856,18.649 15.348,18.140 15.174,17.489 C15.000,16.837 15.187,16.142 15.664,15.666 L27.556,3.785 L23.576,3.785 C22.568,3.736 21.775,2.905 21.775,1.896 C21.775,0.887 22.568,0.055 23.576,0.007 L31.165,0.007 C32.729,0.010 33.997,1.276 33.999,2.839 L33.999,10.429 C33.951,11.437 33.119,12.229 32.109,12.229 ZM16.998,3.785 C9.696,3.785 3.776,9.701 3.776,16.999 C3.776,24.298 9.696,30.214 16.998,30.214 C24.300,30.214 30.219,24.298 30.219,16.999 C30.219,16.498 30.419,16.018 30.774,15.664 C31.129,15.310 31.610,15.112 32.111,15.113 C33.154,15.113 33.999,15.958 33.999,16.999 C33.999,26.384 26.387,33.992 16.998,33.992 C7.609,33.992 -0.003,26.384 -0.003,16.999 C-0.003,7.615 7.609,0.007 16.998,0.007 C18.006,0.055 18.799,0.887 18.799,1.896 C18.799,2.905 18.006,3.736 16.998,3.785 Z"/>
</svg>