<?xml version="1.0" standalone="no"?><!DOCTYPE svg PUBLIC "-//W3C//DTD SVG 1.1//EN" "http://www.w3.org/Graphics/SVG/1.1/DTD/svg11.dtd"><svg t="1567137254969" class="icon" viewBox="0 0 1024 1024" version="1.1" xmlns="http://www.w3.org/2000/svg" p-id="4829" xmlns:xlink="http://www.w3.org/1999/xlink" width="48" height="48"><defs><style type="text/css"></style></defs><path d="M833.130667 931.925333a98.816 98.816 0 1 1 0-197.610666 98.816 98.816 0 0 1 0 197.610666M215.573333 635.52a123.52 123.52 0 1 1 0-247.018667 123.52 123.52 0 0 1 0 247.04M833.130667 92.053333a98.816 98.816 0 1 1 0 197.610667 98.816 98.816 0 0 1 0-197.610667m66.261333 609.130667c-20.032-10.069333-42.325333-16.298667-66.261333-16.298667-23.957333 0-46.250667 6.229333-66.282667 16.298667a148.245333 148.245333 0 0 0-53.610667 45.397333l-77.738666-39.082666-12.544-6.314667-185.066667-93.056-62.229333-31.296c8.128-20.053333 12.842667-41.877333 12.842666-64.853333a171.989333 171.989333 0 0 0-14.848-69.610667l64.234667-32.298667 185.066667-93.077333 12.544-6.314667 74.453333-37.44a148.437333 148.437333 0 0 0 46.293333 43.754667 146.901333 146.901333 0 0 0 76.885334 22.08c28.266667 0 54.4-8.341333 76.885333-22.08a147.669333 147.669333 0 0 0 68.672-99.946667c1.536-8.533333 2.645333-17.216 2.645333-26.197333 0-8.96-1.109333-17.642667-2.645333-26.176C966.272 95.36 906.005333 42.666667 833.130667 42.666667a148.202667 148.202667 0 0 0-148.224 148.202666c0 12.885333 2.154667 25.152 5.248 37.056l-54.656 27.477334-122.496 61.610666-75.093334 37.76-91.093333 45.824c-31.722667-37.333333-78.421333-61.504-131.242667-61.504-54.72 0-102.912 25.92-134.613333 65.6C57.386667 434.261333 42.666667 471.232 42.666667 512s14.698667 77.738667 38.293333 107.306667c31.701333 39.68 79.893333 65.6 134.613333 65.6 54.72 0 102.912-25.898667 134.592-65.578667l87.722667 44.117333 75.093333 37.76 122.517334 61.610667 56.192 28.266667c-3.989333 13.418667-6.784 27.328-6.784 42.026666A148.202667 148.202667 0 0 0 833.130667 981.333333c72.874667 0 133.141333-52.693333 145.557333-122.026666 1.536-8.533333 2.645333-17.216 2.645333-26.176 0-8.981333-1.109333-17.664-2.645333-26.197334a147.669333 147.669333 0 0 0-79.296-105.728" p-id="4830"></path></svg>