<svg 
 xmlns="http://www.w3.org/2000/svg"
 xmlns:xlink="http://www.w3.org/1999/xlink"
 width="24px" height="19px">
<path fill-rule="evenodd"  
 d="M19.238,0.113 C18.433,-0.068 17.354,-0.031 16.001,0.221 C15.982,0.221 15.963,0.231 15.944,0.249 L15.916,0.305 L15.888,0.332 C15.686,0.386 15.522,0.499 15.393,0.671 C15.264,0.842 15.201,1.027 15.201,1.224 C15.201,1.495 15.292,1.719 15.475,1.900 C15.658,2.081 15.879,2.171 16.134,2.171 L16.216,2.171 C16.235,2.171 16.275,2.162 16.341,2.143 C16.404,2.125 16.474,2.111 16.547,2.102 C16.620,2.092 16.697,2.074 16.782,2.046 C16.864,2.018 16.939,1.993 17.002,1.965 C17.066,1.937 17.190,1.923 17.373,1.923 C17.556,1.923 17.781,1.937 18.046,1.965 C18.311,1.993 18.604,2.060 18.923,2.166 C19.245,2.275 19.564,2.409 19.883,2.572 C20.202,2.734 20.523,2.961 20.842,3.248 C21.163,3.535 21.443,3.868 21.680,4.248 C22.156,5.311 22.247,6.339 21.954,7.332 C21.954,7.351 21.949,7.369 21.940,7.388 C21.931,7.406 21.917,7.450 21.898,7.522 C21.880,7.590 21.861,7.657 21.841,7.723 C21.823,7.786 21.804,7.867 21.785,7.967 C21.766,8.066 21.757,8.152 21.757,8.223 C21.757,8.386 21.802,8.520 21.893,8.629 C21.985,8.738 22.099,8.814 22.236,8.858 C22.374,8.902 22.534,8.925 22.717,8.925 C23.228,8.925 23.531,8.620 23.622,8.006 C23.843,7.302 23.965,6.631 23.993,5.992 C24.021,5.352 23.974,4.788 23.857,4.301 C23.737,3.815 23.559,3.359 23.322,2.935 C23.085,2.511 22.810,2.150 22.498,1.854 C22.186,1.555 21.839,1.287 21.455,1.041 C21.070,0.798 20.699,0.603 20.343,0.460 C19.991,0.319 19.620,0.203 19.238,0.113 L19.238,0.113 ZM19.704,7.737 C19.815,7.737 19.916,7.709 20.007,7.656 C20.099,7.603 20.171,7.534 20.228,7.455 C20.281,7.374 20.319,7.288 20.338,7.198 C20.357,7.179 20.366,7.154 20.366,7.117 C20.587,5.061 19.855,3.889 18.170,3.602 C17.675,3.512 17.218,3.502 16.798,3.574 C16.669,3.574 16.561,3.607 16.470,3.669 C16.378,3.732 16.301,3.813 16.235,3.912 C16.172,4.012 16.139,4.116 16.139,4.223 C16.139,4.403 16.202,4.556 16.331,4.681 C16.460,4.806 16.615,4.871 16.798,4.871 C18.224,4.547 18.994,4.996 19.102,6.223 C19.139,6.529 19.120,6.818 19.045,7.089 C19.045,7.270 19.109,7.423 19.238,7.548 C19.364,7.673 19.521,7.735 19.704,7.737 L19.704,7.737 ZM9.965,13.389 C9.836,13.480 9.704,13.519 9.566,13.512 C9.430,13.503 9.334,13.445 9.277,13.336 L9.221,13.227 C9.202,13.190 9.193,13.155 9.193,13.118 L9.193,13.010 C9.193,12.956 9.202,12.910 9.221,12.875 L9.277,12.766 C9.296,12.729 9.322,12.704 9.359,12.685 L9.442,12.577 C9.587,12.468 9.730,12.424 9.866,12.442 C10.002,12.461 10.098,12.533 10.155,12.658 C10.209,12.729 10.232,12.810 10.223,12.901 C10.213,12.991 10.185,13.077 10.141,13.158 C10.096,13.241 10.037,13.318 9.965,13.389 L9.965,13.389 ZM7.631,15.337 C7.520,15.355 7.415,15.360 7.316,15.350 C7.216,15.341 7.124,15.323 7.042,15.295 C6.960,15.267 6.878,15.235 6.795,15.200 C6.713,15.165 6.645,15.114 6.589,15.052 C6.536,14.991 6.486,14.928 6.439,14.862 C6.394,14.799 6.357,14.728 6.329,14.647 C6.300,14.566 6.286,14.480 6.286,14.390 C6.286,14.190 6.340,13.998 6.451,13.808 C6.561,13.619 6.711,13.456 6.903,13.322 C7.096,13.186 7.309,13.109 7.548,13.093 C7.713,13.074 7.872,13.079 8.029,13.107 C8.187,13.135 8.318,13.179 8.428,13.241 C8.538,13.304 8.635,13.375 8.717,13.456 C8.799,13.538 8.860,13.632 8.895,13.741 C8.930,13.850 8.949,13.966 8.951,14.093 C8.951,14.292 8.893,14.480 8.773,14.660 C8.653,14.841 8.494,14.994 8.292,15.119 C8.090,15.244 7.870,15.316 7.631,15.337 L7.631,15.337 ZM8.618,10.224 C8.088,10.277 7.612,10.400 7.192,10.590 C6.772,10.780 6.441,10.995 6.204,11.238 C5.968,11.481 5.766,11.743 5.599,12.023 C5.435,12.303 5.320,12.577 5.257,12.847 C5.193,13.118 5.151,13.366 5.132,13.591 C5.114,13.815 5.104,13.991 5.104,14.119 L5.132,14.334 L5.132,14.443 C5.132,14.496 5.151,14.605 5.189,14.767 C5.226,14.929 5.275,15.077 5.339,15.214 C5.402,15.350 5.508,15.499 5.653,15.661 C5.799,15.823 5.972,15.957 6.174,16.066 C7.382,16.643 8.506,16.819 9.549,16.594 C10.591,16.369 11.433,15.851 12.074,15.038 C12.329,14.732 12.498,14.352 12.580,13.901 C12.662,13.450 12.644,12.996 12.524,12.535 C12.404,12.077 12.200,11.657 11.907,11.278 C11.614,10.898 11.180,10.606 10.605,10.398 C10.033,10.192 9.369,10.134 8.618,10.224 L8.618,10.224 ZM9.416,17.717 C7.441,17.807 5.761,17.427 4.382,16.580 C3.000,15.733 2.310,14.660 2.310,13.362 C2.310,12.081 2.995,10.977 4.368,10.048 C5.740,9.120 7.422,8.610 9.416,8.520 C11.410,8.430 13.092,8.754 14.464,9.492 C15.836,10.231 16.521,11.241 16.521,12.521 C16.521,13.820 15.822,14.987 14.422,16.022 C13.024,17.062 11.353,17.624 9.416,17.717 L9.416,17.717 ZM17.783,9.307 C17.509,9.254 17.330,9.173 17.249,9.064 C17.166,8.955 17.152,8.858 17.206,8.765 L17.288,8.631 C17.307,8.613 17.326,8.587 17.345,8.550 C17.363,8.513 17.401,8.437 17.455,8.321 C17.509,8.203 17.551,8.087 17.579,7.969 C17.607,7.851 17.631,7.707 17.647,7.536 C17.665,7.374 17.660,7.210 17.633,7.050 C17.607,6.897 17.551,6.730 17.469,6.549 C17.387,6.369 17.272,6.207 17.126,6.063 C16.871,5.811 16.535,5.649 16.125,5.577 C15.714,5.505 15.301,5.501 14.891,5.563 C14.480,5.626 14.091,5.707 13.725,5.806 C13.359,5.906 13.056,6.001 12.820,6.091 L12.463,6.253 C12.280,6.306 12.130,6.343 12.010,6.362 C11.891,6.381 11.799,6.376 11.736,6.348 C11.672,6.320 11.621,6.295 11.586,6.267 C11.550,6.239 11.536,6.177 11.543,6.077 C11.553,5.978 11.562,5.892 11.572,5.820 C11.581,5.748 11.605,5.635 11.640,5.482 C11.677,5.329 11.703,5.206 11.722,5.116 C11.722,4.901 11.708,4.697 11.679,4.507 C11.651,4.318 11.593,4.107 11.501,3.873 C11.410,3.639 11.278,3.449 11.102,3.306 C10.929,3.162 10.708,3.044 10.443,2.954 C10.178,2.863 9.836,2.835 9.413,2.873 C8.993,2.907 8.517,3.016 7.987,3.197 C7.347,3.412 6.697,3.734 6.038,4.155 C5.379,4.579 4.809,5.021 4.323,5.480 C3.837,5.940 3.394,6.385 2.993,6.818 C2.589,7.251 2.280,7.603 2.059,7.874 L1.757,8.307 C1.154,9.083 0.706,9.858 0.412,10.632 C0.122,11.405 -0.017,11.991 0.002,12.387 L0.002,12.954 C0.112,13.820 0.382,14.596 0.811,15.281 C1.241,15.966 1.752,16.520 2.348,16.943 C2.944,17.367 3.643,17.729 4.447,18.025 C5.252,18.324 6.026,18.539 6.767,18.673 C7.509,18.808 8.290,18.902 9.113,18.958 C10.467,19.067 11.872,18.963 13.324,18.648 C14.778,18.333 16.132,17.786 17.384,17.011 C18.637,16.235 19.521,15.306 20.033,14.225 C20.345,13.593 20.504,12.998 20.514,12.440 C20.523,11.882 20.427,11.426 20.225,11.074 C20.023,10.722 19.763,10.412 19.442,10.141 C19.123,9.870 18.820,9.671 18.536,9.546 C18.252,9.418 18.001,9.337 17.781,9.303 L17.781,9.307 L17.783,9.307 Z"/>
</svg>