<?xml version="1.0" standalone="no"?><!DOCTYPE svg PUBLIC "-//W3C//DTD SVG 1.1//EN" "http://www.w3.org/Graphics/SVG/1.1/DTD/svg11.dtd"><svg t="1547550742660" class="icon" style="" viewBox="0 0 1024 1024" version="1.1" xmlns="http://www.w3.org/2000/svg" p-id="4269" xmlns:xlink="http://www.w3.org/1999/xlink" width="200" height="200"><defs><style type="text/css"></style></defs><path d="M896 928.256H128a128 128 0 0 1-128-128.064V223.808a128 128 0 0 1 128-128.064h768a128 128 0 0 1 128 128.064v576.384a128 128 0 0 1-128 128.064z m-768-64h768a64 64 0 0 0 64.064-64.064V351.872H63.936v448.32A64 64 0 0 0 128 864.256zM896 159.744H128A64 64 0 0 0 63.936 223.808v64.064h896.128V223.808A64 64 0 0 0 896 159.744zM159.936 544.064H480a32 32 0 0 1 0 64H159.936a32 32 0 0 1 0-64z m0 128H416a32.064 32.064 0 0 1 0 64.064H159.936a32 32 0 0 1 0-64.064z m448.064-128h63.936a32 32 0 1 1 0 64H608a32 32 0 0 1 0-64z m0 0" fill="#999999" p-id="4270"></path></svg>