<?xml version="1.0" standalone="no"?><!DOCTYPE svg PUBLIC "-//W3C//DTD SVG 1.1//EN" "http://www.w3.org/Graphics/SVG/1.1/DTD/svg11.dtd"><svg t="1547550697850" class="icon" style="" viewBox="0 0 1024 1024" version="1.1" xmlns="http://www.w3.org/2000/svg" p-id="3404" xmlns:xlink="http://www.w3.org/1999/xlink" width="200" height="200"><defs><style type="text/css"></style></defs><path d="M919.2 479.3l-142-132.4H598.9V219.2H104.8V713h134.6c10.6 52.3 57 91.8 112.5 91.8s101.9-39.5 112.5-91.8h159.4c10.6 52.3 57 91.8 112.5 91.8S838 765.3 848.6 713h70.6V479.3zM351.9 758.8c-37.9 0-68.7-30.7-68.7-68.5s30.8-68.5 68.7-68.5c37.9 0 68.7 30.7 68.7 68.5s-30.8 68.5-68.7 68.5z m201-91.8h-88.7c-10.8-52-57.1-91.1-112.3-91.1S250.4 615 239.5 667h-88.7V265.2h402.1V667z m183.2 91.8c-37.9 0-68.7-30.7-68.7-68.5s30.8-68.5 68.7-68.5c37.9 0 68.7 30.7 68.7 68.5s-30.8 68.5-68.7 68.5zM873.2 667h-24.7c-10.8-52-57.1-91.1-112.3-91.1S634.6 615 623.8 667h-24.7V392.9h160l114.1 106.4V667z" p-id="3405" fill="#999999"></path></svg>