<?xml version="1.0" standalone="no"?><!DOCTYPE svg PUBLIC "-//W3C//DTD SVG 1.1//EN" "http://www.w3.org/Graphics/SVG/1.1/DTD/svg11.dtd"><svg t="1560827565748" class="icon" style="" viewBox="0 0 1024 1024" version="1.1" xmlns="http://www.w3.org/2000/svg" p-id="1989" xmlns:xlink="http://www.w3.org/1999/xlink" width="200" height="200"><defs><style type="text/css"></style></defs><path d="M893.22666687 557.86666625l-352.00000031 352.32c-24.64000031 24.74666625-57.70666688 38.4-92.80000031 38.4s-68.05333312-13.65333375-92.90666625-38.4L113.06666656 667.52c-51.09333375-51.19999969-51.09333375-134.4 0-185.59999969L465.06666688 129.49333344c33.06666656-33.17333344 86.93333344-54.61333312 137.17333312-54.61333313 8.53333312 0 16.74666656 0.64000031 24.74666625 1.92l165.33333375 26.23999969c62.61333375 10.02666656 117.33333375 64.85333344 127.14666656 127.46666625l26.13333375 165.44000062c10.13333344 62.4-7.46666625 117.01333313-52.37333343 161.91999938zM693.65333375 256.95999969c-40.21333312 0-72.85333313 32.53333312-72.85333406 72.85333406 0 40.21333312 32.53333312 72.85333313 72.85333406 72.85333313 40.21333312 0 72.85333313-32.64 72.85333313-72.85333313 0-40.32-32.64-72.85333313-72.85333313-72.85333406z m0 0" p-id="1990" fill="#777777"></path></svg>