<?xml version="1.0" standalone="no"?><!DOCTYPE svg PUBLIC "-//W3C//DTD SVG 1.1//EN" "http://www.w3.org/Graphics/SVG/1.1/DTD/svg11.dtd"><svg t="1561203166978" class="icon" viewBox="0 0 1024 1024" version="1.1" xmlns="http://www.w3.org/2000/svg" p-id="2024" xmlns:xlink="http://www.w3.org/1999/xlink" width="200" height="200"><defs><style type="text/css"></style></defs><path d="M224 166.4c25.6-12.8 44.8-25.6 96-51.2C428.8 57.6 467.2 32 512 32c44.8 0 96 19.2 166.4 57.6l38.4 19.2c6.4 0 44.8 25.6 51.2 32 19.2 12.8 32 19.2 44.8 25.6 57.6 25.6 96 38.4 121.6 32h25.6v83.2c0 57.6-6.4 76.8-12.8 185.6-12.8 243.2-166.4 416-422.4 518.4l-12.8 6.4-6.4-6.4C243.2 876.8 89.6 704 83.2 467.2c-12.8-108.8-12.8-128-19.2-185.6V198.4h25.6c6.4 0 19.2 0 38.4-6.4 32 0 64-12.8 96-25.6z m217.6 403.2l-89.6-64c-6.4-6.4-12.8-6.4-19.2 0l-6.4 6.4c-6.4 0-6.4 6.4-6.4 12.8s0 6.4 6.4 12.8l115.2 128c6.4 6.4 6.4 6.4 12.8 6.4s12.8 0 12.8-6.4L704 377.6c0-6.4 6.4-6.4 0-12.8 0-6.4-6.4-6.4-6.4-12.8-6.4-6.4-12.8 0-19.2 0L460.8 569.6c-6.4 6.4-12.8 6.4-19.2 0z" fill="#bfbfbf" p-id="2025" data-spm-anchor-id="a313x.7781069.0.i0" class="selected"></path></svg>
